<?xml version="1.0" encoding="UTF-8" standalone="no"?>
<svg
   xmlns:dc="http://purl.org/dc/elements/1.1/"
   xmlns:cc="http://creativecommons.org/ns#"
   xmlns:rdf="http://www.w3.org/1999/02/22-rdf-syntax-ns#"
   xmlns:svg="http://www.w3.org/2000/svg"
   xmlns="http://www.w3.org/2000/svg"
   xmlns:sodipodi="http://sodipodi.sourceforge.net/DTD/sodipodi-0.dtd"
   xmlns:inkscape="http://www.inkscape.org/namespaces/inkscape"
   width="100"
   height="50"
   viewBox="0 0 100 50"
   version="1.1"
   id="svg116"
   sodipodi:docname="appLogo.svg"
   inkscape:version="1.0.1 (3bc2e813f5, 2020-09-07)">
  <metadata
     id="metadata120">
    <rdf:RDF>
      <cc:Work
         rdf:about="">
        <dc:format>image/svg+xml</dc:format>
        <dc:type
           rdf:resource="http://purl.org/dc/dcmitype/StillImage" />
        <dc:title></dc:title>
      </cc:Work>
    </rdf:RDF>
  </metadata>
  <sodipodi:namedview
     pagecolor="#ffffff"
     bordercolor="#666666"
     borderopacity="1"
     objecttolerance="10"
     gridtolerance="10"
     guidetolerance="10"
     inkscape:pageopacity="0"
     inkscape:pageshadow="2"
     inkscape:window-width="1366"
     inkscape:window-height="721"
     id="namedview118"
     showgrid="false"
     inkscape:zoom="2.76"
     inkscape:cx="65.875875"
     inkscape:cy="-9.151688"
     inkscape:window-x="0"
     inkscape:window-y="21"
     inkscape:window-maximized="1"
     inkscape:current-layer="text114" />
  <style
     id="style2">.a{stop-color:#77bcb4;}.b{stop-color:#499edc;}.c{fill:none;stroke-opacity:0.6;stroke-width:0.5;stroke:#000;}</style>
  <defs
     id="defs100">
    <rect
       height="16.1"
       width="60.4"
       y="-3.9"
       x="-58.1"
       id="rect4" />
    <clipPath
       clipPathUnits="userSpaceOnUse"
       id="clipPath8">
      <path
         d="m4123.8 1280.4h86l0.3 2.8-655.7 413.8-610.9-413.8 0.4-2.8h80l530.5 359.3z"
         id="path6" />
    </clipPath>
    <linearGradient
       spreadMethod="pad"
       gradientTransform="matrix(1266.56,0,0,-1266.56,2943.54,1488.73)"
       gradientUnits="userSpaceOnUse"
       x2="1"
       id="linearGradient14">
      <stop
         offset="0"
         class="a"
         id="stop10" />
      <stop
         offset="1"
         class="b"
         id="stop12" />
    </linearGradient>
    <clipPath
       clipPathUnits="userSpaceOnUse"
       id="clipPath18">
      <path
         d="m4132.7 1429.8-64.5-447.9h46.6l57.4 423.8"
         id="path16" />
    </clipPath>
    <linearGradient
       spreadMethod="pad"
       gradientTransform="matrix(103.984,0,0,-103.984,4068.13,1205.8)"
       gradientUnits="userSpaceOnUse"
       x2="1"
       id="linearGradient24">
      <stop
         offset="0"
         class="a"
         id="stop20" />
      <stop
         offset="1"
         class="b"
         id="stop22" />
    </linearGradient>
    <clipPath
       clipPathUnits="userSpaceOnUse"
       id="clipPath28">
      <path
         d="m3021 1429.8 64.5-447.9h-46.6l-57.4 423.8"
         id="path26" />
    </clipPath>
    <linearGradient
       spreadMethod="pad"
       gradientTransform="matrix(-103.984,0,0,-103.984,3085.53,1205.8)"
       gradientUnits="userSpaceOnUse"
       x2="1"
       id="linearGradient34">
      <stop
         offset="0"
         class="a"
         id="stop30" />
      <stop
         offset="1"
         class="b"
         id="stop32" />
    </linearGradient>
    <clipPath
       clipPathUnits="userSpaceOnUse"
       id="clipPath38">
      <path
         d="m3563 1457.5v38h38c-2.7-19.7-18.3-35.3-38-38zm-50.4 38h38v-38c-19.7 2.8-35.3 18.3-38 38zm38 50.4v-38h-38c2.7 19.7 18.3 35.3 38 38zm50.4-38h-38v38c19.7-2.8 35.3-18.3 38-38zm-44.2 49.5c-30.7 0-55.7-25-55.7-55.7 0-30.7 25-55.7 55.7-55.7 30.7 0 55.7 25 55.7 55.7 0 30.7-25 55.7-55.7 55.7z"
         id="path36" />
    </clipPath>
    <linearGradient
       spreadMethod="pad"
       gradientTransform="matrix(111.367,0,0,-111.367,3501.14,1501.67)"
       gradientUnits="userSpaceOnUse"
       x2="1"
       id="linearGradient44">
      <stop
         offset="0"
         class="a"
         id="stop40" />
      <stop
         offset="1"
         class="b"
         id="stop42" />
    </linearGradient>
    <clipPath
       clipPathUnits="userSpaceOnUse"
       id="clipPath48">
      <path
         d="m4071.3 2705.5-29.6-241.2H3815.3l39.6 322.4 9.4-6.7h46.4l0.2 1.7-66.3 47 30.5 23.2 197.1-139.6zm-348.5-241.2-33.3 239.1-0.9 6.8 131.4 99.9 7.5-5.3-1.8-14.5-40-325.9zm-274.4 0 29.2 237.6 7.1-5h35.2l0.1 1.3-183.3 129.8 220.9 167.9 237.2-168-170.7-129.7 0.2-1.3h32.8l3.3 2.5 32.7-235.1zm-99.3 0-45 323.1-2 14.3 10 7.6 137-97-0.8-6.8-29.6-241.2zm-249.3 0-33.3 239.1-0.9 6.8 186.4 141.7 34.9-24.7-59.7-45.4 0.2-1.7h43.2l4.4 3.3 44.4-319zm774.6 424.1-55-41.9-262.4 185.8-245.4-186.5-60.1 42.6-250.3-190.2 0.2-1.3h32.8l3.3 2.5 36.8-264.5h249.3 121.3 252.4 114.5 256.1l32.8 267 7.1-5h35.2l0.1 1.3z"
         id="path46" />
    </clipPath>
    <linearGradient
       spreadMethod="pad"
       gradientTransform="matrix(1141.88,0,0,-1141.88,3001.14,2733.6)"
       gradientUnits="userSpaceOnUse"
       x2="1"
       id="linearGradient54">
      <stop
         offset="0"
         class="a"
         id="stop50" />
      <stop
         offset="1"
         class="b"
         id="stop52" />
    </linearGradient>
    <clipPath
       clipPathUnits="userSpaceOnUse"
       id="clipPath58">
      <path
         d="m3559.8 2583.3h-62v62.1h62.1z"
         id="path56" />
    </clipPath>
    <linearGradient
       spreadMethod="pad"
       gradientTransform="matrix(62.0508,0,0,-62.0508,3497.79,2614.36)"
       gradientUnits="userSpaceOnUse"
       x2="1"
       id="linearGradient64">
      <stop
         offset="0"
         class="a"
         id="stop60" />
      <stop
         offset="1"
         class="b"
         id="stop62" />
    </linearGradient>
    <clipPath
       clipPathUnits="userSpaceOnUse"
       id="clipPath68">
      <path
         d="m3640.3 2583.3h-62v62.1h62.1z"
         id="path66" />
    </clipPath>
    <linearGradient
       spreadMethod="pad"
       gradientTransform="matrix(62.0508,0,0,-62.0508,3578.2,2614.36)"
       gradientUnits="userSpaceOnUse"
       x2="1"
       id="linearGradient74">
      <stop
         offset="0"
         class="a"
         id="stop70" />
      <stop
         offset="1"
         class="b"
         id="stop72" />
    </linearGradient>
    <clipPath
       clipPathUnits="userSpaceOnUse"
       id="clipPath78">
      <path
         d="m3559.8 2496.3h-62v62.1h62.1z"
         id="path76" />
    </clipPath>
    <linearGradient
       spreadMethod="pad"
       gradientTransform="matrix(62.0508,0,0,-62.0508,3497.79,2527.31)"
       gradientUnits="userSpaceOnUse"
       x2="1"
       id="linearGradient84">
      <stop
         offset="0"
         class="a"
         id="stop80" />
      <stop
         offset="1"
         class="b"
         id="stop82" />
    </linearGradient>
    <clipPath
       clipPathUnits="userSpaceOnUse"
       id="clipPath88">
      <path
         d="m3640.3 2496.3h-62v62.1h62.1z"
         id="path86" />
    </clipPath>
    <linearGradient
       spreadMethod="pad"
       gradientTransform="matrix(62.0508,0,0,-62.0508,3578.2,2527.31)"
       gradientUnits="userSpaceOnUse"
       x2="1"
       id="linearGradient94">
      <stop
         offset="0"
         class="a"
         id="stop90" />
      <stop
         offset="1"
         class="b"
         id="stop92" />
    </linearGradient>
    <rect
       x="-58.1"
       y="-3.9"
       width="60.4"
       height="16.1"
       id="rect96" />
    <rect
       x="-58.1"
       y="-3.9"
       width="60.4"
       height="16.1"
       id="rect98" />
  </defs>
  <g
     style="stroke-opacity:0.6;stroke-width:0.5;stroke:#000"
     id="g108">
    <path
       d="M87.3 32.7 75.1 1.8 60.9 30.4 74.6 2.3Z"
       class="c"
       id="path102" />
    <path
       d="M82 32.2 69.8 1.3 55.6 29.9 69.3 1.8Z"
       class="c"
       id="path104" />
    <path
       d="M72.5 22.8 65.1 4.1 56.5 21.5 64.8 4.4Z"
       class="c"
       id="path106" />
  </g>
  <g
     aria-label="  RentRoom"
     id="text114"
     style="font-size:19.8168px;line-height:1;font-family:sans-serif;white-space:pre;shape-inside:url(#rect893-0);stroke-width:1.98168">
    <path
       d="M 5.002785,29.916243 10.056069,36 H 12.65207 L 8.272557,30.788182 c 2.378016,-0.416153 3.586841,-2.278932 3.586841,-4.240795 0,-2.199665 -1.506077,-4.419146 -4.51823,-4.419146 H 2.287884 V 36 h 1.98168 V 24.149554 h 3.071604 c 1.684428,0 2.516733,1.208825 2.516733,2.397833 0,1.208824 -0.832305,2.417649 -2.516733,2.417649 H 5.002785 Z"
       style="font-family:'Code Bold';-inkscape-font-specification:'Code Bold, ';stroke-width:1.98168"
       id="path945" />
    <path
       d="m 14.653538,30.074777 h 6.281925 v -2.021314 h -6.281925 v -3.903909 h 6.420643 V 22.148057 H 12.632224 V 36 h 8.461773 v -2.001497 h -6.440459 z"
       style="font-family:'Code Bold';-inkscape-font-specification:'Code Bold, ';stroke-width:1.98168"
       id="path947" />
    <path
       d="M 23.987221,36 V 26.309585 L 30.685299,36 h 1.585344 V 22.128241 h -1.98168 v 9.769682 l -6.757528,-9.769682 -1.545711,-0.01982 V 36 Z"
       style="font-family:'Code Bold';-inkscape-font-specification:'Code Bold, ';stroke-width:1.98168"
       id="path949" />
    <path
       d="M 37.482443,36.05945 V 23.99102 h 4.181345 V 22.128241 H 31.279785 v 1.862779 h 4.201161 v 12.06843 z"
       style="font-family:'Code Bold';-inkscape-font-specification:'Code Bold, ';stroke-width:1.98168"
       id="path951" />
    <path
       d="M 45.31005,29.916243 50.363333,36 h 2.596001 l -4.379512,-5.211818 c 2.378015,-0.416153 3.58684,-2.278932 3.58684,-4.240795 0,-2.199665 -1.506077,-4.419146 -4.51823,-4.419146 H 42.595148 V 36 h 1.98168 V 24.149554 h 3.071604 c 1.684428,0 2.516734,1.208825 2.516734,2.397833 0,1.208824 -0.832306,2.417649 -2.516734,2.417649 H 45.31005 Z"
       style="font-family:'Code Bold';-inkscape-font-specification:'Code Bold, ';stroke-width:1.98168"
       id="path953" />
    <path
       d="m 64.770121,29.06412 c 0,1.42681 -0.574687,2.675268 -1.466443,3.586841 -0.931389,0.931389 -2.219481,1.506077 -3.58684,1.506077 -1.36736,0 -2.635635,-0.574688 -3.547207,-1.506077 -0.911573,-0.911573 -1.48626,-2.179848 -1.48626,-3.586841 0,-1.406992 0.574687,-2.675268 1.48626,-3.58684 0.911572,-0.93139 2.179847,-1.506077 3.547207,-1.506077 1.367359,0 2.655451,0.574687 3.58684,1.506077 0.891756,0.911572 1.466443,2.160031 1.466443,3.58684 z m -12.108064,0 c 0,1.961863 0.812489,3.725558 2.060947,5.01365 1.268275,1.307909 3.051787,2.100581 4.993834,2.100581 1.961863,0 3.725558,-0.792672 5.01365,-2.100581 1.248458,-1.288092 2.060947,-3.051787 2.060947,-5.01365 0,-1.961863 -0.812489,-3.725558 -2.060947,-5.01365 -1.288092,-1.288092 -3.051787,-2.100581 -5.01365,-2.100581 -1.942047,0 -3.725559,0.812489 -4.993834,2.100581 -1.248458,1.288092 -2.060947,3.051787 -2.060947,5.01365 z"
       style="font-family:'Code Bold';-inkscape-font-specification:'Code Bold, ';stroke-width:1.98168"
       id="path955" />
    <path
       d="m 79.79124,29.06412 c 0,1.42681 -0.574688,2.675268 -1.466444,3.586841 -0.931389,0.931389 -2.196106,-9.356636 -3.563465,-9.356636 -1.367359,0 -2.65901,10.288025 -3.570582,9.356636 -0.911573,-0.911573 -1.48626,-2.179848 -1.48626,-3.586841 0,-1.406992 0.574687,-2.675268 1.48626,-3.58684 0.911572,-0.93139 2.179848,-1.506077 3.547207,-1.506077 1.367359,0 2.655451,0.574687 3.58684,1.506077 0.891756,0.911572 1.466444,2.160031 1.466444,3.58684 z m -12.108065,0 c 0,1.961863 0.812489,3.725558 2.060947,5.01365 1.268275,1.307909 3.051787,2.100581 4.993834,2.100581 1.961863,0 3.725558,-0.792672 5.01365,-2.100581 1.248458,-1.288092 2.060947,-3.051787 2.060947,-5.01365 0,-1.961863 -0.812489,-3.725558 -2.060947,-5.01365 -1.288092,-1.288092 -3.051787,-2.100581 -5.01365,-2.100581 -1.942047,0 -3.725559,0.812489 -4.993834,2.100581 -1.248458,1.288092 -2.060947,3.051787 -2.060947,5.01365 z"
       style="font-family:'Code Bold';-inkscape-font-specification:'Code Bold, ';stroke-width:1.98168"
       id="path957"
       sodipodi:nodetypes="scscscscsscscscscs" />
    <path
       d="m 85.339922,26.230318 3.626478,5.390169 h 1.12955 l 3.62648,-5.390169 V 36 h 1.98168 V 22.128241 h -1.58535 l -4.57768,6.737711 -4.577677,-6.737711 H 83.338426 V 36 h 2.001496 z"
       style="font-family:'Code Bold';-inkscape-font-specification:'Code Bold, ';stroke-width:1.98168"
       id="path959" />
  </g>
</svg>
