<?xml version="1.0" encoding="UTF-8" standalone="no"?>
<svg
   xmlns:dc="http://purl.org/dc/elements/1.1/"
   xmlns:cc="http://creativecommons.org/ns#"
   xmlns:rdf="http://www.w3.org/1999/02/22-rdf-syntax-ns#"
   xmlns:svg="http://www.w3.org/2000/svg"
   xmlns="http://www.w3.org/2000/svg"
   xmlns:sodipodi="http://sodipodi.sourceforge.net/DTD/sodipodi-0.dtd"
   xmlns:inkscape="http://www.inkscape.org/namespaces/inkscape"
   sodipodi:docname="drawing.svg"
   inkscape:version="1.0 (4035a4fb49, 2020-05-01)"
   id="svg625"
   version="1.1"
   viewBox="0 0 80 50"
   height="50mm"
   width="80mm">
  <defs
     id="defs619">
    <clipPath
       clipPathUnits="userSpaceOnUse"
       id="clipPath470">
      <path
         d="m 4123.82,1280.43 h 85.97 l 0.32,2.83 -655.67,413.78 -610.9,-413.78 0.36,-2.83 h 80.04 l 530.5,359.31 z"
         id="path468" />
    </clipPath>
    <linearGradient
       x1="0"
       y1="0"
       x2="1"
       y2="0"
       gradientUnits="userSpaceOnUse"
       gradientTransform="matrix(1266.56,0,0,-1266.56,2943.54,1488.73)"
       spreadMethod="pad"
       id="linearGradient476">
      <stop
         style="stop-opacity:1;stop-color:#77bcb4"
         offset="0"
         id="stop472" />
      <stop
         style="stop-opacity:1;stop-color:#499edc"
         offset="1"
         id="stop474" />
    </linearGradient>
    <clipPath
       clipPathUnits="userSpaceOnUse"
       id="clipPath486">
      <path
         d="m 4132.67,1429.78 -64.54,-447.94 h 46.61 l 57.37,423.75"
         id="path484" />
    </clipPath>
    <linearGradient
       x1="0"
       y1="0"
       x2="1"
       y2="0"
       gradientUnits="userSpaceOnUse"
       gradientTransform="matrix(103.984,0,0,-103.984,4068.13,1205.8)"
       spreadMethod="pad"
       id="linearGradient492">
      <stop
         style="stop-opacity:1;stop-color:#77bcb4"
         offset="0"
         id="stop488" />
      <stop
         style="stop-opacity:1;stop-color:#499edc"
         offset="1"
         id="stop490" />
    </linearGradient>
    <clipPath
       clipPathUnits="userSpaceOnUse"
       id="clipPath502">
      <path
         d="m 3020.99,1429.78 64.54,-447.94 h -46.61 l -57.38,423.75"
         id="path500" />
    </clipPath>
    <linearGradient
       x1="0"
       y1="0"
       x2="1"
       y2="0"
       gradientUnits="userSpaceOnUse"
       gradientTransform="matrix(-103.984,0,0,-103.984,3085.53,1205.8)"
       spreadMethod="pad"
       id="linearGradient508">
      <stop
         style="stop-opacity:1;stop-color:#77bcb4"
         offset="0"
         id="stop504" />
      <stop
         style="stop-opacity:1;stop-color:#499edc"
         offset="1"
         id="stop506" />
    </linearGradient>
    <clipPath
       clipPathUnits="userSpaceOnUse"
       id="clipPath518">
      <path
         d="m 3563.02,1457.46 v 38.02 h 38.01 c -2.74,-19.68 -18.32,-35.27 -38.01,-38.02 z m -50.39,38.02 h 38 v -38.02 c -19.68,2.75 -35.27,18.34 -38,38.02 z m 38,50.4 v -38.02 h -38 c 2.73,19.69 18.32,35.26 38,38.02 z m 50.4,-38.02 h -38.01 v 38.02 c 19.69,-2.76 35.27,-18.33 38.01,-38.02 z m -44.2,49.49 c -30.71,0 -55.69,-24.98 -55.69,-55.68 0,-30.7 24.98,-55.68 55.69,-55.68 30.7,0 55.68,24.98 55.68,55.68 0,30.7 -24.98,55.68 -55.68,55.68 z"
         id="path516" />
    </clipPath>
    <linearGradient
       x1="0"
       y1="0"
       x2="1"
       y2="0"
       gradientUnits="userSpaceOnUse"
       gradientTransform="matrix(111.367,0,0,-111.367,3501.14,1501.67)"
       spreadMethod="pad"
       id="linearGradient524">
      <stop
         style="stop-opacity:1;stop-color:#77bcb4"
         offset="0"
         id="stop520" />
      <stop
         style="stop-opacity:1;stop-color:#499edc"
         offset="1"
         id="stop522" />
    </linearGradient>
    <clipPath
       clipPathUnits="userSpaceOnUse"
       id="clipPath272">
      <path
         d="m 4071.32,2705.47 -29.6,-241.17 H 3815.3 l 39.56,322.36 9.4,-6.66 h 46.41 l 0.17,1.72 -66.32,46.97 30.49,23.18 197.14,-139.61 z m -348.5,-241.17 -33.29,239.12 -0.94,6.75 131.36,99.85 7.48,-5.29 -1.78,-14.49 -40.01,-325.94 z m -274.42,0 29.16,237.58 7.13,-5.05 h 35.22 l 0.13,1.31 -183.34,129.84 220.86,167.87 237.22,-168 -170.66,-129.71 0.15,-1.31 h 32.79 l 3.32,2.53 32.72,-235.06 z m -99.3,0 -44.97,323.09 -1.99,14.32 10,7.6 137.04,-97.05 -0.84,-6.79 -29.6,-241.17 z m -249.26,0 -33.28,239.12 -0.94,6.75 186.41,141.7 34.92,-24.73 -59.74,-45.42 0.18,-1.72 h 43.22 l 4.37,3.33 44.4,-319.03 z m 774.55,424.08 -55.05,-41.86 -262.4,185.83 -245.42,-186.54 -60.09,42.57 -250.29,-190.24 0.15,-1.31 h 32.79 l 3.32,2.53 36.82,-264.51 h 249.27 121.3 252.41 114.49 256.07 l 32.78,267.03 7.13,-5.05 h 35.22 l 0.13,1.31 z"
         id="path270" />
    </clipPath>
    <linearGradient
       x1="0"
       y1="0"
       x2="1"
       y2="0"
       gradientUnits="userSpaceOnUse"
       gradientTransform="matrix(1141.88,0,0,-1141.88,3001.14,2733.6)"
       spreadMethod="pad"
       id="linearGradient278">
      <stop
         style="stop-opacity:1;stop-color:#77bcb4"
         offset="0"
         id="stop274" />
      <stop
         style="stop-opacity:1;stop-color:#499edc"
         offset="1"
         id="stop276" />
    </linearGradient>
    <clipPath
       clipPathUnits="userSpaceOnUse"
       id="clipPath298">
      <path
         d="m 3559.84,2583.33 h -62.05 v 62.05 h 62.05 z"
         id="path296" />
    </clipPath>
    <linearGradient
       x1="0"
       y1="0"
       x2="1"
       y2="0"
       gradientUnits="userSpaceOnUse"
       gradientTransform="matrix(62.0508,0,0,-62.0508,3497.79,2614.36)"
       spreadMethod="pad"
       id="linearGradient304">
      <stop
         style="stop-opacity:1;stop-color:#77bcb4"
         offset="0"
         id="stop300" />
      <stop
         style="stop-opacity:1;stop-color:#499edc"
         offset="1"
         id="stop302" />
    </linearGradient>
    <clipPath
       clipPathUnits="userSpaceOnUse"
       id="clipPath314">
      <path
         d="m 3640.25,2583.33 h -62.05 v 62.05 h 62.05 z"
         id="path312" />
    </clipPath>
    <linearGradient
       x1="0"
       y1="0"
       x2="1"
       y2="0"
       gradientUnits="userSpaceOnUse"
       gradientTransform="matrix(62.0508,0,0,-62.0508,3578.2,2614.36)"
       spreadMethod="pad"
       id="linearGradient320">
      <stop
         style="stop-opacity:1;stop-color:#77bcb4"
         offset="0"
         id="stop316" />
      <stop
         style="stop-opacity:1;stop-color:#499edc"
         offset="1"
         id="stop318" />
    </linearGradient>
    <clipPath
       clipPathUnits="userSpaceOnUse"
       id="clipPath330">
      <path
         d="m 3559.84,2496.28 h -62.05 v 62.05 h 62.05 z"
         id="path328" />
    </clipPath>
    <linearGradient
       x1="0"
       y1="0"
       x2="1"
       y2="0"
       gradientUnits="userSpaceOnUse"
       gradientTransform="matrix(62.0508,0,0,-62.0508,3497.79,2527.31)"
       spreadMethod="pad"
       id="linearGradient336">
      <stop
         style="stop-opacity:1;stop-color:#77bcb4"
         offset="0"
         id="stop332" />
      <stop
         style="stop-opacity:1;stop-color:#499edc"
         offset="1"
         id="stop334" />
    </linearGradient>
    <clipPath
       clipPathUnits="userSpaceOnUse"
       id="clipPath346">
      <path
         d="m 3640.25,2496.28 h -62.05 v 62.05 h 62.05 z"
         id="path344" />
    </clipPath>
    <linearGradient
       x1="0"
       y1="0"
       x2="1"
       y2="0"
       gradientUnits="userSpaceOnUse"
       gradientTransform="matrix(62.0508,0,0,-62.0508,3578.2,2527.31)"
       spreadMethod="pad"
       id="linearGradient352">
      <stop
         style="stop-opacity:1;stop-color:#77bcb4"
         offset="0"
         id="stop348" />
      <stop
         style="stop-opacity:1;stop-color:#499edc"
         offset="1"
         id="stop350" />
    </linearGradient>
  </defs>
  <sodipodi:namedview
     inkscape:window-maximized="0"
     inkscape:window-y="0"
     inkscape:window-x="0"
     inkscape:window-height="745"
     inkscape:window-width="1366"
     showgrid="false"
     inkscape:document-rotation="0"
     inkscape:current-layer="layer1"
     inkscape:document-units="mm"
     inkscape:cy="-100.59485"
     inkscape:cx="-260.01547"
     inkscape:zoom="0.24748737"
     inkscape:pageshadow="2"
     inkscape:pageopacity="0.0"
     borderopacity="1.0"
     bordercolor="#666666"
     pagecolor="#ffffff"
     id="base" />
  <metadata
     id="metadata622">
    <rdf:RDF>
      <cc:Work
         rdf:about="">
        <dc:format>image/svg+xml</dc:format>
        <dc:type
           rdf:resource="http://purl.org/dc/dcmitype/StillImage" />
        <dc:title></dc:title>
      </cc:Work>
    </rdf:RDF>
  </metadata>
  <g
     id="layer1"
     inkscape:groupmode="layer"
     inkscape:label="Layer 1">
    <g
       style="fill:#f2f2f2"
       transform="matrix(0.05977888,0,0,-0.05977888,-173.54793,190.00026)"
       id="g266">
      <g
         style="fill:#f2f2f2"
         id="g268"
         clip-path="url(#clipPath272)">
        <path
           d="m 4071.32,2705.47 -29.6,-241.17 H 3815.3 l 39.56,322.36 9.4,-6.66 h 46.41 l 0.17,1.72 -66.32,46.97 30.49,23.18 197.14,-139.61 z m -348.5,-241.17 -33.29,239.12 -0.94,6.75 131.36,99.85 7.48,-5.29 -1.78,-14.49 -40.01,-325.94 z m -274.42,0 29.16,237.58 7.13,-5.05 h 35.22 l 0.13,1.31 -183.34,129.84 220.86,167.87 237.22,-168 -170.66,-129.71 0.15,-1.31 h 32.79 l 3.32,2.53 32.72,-235.06 z m -99.3,0 -44.97,323.09 -1.99,14.32 10,7.6 137.04,-97.05 -0.84,-6.79 -29.6,-241.17 z m -249.26,0 -33.28,239.12 -0.94,6.75 186.41,141.7 34.92,-24.73 -59.74,-45.42 0.18,-1.72 h 43.22 l 4.37,3.33 44.4,-319.03 z m 774.55,424.08 -55.05,-41.86 -262.4,185.83 -245.42,-186.54 -60.09,42.57 -250.29,-190.24 0.15,-1.31 h 32.79 l 3.32,2.53 36.82,-264.51 h 249.27 121.3 252.41 114.49 256.07 l 32.78,267.03 7.13,-5.05 h 35.22 l 0.13,1.31 -268.63,190.24"
           style="fill:#f2f2f2;fill-opacity:1;fill-rule:nonzero;stroke:none"
           id="path280" />
      </g>
    </g>
    <g
       id="g282"
       transform="matrix(0.35277777,0,0,-0.35277777,-129.96445,123.27156)" />
    <g
       style="fill:#f2f2f2"
       transform="matrix(0.05977888,0,0,-0.05977888,-173.54793,190.00026)"
       id="g292">
      <g
         style="fill:#f2f2f2"
         id="g294"
         clip-path="url(#clipPath298)">
        <path
           d="m 3559.84,2583.33 h -62.05 v 62.05 h 62.05 v -62.05"
           style="fill:#f2f2f2;fill-opacity:1;fill-rule:nonzero;stroke:none"
           id="path306" />
      </g>
    </g>
    <g
       style="fill:#f2f2f2"
       transform="matrix(0.05977888,0,0,-0.05977888,-173.54793,190.00026)"
       id="g308">
      <g
         style="fill:#f2f2f2"
         id="g310"
         clip-path="url(#clipPath314)">
        <path
           d="m 3640.25,2583.33 h -62.05 v 62.05 h 62.05 v -62.05"
           style="fill:#f2f2f2;fill-opacity:1;fill-rule:nonzero;stroke:none"
           id="path322" />
      </g>
    </g>
    <g
       style="fill:#f2f2f2"
       transform="matrix(0.05977888,0,0,-0.05977888,-173.54793,190.00026)"
       id="g324">
      <g
         style="fill:#f2f2f2"
         id="g326"
         clip-path="url(#clipPath330)">
        <path
           d="m 3559.84,2496.28 h -62.05 v 62.05 h 62.05 v -62.05"
           style="fill:#f2f2f2;fill-opacity:1;fill-rule:nonzero;stroke:none"
           id="path338" />
      </g>
    </g>
    <g
       style="fill:#f2f2f2"
       transform="matrix(0.05977888,0,0,-0.05977888,-173.54793,190.00026)"
       id="g340">
      <g
         style="fill:#f2f2f2"
         id="g342"
         clip-path="url(#clipPath346)">
        <path
           d="m 3640.25,2496.28 h -62.05 v 62.05 h 62.05 v -62.05"
           style="fill:#f2f2f2;fill-opacity:1;fill-rule:nonzero;stroke:none"
           id="path354" />
      </g>
    </g>
  </g>
</svg>
