<?xml version="1.0" encoding="UTF-8" standalone="no"?>
<!-- Created with Inkscape (http://www.inkscape.org/) -->

<svg
   xmlns:dc="http://purl.org/dc/elements/1.1/"
   xmlns:cc="http://creativecommons.org/ns#"
   xmlns:rdf="http://www.w3.org/1999/02/22-rdf-syntax-ns#"
   xmlns:svg="http://www.w3.org/2000/svg"
   xmlns="http://www.w3.org/2000/svg"
   xmlns:sodipodi="http://sodipodi.sourceforge.net/DTD/sodipodi-0.dtd"
   xmlns:inkscape="http://www.inkscape.org/namespaces/inkscape"
   width="210mm"
   height="297mm"
   viewBox="0 0 210 297"
   version="1.1"
   id="svg1341"
   inkscape:version="0.92.5 (2060ec1f9f, 2020-04-08)"
   sodipodi:docname="rent-room.svg">
  <defs
     id="defs1335" />
  <sodipodi:namedview
     id="base"
     pagecolor="#ffffff"
     bordercolor="#666666"
     borderopacity="1.0"
     inkscape:pageopacity="0.0"
     inkscape:pageshadow="2"
     inkscape:zoom="7.9195959"
     inkscape:cx="450.20809"
     inkscape:cy="574.08668"
     inkscape:document-units="mm"
     inkscape:current-layer="layer1"
     showgrid="false"
     inkscape:window-width="1366"
     inkscape:window-height="722"
     inkscape:window-x="0"
     inkscape:window-y="21"
     inkscape:window-maximized="1" />
  <metadata
     id="metadata1338">
    <rdf:RDF>
      <cc:Work
         rdf:about="">
        <dc:format>image/svg+xml</dc:format>
        <dc:type
           rdf:resource="http://purl.org/dc/dcmitype/StillImage" />
        <dc:title />
      </cc:Work>
    </rdf:RDF>
  </metadata>
  <g
     inkscape:label="Layer 1"
     inkscape:groupmode="layer"
     id="layer1">
    <path
       d="m 134.78584,176.09178 h -2.6031 v -5.90198 h 2.6031 c 1.63989,0 3.03354,1.29204 3.03354,2.95099 0,1.66108 -1.39365,2.95099 -3.03354,2.95099 z m -2.6031,-11.53719 h 2.50077 c 1.35271,0 2.27429,1.25039 2.27429,2.541 0,1.29133 -0.92158,2.52054 -2.29545,2.52054 h -2.47961 z m 3.83233,5.28733 c 0.96389,-0.5532 1.51781,-1.63919 1.51781,-2.74633 0,-1.59828 -1.18969,-3.11469 -2.84937,-3.11469 h -2.78727 c -0.16369,0 -0.28718,0.14322 -0.28718,0.28719 v 12.07067 c 0,0.14321 0.14395,0.32809 0.30836,0.32809 h 2.86842 c 1.94756,0 3.60723,-1.55872 3.60723,-3.52606 0,-1.49594 -0.98366,-2.80703 -2.378,-3.29887"
       style="fill:#333333;fill-opacity:1;fill-rule:nonzero;stroke:none;stroke-width:0.07056384"
       id="path176"
       inkscape:connector-curvature="0" />
    <path
       d="m 143.90269,176.23573 c -1.59828,0 -2.72518,-1.45503 -2.72518,-2.99121 0,-1.53687 1.1269,-2.99191 2.72518,-2.99191 1.61944,0 2.72658,1.45504 2.72658,2.99191 0,1.53618 -1.10714,2.99121 -2.72658,2.99121 z m 3.15632,-6.43474 c -0.16441,0 -0.28649,0.14323 -0.28649,0.28651 v 1.37316 c -0.57439,-1.04505 -1.63921,-1.78314 -2.86983,-1.78314 -1.9264,0 -3.29887,1.72177 -3.29887,3.567 0,1.84385 1.37247,3.56561 3.29887,3.56561 1.23062,0 2.29544,-0.73811 2.86983,-1.78245 v 1.31108 c 0,0.16362 0.12197,0.28718 0.28649,0.28718 0.16362,0 0.2872,-0.12347 0.2872,-0.28718 v -6.25126 c 0,-0.14323 -0.12334,-0.28651 -0.2872,-0.28651"
       style="fill:#333333;fill-opacity:1;fill-rule:nonzero;stroke:none;stroke-width:0.07056384"
       id="path178"
       inkscape:connector-curvature="0" />
    <path
       d="m 151.97309,172.38294 2.58333,-2.13033 c 0.0614,-0.0416 0.10214,-0.12334 0.10214,-0.2258 0,-0.14321 -0.14323,-0.28719 -0.28648,-0.28719 -0.0628,0 -0.14323,0.0416 -0.18484,0.0826 l -3.8535,3.15563 v -8.58623 c 0,-0.14461 -0.12197,-0.28788 -0.28648,-0.28788 -0.16361,0 -0.28719,0.1432 -0.28719,0.28788 v 12.00857 c 0,0.14322 0.12335,0.28648 0.28719,0.28648 0.16442,0 0.28648,-0.14322 0.28648,-0.28648 v -2.66449 l 1.18901,-0.98367 2.72591,3.81115 c 0.041,0.0826 0.1432,0.12334 0.2258,0.12334 0.16301,0 0.28645,-0.12334 0.28645,-0.2865 0,-0.0614 -0.0199,-0.12334 -0.0406,-0.16442 l -2.74706,-3.85279"
       style="fill:#333333;fill-opacity:1;fill-rule:nonzero;stroke:none;stroke-width:0.07056384"
       id="path180"
       inkscape:connector-curvature="0" />
    <path
       d="m 157.30065,172.95663 c 0.14322,-1.41411 1.20806,-2.70402 2.70471,-2.70402 1.49597,0 2.58264,1.28991 2.70541,2.70402 z m 2.70471,-3.27911 c -1.92639,0 -3.29887,1.72177 -3.29887,3.567 0,1.84385 1.37248,3.56561 3.29887,3.56561 1.12692,0 2.27499,-0.49253 2.84866,-1.49595 0.0212,-0.041 0.0406,-0.0826 0.0406,-0.14324 0,-0.16441 -0.12197,-0.28719 -0.28645,-0.28719 -0.10215,0 -0.18484,0.0614 -0.24558,0.14402 -0.57508,0.81854 -1.33295,1.20805 -2.35753,1.20805 -1.49665,0 -2.56146,-1.29061 -2.70473,-2.70469 h 5.7178 c 0.16362,0 0.30697,-0.12335 0.30697,-0.2865 0,-1.84525 -1.39293,-3.56702 -3.32004,-3.56702"
       style="fill:#333333;fill-opacity:1;fill-rule:nonzero;stroke:none;stroke-width:0.07056384"
       id="path182"
       inkscape:connector-curvature="0" />
    <path
       d="m 168.61063,169.82218 c -0.98366,0 -1.9278,0.75784 -2.39846,1.55735 v -1.27088 c 0,-0.16441 -0.12284,-0.28647 -0.28719,-0.28647 -0.16301,0 -0.28649,0.12197 -0.28649,0.28647 v 6.25056 c 0,0.16441 0.12335,0.2865 0.28649,0.2865 0.16442,0 0.28719,-0.12197 0.28719,-0.2865 v -2.74705 c 0,-1.59828 0.75856,-2.97073 2.43796,-3.21629 0.16524,-0.0212 0.26674,-0.12336 0.26674,-0.30837 0,-0.16301 -0.16302,-0.26532 -0.30624,-0.26532"
       style="fill:#333333;fill-opacity:1;fill-rule:nonzero;stroke:none;stroke-width:0.07056384"
       id="path184"
       inkscape:connector-curvature="0" />
    <path
       d="m 176.58009,169.80099 c -0.10244,0 -0.22437,0.0615 -0.26599,0.18483 l -2.25383,5.77849 -2.3773,-5.79895 c -0.0416,-0.10297 -0.14402,-0.16441 -0.26672,-0.16441 -0.16362,0 -0.2872,0.12335 -0.2872,0.28648 0,0.12334 2.56217,6.33241 2.64332,6.41496 -0.1432,0.40999 -1.47479,3.66792 -1.47479,3.85208 0,0.14402 0.14324,0.2872 0.2865,0.2872 0.12335,0 0.22581,-0.0812 0.26673,-0.18341 0.32813,-0.7995 4.01579,-10.22683 4.01579,-10.37078 0,-0.16304 -0.12197,-0.2865 -0.28651,-0.2865"
       style="fill:#333333;fill-opacity:1;fill-rule:nonzero;stroke:none;stroke-width:0.07056384"
       id="path186"
       inkscape:connector-curvature="0" />
    <path
       d="m 53.528757,163.9809 c -0.165118,0 -0.287899,0.12284 -0.287899,0.28719 v 5.36922 h -5.390371 v -5.36922 c 0,-0.16442 -0.122081,-0.28719 -0.28649,-0.28719 -0.162999,0 -0.28649,0.12284 -0.28649,0.28719 v 12.09112 c 0,0.14321 0.123496,0.2865 0.28649,0.2865 0.164419,0 0.28649,-0.14324 0.28649,-0.2865 V 170.211 h 5.390371 v 6.14821 c 0,0.14321 0.122769,0.2865 0.287899,0.2865 0.163,0 0.286491,-0.14324 0.286491,-0.2865 v -12.09112 c 0,-0.16442 -0.123496,-0.28719 -0.286491,-0.28719"
       style="fill:#333333;fill-opacity:1;fill-rule:nonzero;stroke:none;stroke-width:0.07056384"
       id="path188"
       inkscape:connector-curvature="0" />
    <path
       d="m 59.425779,176.21525 c -1.59827,0 -2.725177,-1.45499 -2.725177,-2.99188 0,-1.51572 1.126907,-2.97076 2.725177,-2.97076 1.619439,0 2.726587,1.45504 2.726587,2.97076 0,1.53689 -1.107148,2.99188 -2.726587,2.99188 z m 0,-6.55749 c -1.925687,0 -3.29886,1.72177 -3.29886,3.56561 0,1.865 1.373173,3.56557 3.29886,3.56557 1.927803,0 3.320733,-1.70057 3.320733,-3.56557 0,-1.84384 -1.39293,-3.56561 -3.320733,-3.56561"
       style="fill:#333333;fill-opacity:1;fill-rule:nonzero;stroke:none;stroke-width:0.07056384"
       id="path190"
       inkscape:connector-curvature="0" />
    <path
       d="m 73.052362,169.69869 c -1.189706,0 -2.111274,0.75785 -2.582636,1.82407 -0.368341,-1.08596 -1.27015,-1.82407 -2.438688,-1.82407 -1.024586,0 -1.90593,0.57369 -2.398463,1.45502 v -1.04506 c 0,-0.16441 -0.122081,-0.28647 -0.286489,-0.28647 -0.163699,0 -0.287198,0.12197 -0.287198,0.28647 v 6.27173 c 0,0.16301 0.123496,0.28647 0.287198,0.28647 0.164418,0 0.286489,-0.12334 0.286489,-0.28647 v -2.76822 c 0.02116,-0.0199 0,-0.10246 0,-0.14322 -0.06069,-1.82407 0.656244,-3.19655 2.398463,-3.19655 1.373174,0 2.070347,1.20948 2.070347,2.4387 v 3.66933 c 0,0.16302 0.12208,0.28649 0.286486,0.28649 0.143238,0 0.286486,-0.12335 0.286486,-0.28649 v -2.82892 c 0,-1.43527 0.656245,-3.27911 2.378005,-3.27911 1.372466,0 2.069636,1.20948 2.069636,2.4387 v 3.66933 c 0,0.16302 0.12277,0.28649 0.286491,0.28649 0.143237,0 0.286488,-0.12335 0.286488,-0.28649 v -3.66933 c 0,-1.55735 -0.962491,-3.01235 -2.642615,-3.01235"
       style="fill:#333333;fill-opacity:1;fill-rule:nonzero;stroke:none;stroke-width:0.07056384"
       id="path192"
       inkscape:connector-curvature="0" />
    <path
       d="m 78.499889,172.95663 c 0.143258,-1.41411 1.208055,-2.70402 2.704005,-2.70402 1.495955,0 2.583346,1.28991 2.705418,2.70402 z m 2.704005,-3.27911 c -1.926392,0 -3.298858,1.72177 -3.298858,3.567 0,1.84385 1.372466,3.56561 3.298858,3.56561 1.126908,0 2.274981,-0.49253 2.848664,-1.49595 0.02116,-0.041 0.0409,-0.0826 0.0409,-0.14324 0,-0.16441 -0.12208,-0.28719 -0.286487,-0.28719 -0.102309,0 -0.184182,0.0614 -0.245563,0.14402 -0.574388,0.81854 -1.332953,1.20805 -2.35754,1.20805 -1.495951,0 -2.560758,-1.29061 -2.704005,-2.70469 h 5.717082 c 0.1637,0 0.306955,-0.12335 0.306955,-0.2865 0,-1.84525 -1.392931,-3.56702 -3.320032,-3.56702"
       style="fill:#333333;fill-opacity:1;fill-rule:nonzero;stroke:none;stroke-width:0.07056384"
       id="path194"
       inkscape:connector-curvature="0" />
    <path
       d="m 94.829751,169.69869 c -1.189006,0 -2.110563,0.75785 -2.581929,1.82407 -0.369048,-1.08596 -1.27015,-1.82407 -2.438679,-1.82407 -1.02458,0 -1.905914,0.57369 -2.398454,1.45502 v -1.04506 c 0,-0.16441 -0.12208,-0.28647 -0.28719,-0.28647 -0.162999,0 -0.286493,0.12197 -0.286493,0.28647 v 6.27173 c 0,0.16301 0.123496,0.28647 0.286493,0.28647 0.165121,0 0.28719,-0.12334 0.28719,-0.28647 v -2.76822 c 0.02117,-0.0199 0,-0.10246 0,-0.14322 -0.06138,-1.82407 0.655542,-3.19655 2.398454,-3.19655 1.37247,0 2.069631,1.20948 2.069631,2.4387 v 3.66933 c 0,0.16302 0.122082,0.28649 0.28649,0.28649 0.143945,0 0.287185,-0.12335 0.287185,-0.28649 v -2.82892 c 0,-1.43527 0.655549,-3.27911 2.377302,-3.27911 1.373175,0 2.069643,1.20948 2.069643,2.4387 v 3.66933 c 0,0.16302 0.123468,0.28649 0.287188,0.28649 0.14325,0 0.286501,-0.12335 0.286501,-0.28649 v -3.66933 c 0,-1.55735 -0.962498,-3.01235 -2.643332,-3.01235"
       style="fill:#333333;fill-opacity:1;fill-rule:nonzero;stroke:none;stroke-width:0.07056384"
       id="path196"
       inkscape:connector-curvature="0" />
    <path
       d="m 102.98202,176.23573 c -1.599,0 -2.72591,-1.45503 -2.72591,-2.99121 0,-1.53687 1.12691,-2.99191 2.72591,-2.99191 1.61944,0 2.72588,1.45504 2.72588,2.99191 0,1.53618 -1.10644,2.99121 -2.72588,2.99121 z m 3.15632,-6.43474 c -0.16443,0 -0.2865,0.14323 -0.2865,0.28651 v 1.37316 c -0.57508,-1.04505 -1.63991,-1.78314 -2.86982,-1.78314 -1.92642,0 -3.299607,1.72177 -3.299607,3.567 0,1.84385 1.373187,3.56561 3.299607,3.56561 1.22991,0 2.29474,-0.73811 2.86982,-1.78245 v 1.31108 c 0,0.16362 0.1221,0.28718 0.2865,0.28718 0.1637,0 0.28648,-0.12347 0.28648,-0.28718 v -6.25126 c 0,-0.14323 -0.12283,-0.28651 -0.28648,-0.28651"
       style="fill:#333333;fill-opacity:1;fill-rule:nonzero;stroke:none;stroke-width:0.07056384"
       id="path198"
       inkscape:connector-curvature="0" />
    <path
       d="m 112.03747,176.2569 c -1.59898,0 -2.72587,-1.45503 -2.72587,-2.99261 0,-1.53688 1.12689,-2.99191 2.72587,-2.99191 1.61945,0 2.72659,1.45503 2.72659,2.99191 0,1.53758 -1.10714,2.99261 -2.72659,2.99261 z m 3.1563,-12.17366 c -0.16441,0 -0.28646,0.14401 -0.28646,0.28717 v 7.13119 c -0.57509,-1.0648 -1.63991,-1.80291 -2.86984,-1.80291 -1.9264,0 -3.29955,1.72175 -3.29955,3.5656 0,1.84384 1.37315,3.56559 3.29955,3.56559 1.22993,0 2.29475,-0.71695 2.86984,-1.78244 v 1.31177 c 0,0.16441 0.12209,0.2865 0.28646,0.2865 0.16372,0 0.28721,-0.12197 0.28721,-0.2865 v -11.9888 c 0,-0.14321 -0.12348,-0.28717 -0.28721,-0.28717"
       style="fill:#333333;fill-opacity:1;fill-rule:nonzero;stroke:none;stroke-width:0.07056384"
       id="path200"
       inkscape:connector-curvature="0" />
    <path
       d="m 118.38823,172.95663 c 0.14322,-1.41411 1.20944,-2.70402 2.7047,-2.70402 1.49594,0 2.58263,1.28991 2.70541,2.70402 z m 2.7047,-3.27911 c -1.9264,0 -3.29956,1.72177 -3.29956,3.567 0,1.84385 1.37316,3.56561 3.29956,3.56561 1.12761,0 2.27499,-0.49253 2.84866,-1.49595 0.0212,-0.041 0.0409,-0.0826 0.0409,-0.14324 0,-0.16441 -0.12346,-0.28719 -0.28647,-0.28719 -0.10236,0 -0.18488,0.0614 -0.24556,0.14402 -0.57369,0.81854 -1.33296,1.20805 -2.35756,1.20805 -1.49524,0 -2.56145,-1.29061 -2.70469,-2.70469 h 5.71779 c 0.16299,0 0.30695,-0.12335 0.30695,-0.2865 0,-1.84525 -1.39293,-3.56702 -3.32005,-3.56702"
       style="fill:#333333;fill-opacity:1;fill-rule:nonzero;stroke:none;stroke-width:0.07056384"
       id="path202"
       inkscape:connector-curvature="0" />
    <path
       d="m 64.328383,130.98296 c 0.880753,-0.89822 1.626266,-1.82068 2.233722,-2.76511 0.608018,-0.94499 1.040787,-1.86631 1.298308,-2.76567 0.258085,-0.90048 0.320068,-1.7491 0.186519,-2.54646 -0.132993,-0.79791 -0.507716,-1.49778 -1.123624,-2.10186 -0.636757,-0.62493 -1.336626,-0.93035 -2.099607,-0.91626 -0.764672,0.0144 -1.64768,0.32797 -2.651841,0.93936 -0.599003,0.36965 -1.253228,0.83905 -1.962113,1.4065 -0.710012,0.56688 -1.49948,1.2228 -2.367835,1.96662 l -1.742348,1.49836 c -0.604639,0.51785 -1.218293,1.01936 -1.840398,1.50511 -0.623234,0.48574 -1.246467,0.92978 -1.8697,1.331 -0.623232,0.40233 -1.23914,0.7393 -1.846032,1.01091 -0.606893,0.27217 -1.192371,0.45136 -1.75531,0.53702 -0.564064,0.0862 -1.101645,0.0615 -1.614433,-0.0745 -0.512223,-0.13465 -0.985564,-0.41472 -1.416643,-0.83792 -0.557867,-0.54886 -0.941612,-1.18788 -1.147854,-1.91873 -0.206241,-0.72974 -0.272171,-1.5192 -0.196098,-2.36784 0.07664,-0.8492 0.280059,-1.73559 0.6114,-2.66027 0.331339,-0.92471 0.758472,-1.84887 1.28253,-2.77188 0.52462,-0.92247 1.125877,-1.83194 1.804332,-2.72904 0.677894,-0.89654 1.402558,-1.73671 2.172865,-2.52224 1.006413,-1.02557 1.993106,-1.88209 2.961766,-2.57125 0.967533,-0.6886 1.877025,-1.18843 2.729041,-1.49779 0.852578,-0.3088 1.63979,-0.4215 2.361636,-0.33698 0.72241,0.0846 1.342825,0.37981 1.858992,0.88639 0.09918,0.0974 0.189902,0.20737 0.270482,0.32909 0.08226,0.12108 0.175812,0.2344 0.282314,0.33867 0.105933,0.1037 0.237798,0.15717 0.395016,0.15892 0.158343,0.001 0.299782,-0.0604 0.424316,-0.18765 0.0834,-0.0845 0.131859,-0.18989 0.144813,-0.31669 0.01182,-0.1257 -0.02029,-0.24906 -0.09862,-0.36684 -0.177504,-0.27217 -0.389943,-0.52912 -0.637883,-0.77198 -0.74946,-0.73538 -1.664587,-1.1411 -2.744256,-1.21491 -0.449111,-0.0242 -0.96697,0.0163 -1.555266,0.11995 -0.587168,0.10316 -1.244212,0.32964 -1.968875,0.6807 -0.726355,0.34994 -1.524273,0.8447 -2.393757,1.48315 -0.870046,0.63902 -1.808841,1.4713 -2.814692,2.49687 -0.805807,0.82102 -1.569916,1.70911 -2.293454,2.66536 -0.722409,0.95684 -1.364238,1.93789 -1.922105,2.94599 -0.558429,1.00699 -1.014866,2.02016 -1.36931,3.0401 -0.354442,1.01938 -0.565192,2.00832 -0.629431,2.96516 -0.0648,0.95738 0.03381,1.85842 0.293021,2.70366 0.260337,0.84582 0.723537,1.59416 1.387905,2.24669 0.651409,0.63902 1.376636,1.03854 2.177372,1.1997 0.79961,0.1606 1.687688,0.0941 2.662547,-0.19835 0.974858,-0.29302 2.043822,-0.80976 3.206889,-1.54907 1.163632,-0.74044 2.430385,-1.70122 3.799695,-2.88457 l 1.741221,-1.49836 c 0.341481,-0.29076 0.686908,-0.5866 1.037407,-0.8875 0.351625,-0.30091 0.704377,-0.59675 1.059383,-0.88753 0.354443,-0.29076 0.707195,-0.56574 1.058822,-0.82553 0.351624,-0.25808 0.694233,-0.48798 1.028953,-0.6869 0.313871,-0.19271 0.622106,-0.35105 0.925834,-0.47672 0.303164,-0.12507 0.597876,-0.20174 0.880753,-0.22879 0.284005,-0.027 0.558995,0.003 0.826094,0.0913 0.2671,0.0896 0.525184,0.25471 0.772562,0.49757 0.416991,0.41025 0.684092,0.91176 0.802427,1.50625 0.11777,0.59505 0.07494,1.26112 -0.129049,1.99874 -0.202861,0.73763 -0.574208,1.52935 -1.112352,2.37516 -0.539271,0.84638 -1.255483,1.72545 -2.152014,2.63776 -0.901604,0.91963 -1.753055,1.6674 -2.554355,2.24274 -0.800173,0.57477 -1.505677,1.025 -2.115951,1.34958 -0.609708,0.32402 -1.093192,0.54434 -1.449326,0.65986 -0.196099,0.0637 -0.333593,0.1088 -0.424317,0.13976 -1.01712,0.25866 -2.060727,0.19836 -2.386431,0.17132 -0.311617,-0.13865 -0.685782,-0.0749 -0.917382,0.19947 -9.893404,11.69943 -15.853563,25.99999 -17.236398,41.3571 -0.03944,0.43446 0.281188,0.8182 0.715085,0.85708 0.02367,10e-4 0.0479,0.003 0.07155,0.003 0.40403,0 0.747767,-0.3088 0.784958,-0.71846 1.353531,-15.03199 7.186904,-29.02993 16.868995,-40.48028 0.01803,-0.0208 0.02367,-0.0479 0.03888,-0.0704 0.100875,0.003 0.209622,0.007 0.329649,0.007 0.46996,0 1.077415,-0.0428 1.702339,-0.17018 0.05522,0.001 0.111574,-0.003 0.170178,-0.0203 0.02818,-0.007 0.17694,-0.053 0.43446,-0.13801 0.105379,-0.0325 0.211313,-0.0563 0.314433,-0.0958 0.01915,-0.008 0.03157,-0.022 0.04902,-0.0303 0.370784,-0.13689 0.833418,-0.34994 1.401992,-0.65029 0.648027,-0.34204 1.400303,-0.8182 2.256825,-1.42961 0.855397,-0.61083 1.763199,-1.40423 2.721716,-2.37967"
       style="fill:#333333;fill-opacity:1;fill-rule:nonzero;stroke:none;stroke-width:0.0563502"
       id="path204"
       inkscape:connector-curvature="0" />
    <path
       d="m 129.72448,93.219306 c 0.20456,-0.23498 0.40008,-0.42375 0.58771,-0.56631 0.18597,-0.14137 0.3539,-0.24175 0.5004,-0.30091 0.14712,-0.0587 0.25866,-0.0807 0.33754,-0.0664 0.097,0.018 0.11101,0.10315 0.0435,0.25752 -0.0682,0.15335 -0.19723,0.33133 -0.38544,0.53364 -0.18819,0.2023 -0.42543,0.39838 -0.71169,0.58774 -0.28626,0.18933 -0.6035,0.3285 -0.95231,0.41528 0.18258,-0.33922 0.37698,-0.62662 0.58041,-0.86047 z M 108.9938,108.50036 c 0.47221,0.56011 1.02388,1.06671 1.6567,1.51976 0.63281,0.45363 1.33436,0.843 2.10524,1.17039 0.772,0.32797 1.58626,0.57026 2.44447,0.72692 1.62795,0.29697 3.04572,0.28683 4.25162,-0.0317 1.20646,-0.31837 2.2512,-0.86328 3.13195,-1.63414 0.88132,-0.77032 1.62514,-1.72037 2.22865,-2.84908 0.60463,-1.12924 1.12306,-2.3543 1.55583,-3.67515 0.7951,0.11501 1.66627,0.24174 2.61352,0.37924 0.94612,0.13865 1.93675,0.28682 2.97078,0.44516 1.03459,0.1583 2.09848,0.32796 3.19392,0.50771 1.09489,0.18088 2.18414,0.36965 3.26608,0.56745 l -0.17357,0.95064 c -0.30993,1.69614 -0.47786,3.15392 -0.50435,4.37334 -0.0266,1.21885 0.008,2.22752 0.10427,3.02599 0.0952,0.79849 0.21133,1.3913 0.34769,1.77898 0.13465,0.38713 0.21019,0.59732 0.22371,0.63056 0.0794,0.17469 0.21131,0.28006 0.39671,0.31332 0.15558,0.0288 0.29751,-0.003 0.42543,-0.0958 0.1273,-0.0925 0.20456,-0.21189 0.23161,-0.35783 0.0214,-0.11725 0.007,-0.23103 -0.0435,-0.34092 -0.11389,-0.31275 -0.20736,-0.62943 -0.2795,-0.94951 -0.0722,-0.32118 -0.13913,-0.72578 -0.20173,-1.21603 -0.0609,-0.48969 -0.093,-1.07234 -0.0959,-1.74799 -0.001,-0.67508 0.0325,-1.44425 0.10482,-2.30752 0.0716,-0.86386 0.2068,-1.83083 0.40233,-2.90374 0.0299,-0.16567 0.0598,-0.32683 0.0884,-0.48292 0.0288,-0.15559 0.0613,-0.31105 0.0997,-0.46433 0.53589,0.097 0.99852,0.18766 1.38678,0.26767 0.38713,0.0811 0.72467,0.1527 1.01092,0.21525 0.2857,0.062 0.53308,0.11501 0.74214,0.1583 0.20793,0.0434 0.40967,0.0822 0.6052,0.11772 0.14598,0.027 0.28175,0.001 0.40685,-0.076 0.12459,-0.0778 0.20173,-0.19496 0.23046,-0.35106 0.0282,-0.15557 0.007,-0.29865 -0.066,-0.42769 -0.0722,-0.12907 -0.19047,-0.2085 -0.35613,-0.23893 -0.60129,-0.13018 -1.21326,-0.25697 -1.83537,-0.38093 -0.62209,-0.12395 -1.25322,-0.24908 -1.89506,-0.37642 0.3026,-1.32478 0.63056,-2.44335 0.98332,-3.35678 0.35331,-0.91231 0.70776,-1.665707 1.06389,-2.261337 0.35501,-0.59449 0.7055,-1.05374 1.05262,-1.37888 0.346,-0.32457 0.66833,-0.55956 0.96753,-0.7072 0.29923,-0.14711 0.56802,-0.22595 0.80694,-0.23723 0.23837,-0.0112 0.43165,-0.004 0.57759,0.0214 0.17525,0.0328 0.30936,0.0698 0.40292,0.11166 0.0925,0.0423 0.16904,0.0818 0.22765,0.11772 0.0591,0.0354 0.10769,0.0698 0.14759,0.1026 0.0395,0.0321 0.0981,0.0552 0.17636,0.0693 0.18427,0.0343 0.34713,-0.027 0.48632,-0.18256 0.0383,-0.0435 0.0664,-0.0868 0.084,-0.12795 0.018,-0.0428 0.031,-0.0879 0.0406,-0.13642 0.0317,-0.17581 -0.001,-0.32513 -0.0996,-0.44967 -0.0981,-0.12331 -0.22542,-0.2271 -0.38093,-0.31105 -0.1567,-0.084 -0.31782,-0.15095 -0.48461,-0.20117 -0.16738,-0.0513 -0.30938,-0.0873 -0.42602,-0.1088 -0.70211,-0.12843 -1.38058,-0.0303 -2.03368,0.29359 -0.65366,0.32344 -1.26844,0.8616 -1.84378,1.61275 -0.5759,0.75058 -1.10559,1.70683 -1.58851,2.867657 -0.48462,1.16025 -0.90836,2.51378 -1.27125,4.05947 -1.07349,-0.19666 -2.14976,-0.38263 -3.23001,-0.56012 -1.08079,-0.17807 -2.13567,-0.34544 -3.16462,-0.50321 -1.02896,-0.15782 -2.01509,-0.30486 -2.95669,-0.44178 -0.94274,-0.13689 -1.8111,-0.26317 -2.60621,-0.37812 0.21414,-0.72691 0.40854,-1.46173 0.58436,-2.20497 0.17581,-0.743837 0.34374,-1.494417 0.50265,-2.251207 0.13127,-0.61027 0.27273,-1.16137 0.42262,-1.65331 0.1499,-0.4908 0.31161,-0.9326 0.48404,-1.32423 0.38713,-0.08 0.78497,-0.20173 1.19237,-0.36401 0.40686,-0.161727 0.78271,-0.357827 1.12701,-0.586617 0.3443,-0.22991 0.63958,-0.49306 0.8847,-0.79116 0.24624,-0.29696 0.40066,-0.61703 0.46319,-0.95795 0.0569,-0.31219 -0.007,-0.58547 -0.19102,-0.82102 -0.18258,-0.23498 -0.43558,-0.3815 -0.75679,-0.44008 -0.24512,-0.0446 -0.51051,-0.0231 -0.79847,0.0653 -0.28853,0.089 -0.58773,0.25358 -0.89878,0.49306 -0.3105,0.24061 -0.62099,0.56238 -0.93205,0.96359 -0.30936,0.40122 -0.60914,0.89371 -0.89596,1.47581 -0.26823,0.0316 -0.54604,0.0343 -0.83229,0.007 -0.28738,-0.027 -0.6069,-0.0727 -0.95796,-0.13689 -0.87737,-0.16059 -1.72431,-0.38882 -2.54195,-0.68409 -0.81764,-0.29528 -1.63021,-0.60238 -2.43827,-0.92133 -0.80863,-0.31894 -1.61556,-0.62493 -2.42362,-0.91908 -0.80751,-0.29415 -1.63586,-0.51785 -2.48336,-0.67338 -0.75115,-0.13754 -1.51639,-0.18089 -2.2957,-0.13242 -0.7799,0.0495 -1.50794,0.21583 -2.18471,0.5004 -0.67676,0.284 -1.25942,0.70098 -1.74798,1.25209 -0.48855,0.55054 -0.81031,1.25435 -0.96696,2.11201 -0.0806,0.438967 -0.0884,0.855947 -0.0254,1.250417 0.0642,0.39444 0.1713,0.75903 0.32232,1.09318 0.14989,0.3353 0.32684,0.63225 0.53139,0.89147 0.20455,0.25921 0.40628,0.47728 0.60632,0.65365 0.0434,0.0394 0.0941,0.076 0.15328,0.11165 0.0585,0.0365 0.12172,0.0602 0.19103,0.0733 0.14594,0.0259 0.27724,-0.003 0.39333,-0.0873 0.11607,-0.0845 0.18876,-0.20455 0.21751,-0.36065 0.0355,-0.19439 -0.0231,-0.37134 -0.17526,-0.5308 -0.0434,-0.0377 -0.13919,-0.13306 -0.28738,-0.28626 -0.1482,-0.15335 -0.29584,-0.35332 -0.44235,-0.60183 -0.14539,-0.24851 -0.26372,-0.54208 -0.35275,-0.88074 -0.089,-0.33868 -0.0958,-0.71284 -0.0215,-1.12193 0.11777,-0.644097 0.35388,-1.177177 0.70776,-1.601487 0.355,-0.42376 0.79454,-0.74833 1.31972,-0.97543 0.52462,-0.22651 1.1163,-0.35725 1.77165,-0.39388 0.65705,-0.0361 1.34621,0.0112 2.06749,0.14377 0.87681,0.16058 1.72488,0.38599 2.54308,0.67677 0.8182,0.29019 1.62965,0.59165 2.43377,0.90554 0.80411,0.31274 1.60823,0.61308 2.41236,0.90103 0.80298,0.287947 1.63358,0.511097 2.49236,0.667747 0.27217,0.0495 0.5511,0.0833 0.83511,0.0998 0.284,0.0163 0.54265,0.0208 0.77594,0.0127 -0.14764,0.36627 -0.29077,0.7765 -0.42825,1.22956 -0.13862,0.45305 -0.26316,0.92639 -0.37304,1.42003 -0.18202,0.77312 -0.36402,1.53722 -0.5483,2.294577 -0.1837,0.75733 -0.38374,1.50511 -0.59788,2.24047 -1.00415,-0.13242 -1.80038,-0.23778 -2.39037,-0.31555 -0.59111,-0.0771 -0.89596,-0.11884 -0.91569,-0.12236 -0.15948,-0.008 -0.29527,0.0321 -0.40741,0.12236 -0.11213,0.0908 -0.18201,0.21356 -0.21075,0.36965 -0.0304,0.16568 0.007,0.30599 0.11213,0.42037 0.10482,0.11501 0.23048,0.18597 0.37699,0.21301 0.0197,0.003 0.30485,0.0406 0.85595,0.11101 0.55167,0.0709 1.29945,0.16735 2.24443,0.28907 -0.38881,1.18899 -0.84806,2.28107 -1.37776,3.27678 -0.52969,0.99627 -1.17602,1.83306 -1.93956,2.50927 -0.76299,0.67676 -1.67362,1.15237 -2.73186,1.42791 -1.05714,0.27499 -2.30303,0.28175 -3.73602,0.0196 -0.76975,-0.14136 -1.49948,-0.35444 -2.18752,-0.64127 -0.68747,-0.28737 -1.31296,-0.62829 -1.8759,-1.02331 -0.56237,-0.39502 -1.04924,-0.83117 -1.46003,-1.30958 -0.41193,-0.47785 -0.72523,-0.9833 -0.93935,-1.51694 -0.035,-0.0868 -0.0919,-0.16004 -0.17188,-0.22034 -0.0789,-0.0598 -0.16341,-0.0974 -0.25131,-0.11389 -0.16568,-0.0299 -0.30993,0.001 -0.43278,0.0952 -0.12284,0.093 -0.19722,0.213 -0.22371,0.35896 -0.0197,0.10769 -0.009,0.21017 0.0339,0.30879 0.25132,0.61027 0.61253,1.19463 1.08474,1.75419"
       style="fill:#333333;fill-opacity:1;fill-rule:nonzero;stroke:none;stroke-width:0.0563502"
       id="path206"
       inkscape:connector-curvature="0" />
    <path
       d="m 112.4056,141.6471 c -2.40516,0 -4.35462,1.94944 -4.35462,4.35529 v 12.05278 h 8.7099 v -12.05278 c 0,-2.40585 -1.94945,-4.35529 -4.35528,-4.35529"
       style="fill:#666666;fill-opacity:1;fill-rule:nonzero;stroke:none;stroke-width:0.0673151"
       id="path208"
       inkscape:connector-curvature="0" />
    <path
       d="m 99.245218,139.41069 h -3.252533 l 16.526385,-11.52474 6.75301,4.78751 c 0.20906,0.14759 0.48292,0.16793 0.70775,0.049 0.22654,-0.11724 0.36854,-0.3505 0.36854,-0.60519 v -1.90408 h 4.82921 v 6.29487 c 0,0.2209 0.10758,0.42771 0.28795,0.55562 l 3.30775,2.34698 h -2.63606 c -0.37642,0 -0.68183,0.30543 -0.68183,0.68185 v 16.878 c 0,0.37643 0.30541,0.68184 0.68183,0.68184 h 38.88955 c 0.37585,0 0.68127,-0.30541 0.68127,-0.68184 0,-0.37641 -0.30542,-0.68183 -0.68127,-0.68183 h -38.20771 v -15.5149 h 4.09441 c 0.29639,0 0.55898,-0.1916 0.64971,-0.47448 0.0897,-0.2823 -0.0127,-0.5911 -0.25583,-0.76241 l -4.7661,-3.38101 v -6.62453 c 0,-0.37643 -0.30541,-0.68183 -0.68183,-0.68183 h -6.19289 c -0.37642,0 -0.68184,0.3054 -0.68184,0.68183 v 1.26674 l -6.06779,-4.30232 c -0.23441,-0.16512 -0.54772,-0.16681 -0.78382,-0.003 l -18.699255,13.04 c -0.244,0.17076 -0.349935,0.47956 -0.260904,0.76355 0.0896,0.28401 0.353316,0.47728 0.650283,0.47728 h 4.740178 v 15.51491 h -37.45654 c -0.376419,0 -0.681838,0.30543 -0.681838,0.68183 0,0.37643 0.305419,0.68185 0.681838,0.68185 h 38.138376 c 0.375859,0 0.681274,-0.30542 0.681274,-0.68185 v -16.87788 c 0,-0.3764 -0.305415,-0.68183 -0.681274,-0.68183"
       style="fill:#333333;fill-opacity:1;fill-rule:nonzero;stroke:none;stroke-width:0.0563502"
       id="path210"
       inkscape:connector-curvature="0" />
    <path
       d="m 146.30328,117.02671 c -0.0936,0.17467 -0.20231,0.34655 -0.32685,0.51672 -0.12283,-0.21244 -0.20905,-0.43503 -0.25808,-0.66888 -0.0484,-0.23442 -0.0716,-0.46545 -0.0675,-0.69367 0.003,-0.22878 0.0332,-0.44573 0.0879,-0.65253 0.0547,-0.20681 0.12619,-0.39333 0.2147,-0.56013 0.14089,-0.26202 0.27555,-0.40966 0.40459,-0.44065 0.12906,-0.0321 0.22034,-0.0343 0.27275,-0.007 0.13081,0.0704 0.2113,0.19441 0.23948,0.37304 0.0277,0.17806 0.0203,0.38713 -0.0237,0.62717 -0.0446,0.24005 -0.11501,0.49193 -0.21017,0.75565 -0.097,0.26316 -0.20681,0.51337 -0.33304,0.74946 z m 17.43588,14.55525 c 0.12795,-0.15494 0.25977,-0.29076 0.39557,-0.40686 0.21809,-0.18652 0.45589,-0.35387 0.71396,-0.50207 0.25696,-0.14871 0.5156,-0.25526 0.7737,-0.31951 0.25808,-0.0642 0.50488,-0.0738 0.73987,-0.0266 0.23554,0.0462 0.44065,0.17131 0.61421,0.37474 0.12844,0.15046 0.18258,0.3319 0.16286,0.54547 -0.0203,0.21244 -0.14376,0.41472 -0.36965,0.60858 -0.20342,0.17412 -0.43727,0.30823 -0.70044,0.40403 -0.26485,0.0952 -0.5449,0.15206 -0.84187,0.17129 -0.2964,0.0191 -0.60239,-0.003 -0.91682,-0.0664 -0.31501,-0.0631 -0.62211,-0.16961 -0.91906,-0.31894 0.10426,-0.15382 0.21975,-0.3088 0.34767,-0.46375 z m 6.05258,4.96726 c 0.004,-0.0208 -0.26036,-0.34993 -0.28289,-0.37641 -0.007,-0.008 -0.0144,-0.0127 -0.0208,-0.0203 -0.0127,-0.0163 -0.0248,-0.0328 -0.0377,-0.049 -0.0292,-0.0366 -0.0693,-0.0569 -0.10371,-0.0868 -0.0339,-0.0316 -0.062,-0.0698 -0.10028,-0.0969 -0.24343,-0.17019 -0.52744,-0.17527 -0.81481,-0.12395 -0.29247,0.0518 -0.58774,0.1617 -0.84751,0.21525 -0.5218,0.10592 -1.0312,0.15781 -1.52991,0.15445 -0.49984,-0.004 -0.96584,-0.0811 -1.4003,-0.23103 -0.43503,-0.14983 -0.80976,-0.40967 -1.12531,-0.77876 -0.30937,-0.3612 -0.50435,-0.72297 -0.58493,-1.08417 -0.0811,-0.36065 -0.0794,-0.71452 0.003,-1.05938 0.3939,0.17129 0.79792,0.30146 1.21323,0.38994 0.41473,0.089 0.8182,0.1257 1.20927,0.11102 0.39108,-0.0159 0.76749,-0.0862 1.12925,-0.21301 0.36121,-0.12619 0.6965,-0.3212 1.00529,-0.58548 0.24005,-0.20568 0.42037,-0.43164 0.53703,-0.67507 0.11772,-0.24401 0.18427,-0.4897 0.20059,-0.73819 0.0144,-0.24793 -0.0127,-0.48743 -0.0862,-0.71846 -0.0733,-0.23048 -0.18483,-0.43278 -0.33189,-0.60522 -0.25133,-0.29414 -0.54998,-0.50545 -0.89429,-0.63393 -0.34486,-0.12954 -0.71451,-0.1792 -1.10672,-0.14982 -0.39219,0.0292 -0.79058,0.13529 -1.1946,0.31782 -0.40404,0.18255 -0.7985,0.43782 -1.1828,0.76579 -0.0716,0.062 -0.13354,0.1353 -0.20174,0.20061 -0.23893,0.0794 -0.47784,0.1583 -0.73255,0.2237 -0.33247,0.0873 -0.65591,0.14376 -0.97035,0.16849 -0.31443,0.0248 -0.61027,0.0112 -0.88695,-0.0417 -0.27613,-0.053 -0.51448,-0.16059 -0.71397,-0.324 -0.18483,-0.14983 -0.29921,-0.30712 -0.34486,-0.4711 -0.0446,-0.16509 -0.0423,-0.32852 0.008,-0.49249 0.0508,-0.16342 0.13353,-0.33246 0.2502,-0.50659 0.1155,-0.17412 0.23949,-0.34148 0.37191,-0.50264 0.31894,-0.3922 0.61309,-0.71396 0.88358,-0.96698 0.26934,-0.25244 0.51109,-0.50997 0.7241,-0.77087 0.13801,-0.1696 0.26258,-0.36177 0.37472,-0.57758 0.11165,-0.21583 0.1809,-0.43728 0.20625,-0.66493 0.0259,-0.22879 -0.007,-0.45925 -0.0963,-0.69312 -0.0912,-0.23385 -0.26767,-0.45699 -0.52913,-0.67 -0.22202,-0.18201 -0.53984,-0.31329 -0.95289,-0.39444 -0.41417,-0.0807 -0.97091,-0.0299 -1.66966,0.15494 -0.24116,0.0598 -0.52912,0.15446 -0.86441,0.28287 -0.33527,0.13018 -0.69084,0.27161 -1.06557,0.42601 -0.37585,0.15494 -0.75115,0.31217 -1.12477,0.47391 -0.37471,0.16171 -0.71393,0.31049 -1.01655,0.44741 0.18315,-0.20906 0.37982,-0.4322 0.59225,-0.6683 0.21188,-0.23612 0.41699,-0.46489 0.61702,-0.68579 0.19949,-0.22147 0.38544,-0.4277 0.56014,-0.61761 0.17469,-0.18988 0.31105,-0.34711 0.41134,-0.46994 0.17639,-0.2147 0.31726,-0.43503 0.42433,-0.66157 0.10703,-0.22482 0.17243,-0.44629 0.19665,-0.66436 0.0237,-0.21694 -0.001,-0.42545 -0.0749,-0.62662 -0.0727,-0.20004 -0.20962,-0.38148 -0.4091,-0.54378 -0.20004,-0.16342 -0.46601,-0.284 -0.79735,-0.36289 -0.33247,-0.0782 -0.7196,-0.0745 -1.16194,0.0127 -0.26203,0.0552 -0.61198,0.16004 -1.05095,0.31274 -0.43841,0.15447 -0.89596,0.32459 -1.37382,0.51111 -0.47728,0.18595 -0.9461,0.37585 -1.40538,0.57082 -0.45925,0.19498 -0.84018,0.36064 -1.14333,0.49702 0.50771,-0.54435 1.01091,-1.087 1.50906,-1.6274 0.49756,-0.54096 1.02445,-1.15293 1.58174,-1.83646 0.1257,-0.15383 0.23893,-0.32344 0.33979,-0.50996 0.10095,-0.1871 0.16794,-0.37135 0.20231,-0.55392 0.0343,-0.18371 0.0242,-0.36348 -0.0292,-0.54153 -0.053,-0.17806 -0.16793,-0.33924 -0.34486,-0.48292 -0.29979,-0.24401 -0.76525,-0.30035 -1.39637,-0.16906 -1.0143,0.21189 -1.99423,0.69931 -2.8502,1.2724 -0.43219,0.28907 -0.84524,0.62098 -1.32985,0.82214 -0.559,0.23216 -0.99402,0.1606 -1.45554,-0.20116 0.23274,-0.26825 0.42377,-0.54267 0.57422,-0.82216 0.28513,-0.53306 0.48179,-1.01768 0.59168,-1.45383 0.1088,-0.43559 0.14871,-0.81933 0.11772,-1.1501 -0.031,-0.33136 -0.12123,-0.60972 -0.26992,-0.83568 -0.14871,-0.22598 -0.34148,-0.40235 -0.57759,-0.52857 -0.39333,-0.20962 -0.79455,-0.22146 -1.20252,-0.035 -0.40853,0.1854 -0.74608,0.52744 -1.01205,1.02558 -0.3319,0.62098 -0.46488,1.26844 -0.39895,1.94464 0.0653,0.67565 0.28401,1.28648 0.65422,1.83307 -0.36627,0.26541 -0.77537,0.42657 -1.22675,0.48237 -0.45136,0.0569 -0.92638,-0.049 -1.42395,-0.315 -0.28064,-0.14983 -0.5066,-0.3353 -0.68016,-0.5573 -0.17356,-0.22147 -0.29583,-0.46659 -0.36571,-0.73425 -0.0704,-0.26823 -0.0829,-0.54998 -0.0366,-0.84638 0.0457,-0.29584 0.14488,-0.58774 0.29979,-0.87624 0.17298,-0.32347 0.37304,-0.5928 0.60069,-0.80808 0.22764,-0.21581 0.4598,-0.38316 0.69873,-0.50321 0.23779,-0.11948 0.46996,-0.20116 0.69423,-0.24398 0.22597,-0.0423 0.42658,-0.0609 0.60463,-0.0569 0.17696,0.007 0.33136,-0.004 0.46266,-0.0299 0.13066,-0.0253 0.23666,-0.11165 0.31668,-0.26091 0.0698,-0.1313 0.089,-0.25583 0.0558,-0.37416 -0.0317,-0.11836 -0.12221,-0.2175 -0.27106,-0.29695 -0.13066,-0.0693 -0.36346,-0.10703 -0.69817,-0.11213 -0.33472,-0.004 -0.70721,0.0615 -1.11574,0.19609 -0.40967,0.13465 -0.82608,0.35614 -1.24872,0.66437 -0.42319,0.30768 -0.78383,0.74044 -1.08306,1.3 -0.23328,0.43672 -0.3781,0.87456 -0.43162,1.31183 -0.0541,0.43728 -0.0231,0.85259 0.0925,1.24647 0.11548,0.39275 0.30485,0.75284 0.56857,1.07911 0.26483,0.32683 0.60124,0.59956 1.01204,0.81934 0.34937,0.18652 0.69873,0.31104 1.04755,0.37471 0.34824,0.062 0.68747,0.0756 1.01655,0.0372 0.32852,-0.0372 0.64465,-0.11885 0.94725,-0.24344 0.30259,-0.12507 0.58999,-0.28287 0.86102,-0.47503 0.0936,0.0778 0.20739,0.15383 0.33022,0.22934 0.33869,0.25133 0.77484,0.44688 1.29268,0.44688 0.94556,0 1.7401,-0.63564 2.51209,-1.09884 0.36629,-0.21976 0.74269,-0.42319 1.12701,-0.60858 0.29415,-0.14248 0.62098,-0.28006 0.93428,-0.40461 0.15606,-0.0627 0.69819,-0.34259 0.84131,-0.16454 0.076,0.0941 -0.076,0.27049 -0.12171,0.34712 -0.1088,0.18032 -0.24513,0.36348 -0.40911,0.54942 -0.30936,0.34768 -0.64239,0.72184 -1.00022,1.12081 -0.35726,0.39952 -0.69198,0.77537 -1.00472,1.12757 -0.31274,0.35274 -0.57815,0.65083 -0.79679,0.8954 -0.21807,0.24343 -0.33642,0.37754 -0.355,0.40064 -0.18144,0.22258 -0.27387,0.44517 -0.27499,0.66719 -0.003,0.22147 0.10769,0.42375 0.33078,0.60521 0.15334,0.12571 0.36007,0.19383 0.61817,0.2068 0.25807,0.0127 0.59955,-0.0778 1.02387,-0.26823 0.34994,-0.16229 0.75227,-0.33867 1.20871,-0.53025 0.45588,-0.19103 0.9078,-0.37248 1.35466,-0.54547 0.44741,-0.17188 0.86159,-0.32288 1.24309,-0.45419 0.38093,-0.13018 0.68127,-0.22089 0.90217,-0.27103 0.28231,-0.0642 0.49983,-0.0844 0.65366,-0.0615 0.15383,0.0231 0.27331,0.0686 0.35726,0.13752 0.0925,0.0749 0.13753,0.18483 0.13418,0.32964 -10e-4,0.14536 -0.0851,0.3167 -0.24794,0.51674 -0.0756,0.0925 -0.18878,0.22371 -0.3398,0.39445 -0.15271,0.17018 -0.32514,0.36572 -0.51672,0.58548 -0.19272,0.2209 -0.39616,0.44799 -0.61253,0.6807 -0.21471,0.23387 -0.42039,0.46266 -0.61647,0.68636 -0.19499,0.22484 -0.3753,0.42937 -0.53927,0.61534 -0.16457,0.18595 -0.29303,0.33641 -0.38713,0.45137 -0.18202,0.22314 -0.2767,0.44572 -0.28626,0.6683 -0.008,0.22259 0.0862,0.41531 0.28626,0.57872 0.0925,0.0749 0.19271,0.1246 0.30091,0.14935 0.10769,0.0236 0.24005,0.0225 0.39557,-0.003 0.15606,-0.0266 0.34317,-0.0845 0.5635,-0.17354 0.21978,-0.089 0.49532,-0.204 0.82667,-0.34317 0.59336,-0.2581 1.17829,-0.50942 1.75644,-0.75454 0.57702,-0.24568 1.11066,-0.45024 1.60091,-0.61253 0.4908,-0.16286 0.92075,-0.26316 1.29041,-0.30147 0.3691,-0.0366 0.64577,0.0191 0.83059,0.16962 0.0231,0.0185 0.0565,0.049 0.0992,0.0897 0.0428,0.0417 0.0722,0.10426 0.0873,0.18708 0.0159,0.0829 0,0.18877 -0.0468,0.31613 -0.0468,0.12795 -0.14871,0.2885 -0.3054,0.48009 -0.14376,0.17695 -0.36459,0.40911 -0.66212,0.6965 -0.29922,0.28794 -0.60126,0.61984 -0.90836,0.99627 -0.2316,0.28401 -0.43109,0.57532 -0.59789,0.87455 -0.16678,0.29921 -0.26766,0.59956 -0.30373,0.90217 -0.0361,0.30372 0.003,0.60069 0.11773,0.89202 0.11388,0.29078 0.34036,0.57365 0.67789,0.84976 0.31444,0.25696 0.67566,0.42658 1.08193,0.50773 0.40628,0.0816 0.82779,0.10659 1.26506,0.0716 0.20174,-0.0159 0.40235,-0.0417 0.60296,-0.0738 -0.15671,0.31274 -0.27444,0.63675 -0.34656,0.97374 -0.10537,0.49418 -0.0992,1.00414 0.018,1.53045 0.11661,0.52463 0.38769,1.03685 0.81313,1.53386 0.67846,0.76242 1.56991,1.20307 2.6755,1.32085 0.70439,0.0756 1.5192,0.0203 2.42137,-0.13977 l -0.0112,0.0127 c 0,0 0.32739,-0.0948 0.59338,0.17581 8.87458,11.22382 14.44649,25.17783 15.69069,39.32455 0.0361,0.41023 0.37981,0.71958 0.78441,0.71958 0.0231,0 0.0468,-10e-4 0.0704,-0.003 0.43388,-0.0377 0.75452,-0.42092 0.71677,-0.85482 -1.26169,-14.34338 -6.88149,-28.48954 -15.82821,-39.90835"
       style="fill:#333333;fill-opacity:1;fill-rule:nonzero;stroke:none;stroke-width:0.0563502"
       id="path212"
       inkscape:connector-curvature="0" />
    <path
       d="m 94.750163,103.44574 c -0.02198,0.79285 -0.07945,1.58344 -0.172432,2.37403 -0.09298,0.79059 -0.222018,1.53554 -0.388817,2.2343 -0.153264,-0.37361 -0.296963,-0.79793 -0.430512,-1.27128 -0.132419,-0.47389 -0.26879,-1.06557 -0.407412,-1.77559 -0.248504,-1.27463 -0.418683,-2.36501 -0.509408,-3.27113 -0.09129,-0.90555 -0.127914,-1.6736 -0.10932,-2.303027 l 1.721496,-0.33642 c 0.119465,0.61254 0.204551,1.292117 0.254139,2.039887 0.05071,0.74776 0.06425,1.51751 0.04227,2.30923 z m -1.660077,-6.211477 c 0.129048,-0.22146 0.236109,-0.34092 0.324577,-0.35838 0.116078,-0.0231 0.242871,0.0733 0.381491,0.28907 0.138058,0.21525 0.271043,0.52293 0.400089,0.92132 l -1.400867,0.27386 c 0.06761,-0.528 0.166231,-0.90385 0.29471,-1.12587 z m -4.49787,15.497437 c -0.740442,-0.76412 -0.673951,-2.4011 -0.673951,-2.4011 l 0.0044,-0.001 c 0.0056,-0.10925 0.01406,-0.21864 0.03266,-0.32288 0.04677,-0.26148 0.138616,-0.49025 0.277242,-0.68692 0.137498,-0.19553 0.335849,-0.33134 0.59224,-0.40798 0.189903,-0.0558 0.377549,-0.0316 0.564628,0.0733 0.185957,0.10536 0.321196,0.29979 0.405722,0.58548 0.07551,0.25639 0.103686,0.52519 0.0834,0.80525 -0.02083,0.27948 -0.08283,0.55898 -0.185956,0.83735 -0.103687,0.27893 -0.248504,0.54942 -0.433896,0.81088 -0.186519,0.26203 -0.408541,0.49871 -0.666624,0.70889 z m -6.4459,2.47771 c -0.471089,-0.38882 -0.729175,-0.95515 -0.836239,-1.5468 -0.103686,-0.57591 -0.161158,-1.28592 0.135806,-1.81336 0.11777,-0.2085 0.300909,-0.36346 0.548289,-0.46546 0.183699,-0.0749 0.373035,-0.0693 0.568572,0.0159 0.1961,0.0868 0.351064,0.26711 0.462638,0.54266 0.101993,0.24681 0.155531,0.51222 0.163979,0.79228 0.0073,0.28063 -0.02591,0.56464 -0.100875,0.85258 -0.07494,0.28738 -0.192156,0.57082 -0.351065,0.84975 -0.158901,0.27894 -0.355566,0.53702 -0.591111,0.77257 z M 103.39992,96.818973 c -0.0304,-0.15606 -0.10825,-0.26994 -0.23329,-0.3415 -0.12566,-0.0704 -0.26541,-0.0919 -0.42094,-0.0609 l -7.45569,1.4561 c -0.107073,-0.34262 -0.225965,-0.65311 -0.355573,-0.93035 -0.130167,-0.27781 -0.279495,-0.5111 -0.447983,-0.70043 -0.168485,-0.18878 -0.353877,-0.32683 -0.557867,-0.41305 -0.203986,-0.0868 -0.42657,-0.10592 -0.670004,-0.0587 -0.252446,0.0501 -0.47165,0.15558 -0.657044,0.31781 -0.185389,0.16284 -0.342606,0.36739 -0.471084,0.61478 -0.127914,0.24682 -0.229908,0.52912 -0.303729,0.84637 -0.07439,0.31782 -0.126221,0.66157 -0.154957,1.03066 l -5.486253,1.07178 c -0.154957,0.0299 -0.276682,0.10194 -0.366278,0.21469 -0.08903,0.11389 -0.118331,0.247937 -0.0879,0.404027 0.03097,0.15559 0.108191,0.26935 0.232727,0.34036 0.126221,0.071 0.265409,0.0919 0.421498,0.0615 l 5.237753,-1.023317 c -0.0021,0.506007 0.01745,1.019357 0.05916,1.541737 0.04112,0.5218 0.0941,1.0267 0.158902,1.51299 0.0648,0.488 0.134671,0.94838 0.209057,1.38284 0.07494,0.43559 0.144255,0.81314 0.206807,1.13432 0.250757,1.28311 0.578716,2.44673 0.983876,3.48865 0.223146,0.57365 0.467141,1.09264 0.728041,1.5671 -0.0169,0.0807 -0.03043,0.16061 -0.04789,0.24117 -0.115518,0.51955 -0.275552,1.00641 -0.482356,1.46004 -0.206242,0.45475 -0.467146,0.8492 -0.781014,1.18504 -0.31331,0.33585 -0.703251,0.57309 -1.168706,0.71058 -0.45587,0.13528 -0.8661,0.16623 -1.228431,0.093 -0.362897,-0.0733 -0.685221,-0.21806 -0.965846,-0.43446 0.316691,-0.29076 0.599568,-0.60745 0.849763,-0.95005 0.250196,-0.34262 0.447422,-0.69537 0.59393,-1.05939 0.145389,-0.36345 0.233289,-0.73649 0.265976,-1.11742 0.03157,-0.38149 -0.01074,-0.76693 -0.126221,-1.15631 -0.09015,-0.30429 -0.222584,-0.55956 -0.397269,-0.76636 -0.175251,-0.20626 -0.37304,-0.36741 -0.593367,-0.48349 -0.22033,-0.11548 -0.449676,-0.18652 -0.690856,-0.21413 -0.240614,-0.0266 -0.470522,-0.008 -0.688597,0.0569 -0.370221,0.11034 -0.685217,0.29584 -0.943302,0.55899 -0.258648,0.26259 -0.45362,0.57872 -0.587169,0.94895 -0.132419,0.37021 -0.198355,0.77762 -0.196099,1.22053 0.0021,0.4446 0.07551,0.90837 0.218075,1.39354 0.05748,0.19328 0.135246,0.38149 0.215819,0.56857 -0.06366,0.50603 -0.169051,0.98782 -0.322887,1.44144 -0.160031,0.47278 -0.379798,0.89146 -0.658169,1.25661 -0.278933,0.36628 -0.642954,0.64183 -1.092066,0.82553 -0.44066,0.17977 -0.845254,0.25132 -1.213221,0.2147 -0.368531,-0.0365 -0.703251,-0.14871 -1.004723,-0.33584 0.286823,-0.32063 0.536452,-0.66382 0.751147,-1.03009 0.21357,-0.3657 0.375293,-0.73762 0.483485,-1.11404 0.108191,-0.37586 0.159477,-0.7551 0.153279,-1.13771 -0.0068,-0.38263 -0.08678,-0.76187 -0.241179,-1.13885 -0.119464,-0.29301 -0.277243,-0.53419 -0.472213,-0.7224 -0.194971,-0.18764 -0.407413,-0.32795 -0.638449,-0.42149 -0.230473,-0.093 -0.46658,-0.14088 -0.709447,-0.14312 -0.241743,-10e-4 -0.46827,0.0389 -0.679022,0.12507 -0.357825,0.14648 -0.651973,0.36346 -0.882443,0.65027 -0.230471,0.28739 -0.39389,0.62156 -0.488556,1.00304 -0.0958,0.38149 -0.120583,0.79341 -0.07382,1.23463 0.03719,0.35049 0.132994,0.7117 0.261467,1.0791 -0.07439,0.0925 -0.164542,0.17864 -0.286824,0.25019 -0.289639,0.17131 -0.589986,0.25357 -0.899349,0.24513 -0.308796,-0.008 -0.614779,-0.0664 -0.915125,-0.17638 -0.300348,-0.10991 -0.587734,-0.25469 -0.85934,-0.43332 -0.272173,-0.1792 -0.513352,-0.35895 -0.724101,-0.54041 -0.209623,-0.18088 -0.383746,-0.33978 -0.522367,-0.47672 -0.138057,-0.1369 -0.221456,-0.22032 -0.250194,-0.25019 -0.09579,-0.10426 -0.208497,-0.16735 -0.336974,-0.18991 -0.127915,-0.022 -0.251322,10e-4 -0.370785,0.0727 -0.136363,0.08 -0.222583,0.19778 -0.259211,0.35049 -0.03607,0.15447 -0.01634,0.29472 0.05916,0.42264 0.06986,0.11948 0.241179,0.34092 0.512223,0.66492 0.270481,0.32346 0.56463,0.75341 0.882445,1.29156 0.266536,0.45248 0.49081,0.89822 0.675076,1.33606 0.183137,0.43897 0.301473,0.84919 0.354442,1.23182 0.05241,0.38318 0.02537,0.72691 -0.08228,1.03119 -0.108191,0.30543 -0.31556,0.54886 -0.622668,0.7303 -0.231601,0.13577 -0.468834,0.20964 -0.714521,0.22259 -0.24625,0.0112 -0.494193,-0.049 -0.745513,-0.18201 -0.251322,-0.13354 -0.500954,-0.34656 -0.746641,-0.63788 -0.246814,-0.29189 -0.490809,-0.67227 -0.732552,-1.13996 l -1.103901,-2.19654 c -0.08001,-0.13641 -0.194408,-0.23273 -0.342609,-0.28906 -0.148201,-0.0565 -0.295274,-0.0417 -0.440659,0.0428 -0.127914,0.076 -0.215821,0.18596 -0.263155,0.32851 -0.04902,0.14312 -0.03888,0.28175 0.02818,0.41419 l 1.131511,2.3019 c 0.217513,0.44686 0.349934,0.86835 0.400087,1.26506 0.04902,0.39672 0.04001,0.75228 -0.02649,1.06841 -0.06761,0.31443 -0.178628,0.58547 -0.333592,0.80805 -0.15609,0.22485 -0.324012,0.38994 -0.503208,0.49475 -0.366839,0.2164 -0.729171,0.25528 -1.088685,0.11501 -0.357823,-0.13912 -0.685218,-0.46094 -0.982747,-0.96472 -0.28626,-0.48629 -0.49532,-0.93371 -0.624361,-1.33999 -0.130726,-0.40686 -0.216947,-0.76356 -0.260901,-1.0718 -0.04339,-0.30766 -0.05861,-0.56293 -0.04621,-0.76634 0.01294,-0.20287 0.02084,-0.34037 0.02479,-0.41137 0.0029,-0.15158 -0.0231,-0.27386 -0.07775,-0.36797 -0.07608,-0.12795 -0.187646,-0.21469 -0.334721,-0.26033 -0.147641,-0.0451 -0.289639,-0.0277 -0.426571,0.053 -0.06819,0.0406 -0.126221,0.0919 -0.175811,0.15559 -0.04902,0.0637 -0.07945,0.13353 -0.09184,0.20963 -0.06311,0.43952 -0.0772,0.84974 -0.04227,1.23237 0.03493,0.38205 0.132418,0.83906 0.291331,1.3727 0.159477,0.53305 0.426571,1.11967 0.804117,1.76036 0.22709,0.38432 0.481794,0.69987 0.764671,0.94726 0.284006,0.24681 0.582099,0.42488 0.893716,0.53476 0.311052,0.10925 0.632811,0.14711 0.963587,0.11325 0.330776,-0.0332 0.658734,-0.146 0.983311,-0.33753 0.40065,-0.23668 0.725227,-0.60858 0.972041,-1.11631 0.247378,-0.50771 0.37473,-1.0977 0.382618,-1.76883 0.201733,0.16793 0.415865,0.31556 0.640138,0.44235 0.223147,0.12683 0.462636,0.21583 0.717338,0.26711 0.254704,0.0512 0.52124,0.0552 0.800173,0.0112 0.279497,-0.0435 0.568011,-0.15334 0.86723,-0.32964 0.477849,-0.28175 0.813133,-0.63112 1.004161,-1.04868 0.19159,-0.41699 0.281187,-0.86441 0.27048,-1.34113 -0.01007,-0.47672 -0.100299,-0.96642 -0.271045,-1.47074 -0.170176,-0.50321 -0.373037,-0.98445 -0.608582,-1.4437 0.228219,0.0952 0.464326,0.17412 0.708885,0.23668 0.244561,0.0637 0.493062,0.10138 0.747766,0.11213 0.253576,0.0112 0.508844,-0.008 0.764671,-0.062 0.256395,-0.0535 0.508842,-0.15271 0.756222,-0.29924 0.08001,-0.0468 0.145389,-0.10592 0.216385,-0.16003 0.114385,0.1837 0.233852,0.36572 0.373036,0.53983 0.329648,0.41136 0.711703,0.74496 1.147854,0.99965 0.43615,0.25528 0.923016,0.40968 1.458344,0.46378 0.536453,0.0541 1.107283,-0.0439 1.712483,-0.29078 0.937103,-0.40573 1.63528,-1.11347 2.093409,-2.12551 0.1482,-0.32741 0.268228,-0.69987 0.37473,-1.09378 0.19328,0.21752 0.401212,0.41756 0.634502,0.58774 0.409101,0.29697 0.877373,0.49984 1.404811,0.60633 0.528565,0.10769 1.10559,0.0682 1.732767,-0.11725 0.973169,-0.30879 1.738968,-0.94442 2.295708,-1.90519 0.255265,-0.43896 0.471088,-0.95796 0.657045,-1.53836 0.491375,0.62604 1.019937,1.09995 1.588513,1.40594 0.620414,0.33302 1.266189,0.43389 1.937882,0.30371 0.379234,-0.0756 0.720155,-0.24286 1.022757,-0.5032 0.302037,-0.2609 0.573081,-0.56632 0.812565,-0.91624 0.24005,-0.34939 0.44404,-0.7258 0.61253,-1.12701 0.16961,-0.40122 0.31217,-0.78103 0.42938,-1.13659 0.11722,-0.35614 0.20793,-0.66662 0.27273,-0.93146 0.0642,-0.26541 0.10427,-0.43503 0.1206,-0.50885 0.0152,-0.0733 0.0169,-0.14423 0.003,-0.21244 -0.0265,-0.13641 -0.10205,-0.25301 -0.22766,-0.34937 -0.1251,-0.0963 -0.27048,-0.12907 -0.43502,-0.097 -0.24287,0.0473 -0.39106,0.19722 -0.44235,0.45024 -0.0496,0.26146 -0.14481,0.6159 -0.28456,1.0622 -0.14031,0.44686 -0.314998,0.89484 -0.525748,1.34508 -0.209624,0.45023 -0.454184,0.85144 -0.73368,1.20309 -0.279495,0.3533 -0.589424,0.56237 -0.93034,0.62887 -0.291334,0.0574 -0.579844,0.0277 -0.864977,-0.0879 -0.285695,-0.11613 -0.565192,-0.29641 -0.840182,-0.54042 -0.274425,-0.24455 -0.537581,-0.54094 -0.787213,-0.89145 -0.125662,-0.17581 -0.246815,-0.3612 -0.36346,-0.55505 l -0.274986,-0.44009 0.241742,-0.96416 c 0.01746,-0.0609 0.0355,-0.11948 0.05353,-0.18482 0.117212,-0.4322 0.223714,-0.93542 0.318381,-1.50907 0.09468,-0.5742 0.175248,-1.19518 0.241743,-1.86462 0.06592,-0.66943 0.10932,-1.35185 0.130166,-2.04777 0.02029,-0.69535 0.0096,-1.38733 -0.03381,-2.07594 -0.04396,-0.68804 -0.124528,-1.328737 -0.240051,-1.922097 l -0.031,-0.16067 7.397095,-1.44482 c 0.15496,-0.0303 0.27724,-0.10249 0.36628,-0.21582 0.089,-0.11325 0.11833,-0.24681 0.0884,-0.40291"
       style="fill:#333333;fill-opacity:1;fill-rule:nonzero;stroke:none;stroke-width:0.0563502"
       id="path214"
       inkscape:connector-curvature="0" />
    <ellipse
       style="opacity:1;fill:#ececec;fill-opacity:1;stroke-width:1.25801587"
       id="path1934"
       cx="114.76056"
       cy="150.40068"
       rx="0.92666352"
       ry="0.9828251" />
    <ellipse
       style="opacity:1;fill:#ffffff;fill-opacity:1;stroke-width:0.46271849"
       id="path1936"
       cx="114.39423"
       cy="150.10759"
       rx="0.2375564"
       ry="0.29952762" />
  </g>
</svg>
