<?xml version="1.0" encoding="UTF-8" standalone="no"?>
<!-- Created with Inkscape (http://www.inkscape.org/) -->

<svg
   xmlns:dc="http://purl.org/dc/elements/1.1/"
   xmlns:cc="http://creativecommons.org/ns#"
   xmlns:rdf="http://www.w3.org/1999/02/22-rdf-syntax-ns#"
   xmlns:svg="http://www.w3.org/2000/svg"
   xmlns="http://www.w3.org/2000/svg"
   xmlns:sodipodi="http://sodipodi.sourceforge.net/DTD/sodipodi-0.dtd"
   xmlns:inkscape="http://www.inkscape.org/namespaces/inkscape"
   width="210mm"
   height="297mm"
   viewBox="0 0 210 297"
   version="1.1"
   id="svg3727"
   inkscape:version="0.92.5 (2060ec1f9f, 2020-04-08)"
   sodipodi:docname="appLogo.svg">
  <defs
     id="defs3721">
    <inkscape:perspective
       sodipodi:type="inkscape:persp3d"
       inkscape:vp_x="0 : 148.5 : 1"
       inkscape:vp_y="0 : 1000 : 0"
       inkscape:vp_z="210 : 148.5 : 1"
       inkscape:persp3d-origin="105 : 99 : 1"
       id="perspective873" />
    <clipPath
       clipPathUnits="userSpaceOnUse"
       id="clipPath3514">
      <path
         d="m 1525.77,1637.28 c -32.95,38.13 -59.17,80.93 -77.96,128.88 -9.38,23.88 -17.2,48.75 -22.86,74.55 -5.63,25.79 -9.47,52.36 -11.58,79.37 -4.45,54.01 -0.83,109.95 7.9,165.28 9.34,55.35 24.02,110.26 43.81,162.94 19.45,52.78 43.83,103.31 71.17,150.64 13.97,23.9 27.81,45.85 42.96,67.01 15.07,21.18 31.01,41.42 47.55,60.51 66.17,76.56 141.94,133.45 211.79,162.05 15.51,6.51 29.66,11.36 42.61,15.61 6.46,1.74 12.65,3.98 18.51,5.3 2.95,0.81 5.82,1.62 8.62,2.39 2.8,0.65 5.53,1.29 8.17,1.9 21.28,5.17 38.32,8.14 51.38,12.14 6.48,1.61 11.95,3.62 16.38,5.99 1.02,0.61 2.18,1.19 3.49,1.69 1.22,0.53 2.33,1.1 3.34,1.7 2.04,1.2 3.68,2.51 4.93,3.94 l 0.28,0.5 c 1.01,-0.02 2.01,0.04 3.02,0.01 11.86,1.85 20.36,14.69 27.41,30.27 -17.65,5.8 -35.75,9.28 -54.06,10.89 -3.81,2.59 -7.96,5.17 -12.68,7.94 -1.11,0.59 -2.49,1.13 -3.66,1.72 22.77,2.58 45.45,2.79 68.21,-1.94 2.87,-0.93 5.79,-1.89 8.72,-2.84 1.12,2.96 2.16,5.88 3.19,8.78 21.04,-3.14 52.62,-4.22 91.09,-7.97 40.9,-3.88 89.39,-10.93 139.44,-23.51 50.13,-12.23 101.21,-31.28 147.44,-53.99 46.23,-22.77 86.77,-50.42 117.61,-76.97 42.03,-37.07 78.85,-79.48 110.12,-125.27 15.19,-23.34 29.58,-47.33 42.06,-72.53 12.19,-25.35 23.87,-51.1 32.91,-78.11 37.69,-107.28 49.5,-226.27 34.84,-341.51 -14.36,-115.26 -55.8,-226.63 -119.86,-317.42 -16.02,-22.67 -33.1,-44.34 -51.86,-64.1 -8.98,-10.22 -19.11,-19.46 -28.72,-29.07 -4.99,-4.64 -10.18,-9.07 -15.23,-13.62 l -7.61,-6.79 -7.97,-6.4 c -20.79,-17.51 -43.38,-32.85 -66.21,-47.4 -23,-14.36 -47.06,-26.93 -71.4,-38.44 -142.19,-66.05 -306.44,-89.7 -460.72,-65.78 -77.08,11.95 -151.51,35.85 -218.76,71.7 -68.58,36.65 -130.22,84.06 -177.81,139.96 z M 1729.5,2909.7 c -2.4,-0.9 -4.74,-1.88 -7.13,-2.81 -6.98,-1.06 -13.88,-2.26 -20.96,-3.17 9.42,2.02 18.75,3.99 28.09,5.98 z m 668.33,-143.88 c 31.91,-15.2 63.03,-32.01 92.35,-51.42 29.36,-19.31 57.33,-40.5 83.59,-63.46 26.21,-23.03 50.29,-48.17 72.5,-74.64 5.38,-6.77 11.17,-13.2 16.23,-20.18 l 15.39,-20.77 c 9.6,-14.33 19.4,-28.51 27.97,-43.52 44.91,-73.83 75.05,-156.53 90.31,-241.64 15.29,-85.15 15.86,-172.73 2.69,-257.27 -13.16,-84.55 -40.12,-166.14 -79.45,-239.38 -39.31,-73.35 -90.86,-137.72 -151.99,-189.38 61.65,53.73 112.8,119.75 151.53,194.02 38.72,74.17 64.88,156.02 77.51,240.24 12.65,84.23 11.84,170.91 -3.12,254.97 -14.93,84.04 -44.14,165.46 -87.48,238.44 -8.74,14.95 -18.72,29.06 -28.52,43.31 l -15.66,20.65 c -5.19,6.92 -11.05,13.32 -16.52,20.03 -22.59,26.3 -47.14,51.13 -73.71,73.93 -53.38,45.27 -113.56,83.59 -178.5,112.45 -64.68,29.41 -133.92,49.3 -204.41,60.55 -35.31,5.41 -70.97,8.29 -106.64,8.96 -8.9,-0.04 -17.85,0.43 -26.74,0.03 l -9.74,-0.32 c 0.42,3.54 0.71,7.14 0.9,10.77 121.13,1.87 242.68,-25.12 351.51,-76.37 z m 542.5,-276.51 c 39.72,-94.27 62.91,-192.92 71.55,-291.31 8.31,-98.46 2.28,-196.78 -17.02,-292.07 -19.15,-95.32 -52.61,-187.55 -99,-273.3 -23.25,-42.85 -49.83,-84.05 -79.74,-122.91 -30.05,-38.77 -63.51,-75.2 -99.38,-108.35 -71.84,-66.4 -153.59,-120.71 -241,-161.31 -87.37,-40.76 -180.05,-68.96 -275.11,-84.06 -95.09,-14.9 -192.59,-17 -289.71,-5.2 -97.09,11.7 -193.8,38.4 -285.5,80.43 7.22,0.99 24.69,-1.69 -0.02,13.46 93.01,-40.09 190,-64.79 286.97,-75.39 97.01,-10.7 194.06,-7.9 288.73,7.2 94.71,15.1 186.99,43.4 274.06,84.11 86.95,40.77 168.88,94.37 240.1,161.32 71.53,66.79 131.51,146.33 176.98,232.55 45.4,86.43 76.76,179.68 93.92,275.71 17.2,96.03 19.93,195.08 6.79,293.23 -13.04,98.05 -41.9,195.43 -88.16,285.91 5.44,2.63 16.27,7.88 21.82,10.56 -31.54,66.28 -71.09,129.87 -119.28,187.11 -47.57,57.56 -102.8,108.08 -162.53,151.93 -120,87.03 -258.74,146.41 -405.56,173.78 -61.24,10.32 -119.54,11.43 -172.74,6.28 -53.24,-5.13 -101.36,-16.5 -143.63,-30.77 108.4,12.65 217.93,6.27 323.64,-17.06 105.71,-23.38 207.91,-63.72 301.37,-120.61 93.3,-56.93 177.81,-131 244.99,-220.06 67.25,-89.01 115.34,-191.07 143.73,-297.23 28.55,-106.25 37.59,-216.7 28.61,-325.29 -8.98,-108.6 -35.96,-215.68 -80.89,-315.17 -44.77,-99.36 -108.19,-191.39 -187.53,-266.58 -78.94,-75.25 -171.45,-133.69 -269.39,-174.52 41.11,17.78 81.75,38.9 121.1,63.48 39.31,24.62 77.2,52.9 112.89,84.41 71.52,62.9 133.17,140.14 179.83,224.44 47.02,84.31 79.64,175.68 98.93,267.93 19.28,92.32 25.64,185.63 20.18,275.71 -4.48,64.28 -16.05,127.53 -33.73,188.59 -17.74,61.05 -42.66,119.63 -73.28,174.63 -30.47,55.05 -67.99,106.1 -110.04,151.71 -42.1,45.56 -88.49,86.25 -138.32,120.93 -99.63,69.43 -210.42,118.33 -325.78,145.92 -97.81,23.48 -199.08,32.63 -300.59,25.32 -8.86,2.79 -21.36,0.81 -34.55,-3 l -1.3,-0.36 c -6.21,-0.7 -12.41,-1.19 -18.62,-2 -12.93,-1.65 -25.97,-3.13 -38.93,-5.57 -6.83,-1.18 -13.68,-2.33 -20.51,-3.58 -31.48,-1.13 -63.05,-7.2 -94.08,-15.13 -40.68,-10.43 -80.26,-24.2 -120.64,-33.81 -58.46,-15.21 -107.47,-51.53 -151.91,-90.75 -14.61,-14.69 -30.53,-27.03 -47.88,-41.16 -17.23,-13.91 -35.38,-28.6 -52.82,-45.51 -17.39,-16.88 -34.1,-36.11 -47.48,-58.03 -13.37,-21.83 -23.23,-46.47 -26.66,-71.27 -1.35,-10.98 -0.18,-21.07 2.04,-29.05 0.36,-1.18 0.95,-2.06 1.36,-3.17 -3.53,-5.51 -7.46,-11.6 -11.72,-18.23 -4.21,-6.93 -8.74,-14.39 -13.48,-22.22 -4.83,-7.77 -9.4,-16.16 -14.26,-24.62 -4.9,-8.44 -9.65,-17.19 -14.28,-26.01 -18.76,-35.13 -35.65,-71.19 -45.84,-95.68 -15.26,-35.8 -28.87,-72.28 -40.7,-109.38 -11.67,-37.16 -21.57,-74.93 -29.54,-113.22 -16.08,-76.54 -23.82,-155.5 -21.84,-235.32 1.8,-79.76 14.77,-160.64 39.7,-238.79 24.7,-78.18 63.53,-153.14 112.52,-219.28 48.97,-66.08 107.61,-122.22 170.82,-169.44 31.65,-23.62 64.65,-44.82 98.52,-64.01 8.38,-4.88 17.12,-9.43 25.87,-13.96 8.77,-4.46 17.39,-9.27 26.3,-13.37 17.78,-8.34 35.55,-16.65 53.75,-23.85 145.14,-59 301.31,-80.5 453.41,-68.9 152.16,11.8 301.61,56.3 435.29,133.32 33.53,19.04 65.54,40.93 96.72,63.95 30.91,23.5 60.5,48.9 88.55,76.09 55.74,54.86 104.78,117.14 144.12,184.08 79.27,133.96 124.22,284.95 135.02,438.49 10.52,153.49 -12.71,311.09 -75.21,457.28 z"
         id="path3512"
         inkscape:connector-curvature="0" />
    </clipPath>
    <linearGradient
       x1="0"
       y1="0"
       x2="1"
       y2="0"
       gradientUnits="userSpaceOnUse"
       gradientTransform="matrix(1883.33,0,0,-1883.33,1134.65,2087.52)"
       spreadMethod="pad"
       id="linearGradient3520">
      <stop
         style="stop-opacity:1;stop-color:#ffd7c9"
         offset="0"
         id="stop3516" />
      <stop
         style="stop-opacity:1;stop-color:#ffeee5"
         offset="1"
         id="stop3518" />
    </linearGradient>
    <clipPath
       clipPathUnits="userSpaceOnUse"
       id="clipPath3514-3">
      <path
         d="m 1525.77,1637.28 c -32.95,38.13 -59.17,80.93 -77.96,128.88 -9.38,23.88 -17.2,48.75 -22.86,74.55 -5.63,25.79 -9.47,52.36 -11.58,79.37 -4.45,54.01 -0.83,109.95 7.9,165.28 9.34,55.35 24.02,110.26 43.81,162.94 19.45,52.78 43.83,103.31 71.17,150.64 13.97,23.9 27.81,45.85 42.96,67.01 15.07,21.18 31.01,41.42 47.55,60.51 66.17,76.56 141.94,133.45 211.79,162.05 15.51,6.51 29.66,11.36 42.61,15.61 6.46,1.74 12.65,3.98 18.51,5.3 2.95,0.81 5.82,1.62 8.62,2.39 2.8,0.65 5.53,1.29 8.17,1.9 21.28,5.17 38.32,8.14 51.38,12.14 6.48,1.61 11.95,3.62 16.38,5.99 1.02,0.61 2.18,1.19 3.49,1.69 1.22,0.53 2.33,1.1 3.34,1.7 2.04,1.2 3.68,2.51 4.93,3.94 l 0.28,0.5 c 1.01,-0.02 2.01,0.04 3.02,0.01 11.86,1.85 20.36,14.69 27.41,30.27 -17.65,5.8 -35.75,9.28 -54.06,10.89 -3.81,2.59 -7.96,5.17 -12.68,7.94 -1.11,0.59 -2.49,1.13 -3.66,1.72 22.77,2.58 45.45,2.79 68.21,-1.94 2.87,-0.93 5.79,-1.89 8.72,-2.84 1.12,2.96 2.16,5.88 3.19,8.78 21.04,-3.14 52.62,-4.22 91.09,-7.97 40.9,-3.88 89.39,-10.93 139.44,-23.51 50.13,-12.23 101.21,-31.28 147.44,-53.99 46.23,-22.77 86.77,-50.42 117.61,-76.97 42.03,-37.07 78.85,-79.48 110.12,-125.27 15.19,-23.34 29.58,-47.33 42.06,-72.53 12.19,-25.35 23.87,-51.1 32.91,-78.11 37.69,-107.28 49.5,-226.27 34.84,-341.51 -14.36,-115.26 -55.8,-226.63 -119.86,-317.42 -16.02,-22.67 -33.1,-44.34 -51.86,-64.1 -8.98,-10.22 -19.11,-19.46 -28.72,-29.07 -4.99,-4.64 -10.18,-9.07 -15.23,-13.62 l -7.61,-6.79 -7.97,-6.4 c -20.79,-17.51 -43.38,-32.85 -66.21,-47.4 -23,-14.36 -47.06,-26.93 -71.4,-38.44 -142.19,-66.05 -306.44,-89.7 -460.72,-65.78 -77.08,11.95 -151.51,35.85 -218.76,71.7 -68.58,36.65 -130.22,84.06 -177.81,139.96 z M 1729.5,2909.7 c -2.4,-0.9 -4.74,-1.88 -7.13,-2.81 -6.98,-1.06 -13.88,-2.26 -20.96,-3.17 9.42,2.02 18.75,3.99 28.09,5.98 z m 668.33,-143.88 c 31.91,-15.2 63.03,-32.01 92.35,-51.42 29.36,-19.31 57.33,-40.5 83.59,-63.46 26.21,-23.03 50.29,-48.17 72.5,-74.64 5.38,-6.77 11.17,-13.2 16.23,-20.18 l 15.39,-20.77 c 9.6,-14.33 19.4,-28.51 27.97,-43.52 44.91,-73.83 75.05,-156.53 90.31,-241.64 15.29,-85.15 15.86,-172.73 2.69,-257.27 -13.16,-84.55 -40.12,-166.14 -79.45,-239.38 -39.31,-73.35 -90.86,-137.72 -151.99,-189.38 61.65,53.73 112.8,119.75 151.53,194.02 38.72,74.17 64.88,156.02 77.51,240.24 12.65,84.23 11.84,170.91 -3.12,254.97 -14.93,84.04 -44.14,165.46 -87.48,238.44 -8.74,14.95 -18.72,29.06 -28.52,43.31 l -15.66,20.65 c -5.19,6.92 -11.05,13.32 -16.52,20.03 -22.59,26.3 -47.14,51.13 -73.71,73.93 -53.38,45.27 -113.56,83.59 -178.5,112.45 -64.68,29.41 -133.92,49.3 -204.41,60.55 -35.31,5.41 -70.97,8.29 -106.64,8.96 -8.9,-0.04 -17.85,0.43 -26.74,0.03 l -9.74,-0.32 c 0.42,3.54 0.71,7.14 0.9,10.77 121.13,1.87 242.68,-25.12 351.51,-76.37 z m 542.5,-276.51 c 39.72,-94.27 62.91,-192.92 71.55,-291.31 8.31,-98.46 2.28,-196.78 -17.02,-292.07 -19.15,-95.32 -52.61,-187.55 -99,-273.3 -23.25,-42.85 -49.83,-84.05 -79.74,-122.91 -30.05,-38.77 -63.51,-75.2 -99.38,-108.35 -71.84,-66.4 -153.59,-120.71 -241,-161.31 -87.37,-40.76 -180.05,-68.96 -275.11,-84.06 -95.09,-14.9 -192.59,-17 -289.71,-5.2 -97.09,11.7 -193.8,38.4 -285.5,80.43 7.22,0.99 24.69,-1.69 -0.02,13.46 93.01,-40.09 190,-64.79 286.97,-75.39 97.01,-10.7 194.06,-7.9 288.73,7.2 94.71,15.1 186.99,43.4 274.06,84.11 86.95,40.77 168.88,94.37 240.1,161.32 71.53,66.79 131.51,146.33 176.98,232.55 45.4,86.43 76.76,179.68 93.92,275.71 17.2,96.03 19.93,195.08 6.79,293.23 -13.04,98.05 -41.9,195.43 -88.16,285.91 5.44,2.63 16.27,7.88 21.82,10.56 -31.54,66.28 -71.09,129.87 -119.28,187.11 -47.57,57.56 -102.8,108.08 -162.53,151.93 -120,87.03 -258.74,146.41 -405.56,173.78 -61.24,10.32 -119.54,11.43 -172.74,6.28 -53.24,-5.13 -101.36,-16.5 -143.63,-30.77 108.4,12.65 217.93,6.27 323.64,-17.06 105.71,-23.38 207.91,-63.72 301.37,-120.61 93.3,-56.93 177.81,-131 244.99,-220.06 67.25,-89.01 115.34,-191.07 143.73,-297.23 28.55,-106.25 37.59,-216.7 28.61,-325.29 -8.98,-108.6 -35.96,-215.68 -80.89,-315.17 -44.77,-99.36 -108.19,-191.39 -187.53,-266.58 -78.94,-75.25 -171.45,-133.69 -269.39,-174.52 41.11,17.78 81.75,38.9 121.1,63.48 39.31,24.62 77.2,52.9 112.89,84.41 71.52,62.9 133.17,140.14 179.83,224.44 47.02,84.31 79.64,175.68 98.93,267.93 19.28,92.32 25.64,185.63 20.18,275.71 -4.48,64.28 -16.05,127.53 -33.73,188.59 -17.74,61.05 -42.66,119.63 -73.28,174.63 -30.47,55.05 -67.99,106.1 -110.04,151.71 -42.1,45.56 -88.49,86.25 -138.32,120.93 -99.63,69.43 -210.42,118.33 -325.78,145.92 -97.81,23.48 -199.08,32.63 -300.59,25.32 -8.86,2.79 -21.36,0.81 -34.55,-3 l -1.3,-0.36 c -6.21,-0.7 -12.41,-1.19 -18.62,-2 -12.93,-1.65 -25.97,-3.13 -38.93,-5.57 -6.83,-1.18 -13.68,-2.33 -20.51,-3.58 -31.48,-1.13 -63.05,-7.2 -94.08,-15.13 -40.68,-10.43 -80.26,-24.2 -120.64,-33.81 -58.46,-15.21 -107.47,-51.53 -151.91,-90.75 -14.61,-14.69 -30.53,-27.03 -47.88,-41.16 -17.23,-13.91 -35.38,-28.6 -52.82,-45.51 -17.39,-16.88 -34.1,-36.11 -47.48,-58.03 -13.37,-21.83 -23.23,-46.47 -26.66,-71.27 -1.35,-10.98 -0.18,-21.07 2.04,-29.05 0.36,-1.18 0.95,-2.06 1.36,-3.17 -3.53,-5.51 -7.46,-11.6 -11.72,-18.23 -4.21,-6.93 -8.74,-14.39 -13.48,-22.22 -4.83,-7.77 -9.4,-16.16 -14.26,-24.62 -4.9,-8.44 -9.65,-17.19 -14.28,-26.01 -18.76,-35.13 -35.65,-71.19 -45.84,-95.68 -15.26,-35.8 -28.87,-72.28 -40.7,-109.38 -11.67,-37.16 -21.57,-74.93 -29.54,-113.22 -16.08,-76.54 -23.82,-155.5 -21.84,-235.32 1.8,-79.76 14.77,-160.64 39.7,-238.79 24.7,-78.18 63.53,-153.14 112.52,-219.28 48.97,-66.08 107.61,-122.22 170.82,-169.44 31.65,-23.62 64.65,-44.82 98.52,-64.01 8.38,-4.88 17.12,-9.43 25.87,-13.96 8.77,-4.46 17.39,-9.27 26.3,-13.37 17.78,-8.34 35.55,-16.65 53.75,-23.85 145.14,-59 301.31,-80.5 453.41,-68.9 152.16,11.8 301.61,56.3 435.29,133.32 33.53,19.04 65.54,40.93 96.72,63.95 30.91,23.5 60.5,48.9 88.55,76.09 55.74,54.86 104.78,117.14 144.12,184.08 79.27,133.96 124.22,284.95 135.02,438.49 10.52,153.49 -12.71,311.09 -75.21,457.28 z"
         id="path3512-6"
         inkscape:connector-curvature="0" />
    </clipPath>
  </defs>
  <sodipodi:namedview
     id="base"
     pagecolor="#ffffff"
     bordercolor="#666666"
     borderopacity="1.0"
     inkscape:pageopacity="0.0"
     inkscape:pageshadow="2"
     inkscape:zoom="0.24748737"
     inkscape:cx="-330.85898"
     inkscape:cy="887.68166"
     inkscape:document-units="mm"
     inkscape:current-layer="layer1"
     showgrid="false"
     inkscape:window-width="1366"
     inkscape:window-height="722"
     inkscape:window-x="0"
     inkscape:window-y="21"
     inkscape:window-maximized="1" />
  <metadata
     id="metadata3724">
    <rdf:RDF>
      <cc:Work
         rdf:about="">
        <dc:format>image/svg+xml</dc:format>
        <dc:type
           rdf:resource="http://purl.org/dc/dcmitype/StillImage" />
        <dc:title />
      </cc:Work>
    </rdf:RDF>
  </metadata>
  <g
     inkscape:label="Layer 1"
     inkscape:groupmode="layer"
     id="layer1">
    <circle
       style="opacity:1;fill:#e6e6e6;fill-opacity:0.7157895;stroke-width:0.36069897"
       id="path1075"
       cx="111.10059"
       cy="153.38583"
       r="96.873436" />
    <path
       d="m 147.19842,168.67134 c 0.18543,0.37462 0.74623,0.56051 1.30494,1.12073 0.93362,-2.42755 0,-6.15835 -1.30494,-7.46493 -0.93347,1.30658 -0.5605,4.10739 0,6.3442 z m -4.29277,-76.874966 c 0.37462,0 0.56052,0 0.93518,-0.185894 -0.37462,0.185894 -0.56056,0.185894 -0.93518,0.185894 z m 10.44949,1.120931 c -5.7836,-0.747964 -11.75447,-0.562259 -17.53982,-0.562259 -0.93354,0.373203 -1.6797,0.373203 -2.61152,0.373203 v 0.189197 c 7.27594,0.371316 14.74085,0.744424 22.20415,1.117485 -0.3732,-0.746169 -1.11928,-1.117485 -2.05281,-1.117533 z M 120.88866,196.10023 c 0.74613,-0.18542 1.49235,-0.18542 2.23856,-0.55878 0.18731,-0.1873 0.18731,-0.37131 0.18731,-0.5605 -0.74795,0.3732 -1.49403,0.3732 -2.23855,0.5605 -0.18732,0.18732 -0.18732,0.37321 -0.18732,0.55878 z m 0.18732,0.93527 c -1.12084,0.37132 -2.0527,0.74622 -2.98628,0.93008 1.49234,0.37508 1.49234,0.37508 2.98628,-0.93008 z m -12.31682,1.86531 c 1.49412,0.37131 2.42604,0.37131 3.73265,-1.11918 -1.49236,0 -2.23853,0.3713 -3.73265,1.11918 z m 30.04263,-69.22573 c 5.5978,-2.42596 11.19401,-5.03913 16.60621,-8.76999 2.98458,-1.86701 3.91811,-4.85183 1.86531,-5.97257 -0.37131,-0.37321 -0.37131,-0.74443 -0.74613,-0.93193 -1.30495,-0.7462 -2.61157,-1.86539 -4.47702,-2.05279 -2.61307,-0.93352 -5.78516,-0.74617 -9.51601,0 -0.56051,0 -0.93352,0.18731 -1.30825,0.18731 -1.30497,-0.93353 -3.35773,-0.93353 -5.96935,0.18542 -0.18589,0.3732 -0.5605,0.3732 -0.74621,0.18731 -0.56048,-0.3732 -1.67961,0.55877 -2.05432,-0.3732 -0.18589,-0.18731 -1.67814,0.3732 -2.42427,0.74791 -0.74611,0 -1.30661,-0.37462 -1.86707,-0.18919 -3.35781,0.74796 -6.52978,1.11927 -9.51612,1.67968 -7.09025,1.30494 -23.323487,33.95894 -9.51455,25.56371 9.88922,-2.98629 19.77851,-6.52977 29.66768,-10.26227 z m -34.52112,52.8051 c 3.36107,-0.37321 6.53318,-0.56226 9.89091,-0.93348 3.7308,-0.18731 7.27755,-1.11923 11.38152,-2.42592 5.78525,-1.49386 11.38319,-2.98618 16.79374,-4.47858 2.42586,-0.93182 3.35948,-2.05115 2.98634,-3.91985 -0.18779,-2.23687 0,-4.84833 -1.86711,-6.34237 0,-0.18732 -0.18542,-0.3732 -0.18542,-0.56046 -0.18919,-2.79732 -2.24011,-4.1039 -4.10556,-5.59785 -0.1859,-0.37131 -1.3066,0 -2.23856,-0.18542 -0.3732,0 -0.93348,0.18542 -1.30824,0 -2.61157,0.18542 -5.40884,0.18542 -7.64905,-0.18543 -2.05281,-0.37508 -3.91816,-0.55876 -5.96936,-0.55876 -2.42746,0.37132 -4.85178,0.37132 -7.46496,0.74442 -1.86546,0 -3.35939,0.37462 -5.4106,0.74618 -1.86711,0.37509 -3.91821,0.74621 -5.97261,1.30494 -11.754534,1.12092 -9.889194,8.2128 -13.993078,16.04746 -3.732479,9.88917 1.305015,7.65071 8.768261,6.90449 2.0528,-0.18588 4.107237,-0.18588 6.344017,-0.55881 z m -1.49066,20.52458 c -0.56053,-1.12093 -2.05443,-1.12093 -3.919797,-0.55876 -2.05276,0.93173 -3.91823,0.74442 -5.783567,0.93173 -2.798991,0.37321 -5.03919,-0.18731 -8.023806,1.11933 -1.865357,0.93352 -3.545126,1.11918 -5.224826,1.67966 -2.051111,0.55875 -2.051111,0.55875 -2.79886,2.42421 0.187444,0.37507 0,0.7462 0,1.12249 -0.931947,1.67809 -3.172051,3.35627 -4.664435,3.17042 -0.74616,0 -1.865341,-0.37462 -2.984617,-0.1859 -1.120848,-0.1892 -1.679696,-0.74616 -1.679696,-2.05441 0.185516,-0.93017 -0.747919,-1.49233 -1.865351,-1.30663 -1.494026,-0.18543 -2.798955,-0.74612 -4.291292,-0.74612 -2.61486,0.18731 -5.039058,0.74612 -7.838018,1.12258 -1.867033,0.55877 -4.10559,0.93017 -5.78362,0.93017 -0.933493,0 -2.054457,0.3751 -3.17196,0.3751 -2.054537,0.56046 -3.172036,-0.1859 -2.61327,-2.24012 0.558733,-1.67804 1.306578,-3.17194 1.865434,-5.03743 1.119174,-2.42581 2.054361,-4.66428 2.800528,-7.0902 0.558765,-1.8671 1.119268,-3.9181 2.797298,-6.15658 1.306601,-1.12092 2.238557,-2.79905 2.798979,-4.10564 0.933493,-1.6796 2.425876,-2.61312 3.732452,-2.98624 1.492388,-0.74617 2.797317,-0.74617 4.105571,-0.55875 2.424197,0.3732 4.850063,0.55875 7.27592,0.55875 10.822685,1.86531 11.381406,-8.95564 14.180375,-13.62001 0.933504,-2.42746 1.867124,-4.66607 2.427528,-6.90452 0.558768,-0.93362 0.371361,-1.3066 -0.185519,-1.3066 -0.560491,-0.37319 -0.935183,-0.74621 -1.30825,-0.93186 -2.238546,-0.93358 -2.984748,-2.79898 -2.424214,-5.41051 -0.189095,-1.49403 -0.189095,-3.17548 0.371318,-4.85178 0,-1.8671 0.746194,-3.91987 2.240119,-5.41216 2.425884,-0.18731 4.478646,0 6.717175,-0.18731 1.865356,0 2.05279,-0.18542 3.171962,-2.23844 2.611602,-6.15833 6.156692,-12.12778 7.836379,-18.28625 1.49401,-4.66599 0.5605,-6.15659 -5.969256,-6.53144 -1.679698,0.37462 -3.359388,0 -4.666089,-0.18731 -0.746149,0 -1.120833,-0.74442 -1.306606,-1.4906 -0.74615,-4.66596 -0.931808,-10.07491 2.425877,-16.233204 0.560523,-1.119279 1.86712,-2.425962 2.611609,-3.545145 0.935209,-0.746169 1.867068,-1.306588 2.800568,-1.49234 10.076547,-0.37509 20.337197,-2.613223 30.412077,-3.919809 5.97265,-0.558767 11.5706,-0.373203 17.54161,-0.373203 3.91806,0 7.83632,0.187308 11.19405,0.933479 9.33046,2.61157 12.31509,9.328752 10.4497,20.153032 -0.37322,2.61165 -1.86551,5.40883 -3.91827,8.02045 -0.74617,1.12098 -1.30498,2.24012 -2.05115,3.35941 -1.49403,2.23846 -3.17203,4.10391 -5.5979,5.59964 -0.93348,0.55877 -1.86535,1.1192 -2.42583,1.4923 -1.30663,0.93184 -2.61322,1.67805 -4.29291,2.61153 -2.79892,1.4924 -5.97086,2.98473 -8.95564,4.47867 -0.74791,0.18732 -1.49229,0.37133 -2.23842,0.74618 -1.12092,0.37131 -2.05289,0.74622 -2.98643,1.11926 0,0.18731 0,0.3732 -0.18541,0.55877 0.93188,0.1873 1.67988,0 2.42431,0.1873 -0.74443,0 -1.86544,0.56052 -2.61166,0.56052 l -0.1878,0.18541 c 0.1878,0.18733 0.56053,0.37321 0.93348,0.56052 -0.37319,0.37132 -0.93348,0.55878 -1.49394,0.74618 0.1892,0.37319 0.1892,0.37319 0.1892,0.56056 1.30512,0.3732 2.42592,0.3732 3.5436,0.93191 2.98632,0.93352 5.971,1.49225 8.76993,2.42587 0.56051,0.18731 0.93353,0.74617 1.49385,0.93353 1.11932,0.37132 2.2369,0.18542 2.98468,0.56046 0.55876,0.37131 0.74616,1.49238 1.11928,2.23691 1.49398,2.61148 3.54514,4.85168 4.85178,7.65227 1.30484,3.17199 2.42577,6.71558 0.93342,11.19579 -0.37461,1.11749 -1.11923,2.42261 -1.67973,3.54515 -0.74622,1.30493 -1.67961,2.42407 -2.24003,4.10386 -1.49073,1.67803 -2.61153,3.35765 -2.98472,5.22464 -0.18731,0.37321 -0.74791,0.93372 -1.11919,1.30679 -1.86549,2.61157 -4.66436,4.28952 -7.27764,6.34236 -0.1859,0 -0.37133,0 -0.74618,0 -0.93352,0.56052 -2.05115,0.93508 -3.73084,1.49403 0.55881,0.37132 0.74621,0.56052 0.55881,0.93184 l -0.18588,0.18729 c -0.37322,0.18731 -0.93354,0.56051 -1.30829,0.74619 -1.67814,1.86544 -3.73086,2.61157 -5.96927,3.17198 -3.35949,1.30658 -7.09195,1.86544 -10.63542,3.5468 -1.67969,0.55876 -3.3595,0.55876 -5.22484,0.93022 -0.74799,0 -1.49405,0.18731 -2.24013,0.37509 -1.49239,0.56047 -3.35947,0.93187 -5.03587,1.30669 -0.74615,0.3713 -1.30669,0.55875 -2.05443,0.74611 0,0 -0.18742,0.18779 -0.37308,0.37322 0.18553,0 0.56053,0.18729 0.93186,0.18729 h -0.18527 c -0.93186,0.74618 -1.67967,0.55877 -2.05111,0.1859"
       style="fill:#cccccc;fill-opacity:1;fill-rule:nonzero;stroke:none;stroke-width:0.16581433"
       id="path3526"
       inkscape:connector-curvature="0" />
    <path
       d="m 134.32259,151.31603 c 0.18543,0.37461 0.74623,0.5605 1.30494,1.12072 0.93362,-2.42755 0,-6.15835 -1.30494,-7.46493 -0.93347,1.30658 -0.5605,4.10739 0,6.34421 z m -4.29277,-76.874952 c 0.37462,0 0.56052,0 0.93518,-0.185895 -0.37462,0.185895 -0.56056,0.185895 -0.93518,0.185895 z m 10.44949,1.120936 c -5.78361,-0.747962 -11.75447,-0.562262 -17.53982,-0.562262 -0.93354,0.373203 -1.6797,0.373203 -2.61153,0.373203 v 0.189192 c 7.27595,0.371321 14.74086,0.744427 22.20416,1.117489 -0.3732,-0.746168 -1.11928,-1.117489 -2.05281,-1.117534 z M 108.01278,178.74491 c 0.74614,-0.18542 1.49237,-0.18542 2.23858,-0.55878 0.18732,-0.1873 0.18732,-0.3713 0.18732,-0.5605 -0.74796,0.3732 -1.49405,0.3732 -2.23857,0.5605 -0.18733,0.18733 -0.18733,0.37321 -0.18733,0.55878 z m 0.18733,0.93527 c -1.12084,0.37132 -2.05272,0.74622 -2.9863,0.93009 1.49235,0.37508 1.49235,0.37508 2.9863,-0.93009 z m -12.316807,1.86531 c 1.49412,0.37131 2.42603,0.37131 3.73263,-1.11917 -1.49235,0 -2.23851,0.3713 -3.73263,1.11917 z m 30.042657,-69.22572 c 5.5978,-2.42597 11.19401,-5.03914 16.60621,-8.77 2.98458,-1.86701 3.91811,-4.851848 1.8653,-5.972589 -0.3713,-0.3732 -0.3713,-0.744425 -0.74612,-0.931919 -1.30495,-0.746204 -2.61157,-1.865389 -4.47702,-2.052796 -2.61307,-0.933521 -5.78516,-0.746168 -9.51601,0 -0.56051,0 -0.93352,0.187309 -1.30825,0.187309 -1.30497,-0.933522 -3.35773,-0.933522 -5.96935,0.185426 -0.18589,0.373204 -0.5605,0.373204 -0.74621,0.187309 -0.56048,-0.373204 -1.67961,0.558771 -2.05432,-0.373204 -0.18589,-0.187308 -1.67814,0.373204 -2.42427,0.747919 -0.74611,0 -1.30661,-0.374617 -1.86707,-0.1892 -3.35781,0.747963 -6.52983,1.119283 -9.51617,1.679681 -7.090237,1.304936 -23.323434,33.958954 -9.514527,25.563714 9.889197,-2.98628 19.778537,-6.52977 29.667707,-10.26226 z m -34.521112,52.80509 c 3.361045,-0.37321 6.533135,-0.56226 9.890842,-0.93347 3.73081,-0.18732 7.27758,-1.11924 11.38157,-2.42592 5.78526,-1.49386 11.3832,-2.98619 16.79375,-4.47858 2.42586,-0.93183 3.35948,-2.05116 2.98634,-3.91986 -0.18779,-2.23687 0,-4.84832 -1.86711,-6.34237 0,-0.18732 -0.18542,-0.3732 -0.18542,-0.56045 -0.18919,-2.79733 -2.24011,-4.10391 -4.10556,-5.59785 -0.1859,-0.37132 -1.3066,0 -2.23856,-0.18542 -0.3732,0 -0.93348,0.18542 -1.30824,0 -2.61157,0.18542 -5.40885,0.18542 -7.64905,-0.18544 -2.05282,-0.37507 -3.91818,-0.55875 -5.9694,-0.55875 -2.42747,0.37131 -4.85179,0.37131 -7.46498,0.74442 -1.865447,0 -3.359367,0.37462 -5.410567,0.74617 -1.867094,0.37509 -3.918184,0.74621 -5.97258,1.30494 -11.754542,1.12093 -9.889204,8.2128 -13.993081,16.04747 -3.732478,9.88916 1.305009,7.65071 8.768267,6.90449 2.052796,-0.18589 4.107237,-0.18589 6.344017,-0.55882 z m -1.490667,20.52459 c -0.56053,-1.12094 -2.054438,-1.12094 -3.919804,-0.55876 -2.052759,0.93172 -3.91822,0.74441 -5.783568,0.93172 -2.798989,0.37321 -5.039191,-0.18731 -8.023804,1.11933 -1.865354,0.93353 -3.545123,1.11919 -5.224824,1.67966 -2.051115,0.55875 -2.051115,0.55875 -2.798856,2.42422 0.18744,0.37507 0,0.7462 0,1.12248 -0.931949,1.67809 -3.172053,3.35627 -4.664443,3.17042 -0.746161,0 -1.865338,-0.37461 -2.984613,-0.18589 -1.120847,-0.18921 -1.679698,-0.74618 -1.679698,-2.05441 0.185513,-0.93017 -0.747919,-1.49233 -1.865347,-1.30663 -1.494032,-0.18543 -2.798955,-0.74612 -4.291292,-0.74612 -2.614864,0.1873 -5.039061,0.74612 -7.838014,1.12258 -1.867034,0.55877 -4.105589,0.93017 -5.783625,0.93017 -0.933487,0 -2.05445,0.3751 -3.171954,0.3751 -2.054538,0.56045 -3.172035,-0.18591 -2.613273,-2.24012 0.558735,-1.67805 1.306583,-3.17195 1.865434,-5.03744 1.119178,-2.42581 2.054358,-4.66428 2.800526,-7.0902 0.558762,-1.86709 1.119267,-3.91811 2.797303,-6.15658 1.306598,-1.12092 2.238555,-2.79905 2.79897,-4.10564 0.933495,-1.6796 2.425873,-2.61312 3.732458,-2.98623 1.49238,-0.74618 2.797311,-0.74618 4.105565,-0.55876 2.424197,0.37321 4.850065,0.55876 7.275923,0.55876 10.822681,1.86531 11.381408,-8.95564 14.180372,-13.62001 0.933504,-2.42747 1.867122,-4.66608 2.427527,-6.90453 0.558772,-0.93361 0.371366,-1.30659 -0.185512,-1.30659 -0.560495,-0.3732 -0.935185,-0.74621 -1.308255,-0.93187 -2.238549,-0.93358 -2.984745,-2.79898 -2.424214,-5.4105 -0.189094,-1.49404 -0.189094,-3.17549 0.371322,-4.85179 0,-1.8671 0.746195,-3.91986 2.240112,-5.41215 2.425886,-0.18732 4.478645,0 6.717178,-0.18732 1.865355,0 2.052786,-0.18541 3.171964,-2.23845 2.611602,-6.15833 6.156691,-12.12777 7.836382,-18.28624 1.494016,-4.666 0.560495,-6.1566 -5.969258,-6.53146 -1.679701,0.37462 -3.359389,0 -4.666088,-0.18731 -0.746151,0 -1.12084,-0.744419 -1.306611,-1.490595 -0.746151,-4.665961 -0.931807,-10.074899 2.425876,-16.233168 0.560521,-1.119275 1.867122,-2.425955 2.611613,-3.545141 0.93521,-0.746166 1.867068,-1.30659 2.800573,-1.492334 10.07654,-0.375095 20.337134,-2.613229 30.412074,-3.91981 5.97265,-0.558771 11.5706,-0.373204 17.54161,-0.373204 3.91806,0 7.83632,0.187309 11.19405,0.933475 9.33046,2.611567 12.31509,9.328748 10.4497,20.152997 -0.37322,2.611646 -1.86551,5.408822 -3.91827,8.02045 -0.74617,1.12099 -1.30498,2.24014 -2.05116,3.35942 -1.49402,2.23846 -3.17202,4.10391 -5.59789,5.59965 -0.93348,0.55876 -1.86535,1.11919 -2.42583,1.49228 -1.30663,0.93185 -2.61322,1.67806 -4.29291,2.61154 -2.79892,1.4924 -5.97086,2.98472 -8.95564,4.47867 -0.74791,0.18731 -1.49229,0.37132 -2.23842,0.74617 -1.12093,0.37132 -2.05289,0.74622 -2.98643,1.11927 0,0.18731 0,0.3732 -0.18541,0.55877 0.93188,0.1873 1.67988,0 2.42431,0.1873 -0.74443,0 -1.86544,0.56052 -2.61167,0.56052 l -0.18779,0.18542 c 0.18779,0.18731 0.56053,0.3732 0.93348,0.56051 -0.37319,0.37132 -0.93348,0.55877 -1.49394,0.74618 0.1892,0.37319 0.1892,0.37319 0.1892,0.56055 1.30512,0.37321 2.42592,0.37321 3.5436,0.93192 2.98632,0.93353 5.971,1.49224 8.76992,2.42588 0.56052,0.18729 0.93354,0.74616 1.49386,0.93351 1.11932,0.37133 2.2369,0.18543 2.98468,0.56048 0.55875,0.37131 0.74616,1.49237 1.11928,2.23691 1.49398,2.61147 3.54514,4.85167 4.85178,7.65226 1.30484,3.172 2.42577,6.71558 0.93342,11.19579 -0.37461,1.11749 -1.11923,2.42261 -1.67973,3.54515 -0.74622,1.30493 -1.67961,2.42407 -2.24003,4.10387 -1.49074,1.67803 -2.61153,3.35764 -2.98472,5.22463 -0.18731,0.37321 -0.74791,0.93372 -1.11919,1.30679 -1.86549,2.61157 -4.66436,4.28952 -7.27764,6.34237 -0.1859,0 -0.37133,0 -0.74618,0 -0.93352,0.56052 -2.05115,0.93508 -3.73084,1.49402 0.55881,0.37132 0.74621,0.56052 0.55881,0.93184 l -0.18588,0.18729 c -0.37322,0.18732 -0.93355,0.56052 -1.30829,0.7462 -1.67814,1.86543 -3.73087,2.61156 -5.96927,3.17197 -3.35949,1.30659 -7.09197,1.86545 -10.63548,3.5468 -1.6797,0.55877 -3.3595,0.55877 -5.22484,0.93022 -0.74798,0 -1.494027,0.18731 -2.240107,0.37509 -1.49239,0.56048 -3.35945,0.93188 -5.035837,1.30669 -0.74615,0.3713 -1.30669,0.55876 -2.054432,0.74612 0,0 -0.187406,0.18778 -0.373071,0.37321 0.185531,0 0.560523,0.1873 0.931851,0.1873 h -0.185266 c -0.93185,0.74617 -1.679674,0.55877 -2.051101,0.18589"
       style="fill:#008080;fill-opacity:1;fill-rule:nonzero;stroke:none;stroke-width:0.16581433"
       id="path3526-6"
       inkscape:connector-curvature="0" />
    <circle
       style="opacity:1;fill:#cccccc;fill-opacity:0.1;stroke:#000000;stroke-width:7.18011618;stroke-miterlimit:4;stroke-dasharray:57.44093028, 14.36023257, 7.18011628, 14.36023257;stroke-dashoffset:0;stroke-opacity:1"
       id="path891"
       cx="101.45102"
       cy="142.84221"
       r="97.528305" />
  </g>
</svg>
