<?xml version="1.0" encoding="utf-8"?>
<!-- Generator: Adobe Illustrator 19.0.0, SVG Export Plug-In . SVG Version: 6.00 Build 0)  -->
<svg version="1.1" id="Layer_1" xmlns="http://www.w3.org/2000/svg" xmlns:xlink="http://www.w3.org/1999/xlink" x="0px" y="0px"
	 viewBox="0 0 500 500" style="enable-background:new 0 0 500 500;" xml:space="preserve">
<style type="text/css">
	.st0{fill:#FAFDFF;}
	.st1{fill:#DF8C42;}
	.st2{fill:#89C5EC;}
</style>
<g id="XMLID_1_">
	<path id="XMLID_3_" class="st0" d="M104.8,285.7c20.6,0,37.3-16.7,37.3-37.3c0-20.6-16.7-37.3-37.3-37.3
		c-20.6,0-37.3,16.7-37.3,37.3C67.5,269,84.2,285.7,104.8,285.7z"/>
	<path id="XMLID_17_" class="st1" d="M295.6,280.5c0,2.8,2.6,3.1,4.7,3.3c1.5,0.2,2.8,0.3,2.8,1.4c0,1-1,1.6-2.7,1.6
		c-1,0-2-0.4-2.8-1c-0.4-0.3-0.6-0.4-1-0.1c-0.2,0.2-0.6,0.6-0.8,0.8c-0.4,0.4-0.3,0.5,0.1,0.9c0.9,0.8,2.4,1.6,4.4,1.6
		c2.5,0,5.2-1.3,5.2-3.9c0-2.8-2.6-3.1-4.7-3.4c-1.5-0.2-2.8-0.3-2.8-1.3c0-0.7,0.6-1.5,2.3-1.5c1.1,0,2,0.3,2.8,1
		c0.2,0.2,0.5,0.2,0.7,0c0.3-0.3,0.7-0.6,1-0.8c0.2-0.2,0.2-0.4,0-0.6c-1.1-1-2.6-1.5-4.4-1.5C297.7,277,295.6,278.5,295.6,280.5z
		 M318.2,277.2h-1.5c-0.3,0-0.5,0.2-0.5,0.5v3.9c0,0.2-0.1,0.3-0.3,0.3h-4.7c-0.2,0-0.4-0.2-0.4-0.3c0-1,0-3.6,0-3.9
		c0-0.3-0.2-0.5-0.5-0.5h-1.5c-0.3,0-0.5,0.2-0.5,0.5c0,2,0,10.3,0,10.7c0,0.3,0.2,0.4,0.5,0.4h1.5c0.3,0,0.5-0.2,0.5-0.5v-3.9
		c0-0.2,0.2-0.3,0.3-0.3c0.2,0,4.6,0,4.7,0c0.2,0,0.3,0.2,0.3,0.3c0,0.2,0,3.7,0,3.9c0,0.3,0.2,0.5,0.5,0.5h1.5
		c0.3,0,0.5-0.2,0.5-0.5c0-0.3,0-8.6,0-10.7C318.7,277.4,318.5,277.2,318.2,277.2z M328.2,288.9c3.4-0.1,6.1-2.7,6.1-6
		c0-3.4-2.6-5.9-6.1-6l-0.3,0c-3.5,0-6.1,2.6-6.1,6c0,3.3,2.6,5.8,6,6C327.9,288.9,328.2,288.9,328.2,288.9z M328.2,286.8l-0.3,0
		c-2-0.1-3.6-1.7-3.6-3.8c0-2.1,1.6-3.8,3.8-3.8c2.1,0,3.8,1.7,3.8,3.8C331.8,285.1,330.3,286.7,328.2,286.8z M346.2,277.2h-8
		c-0.3,0-0.5,0.2-0.5,0.5v10.6c0,0.3,0.2,0.5,0.5,0.5h8.2c0.3,0,0.5-0.2,0.5-0.5c0-0.3,0-1,0-1.2c0-0.3-0.2-0.5-0.5-0.5
		c-0.3,0-5.6,0-5.8,0c-0.2,0-0.3-0.1-0.3-0.3v-2c0-0.2,0.1-0.3,0.3-0.3c0.2,0,4.6,0,4.8,0c0.3,0,0.5-0.2,0.5-0.4c0-0.3,0-1,0-1.2
		c0-0.3-0.2-0.5-0.5-0.5h-4.8c-0.2,0-0.3-0.1-0.3-0.3v-1.9c0-0.2,0.1-0.3,0.3-0.3s5.5,0,5.7,0c0.3,0,0.5-0.2,0.5-0.4v-1.2
		C346.6,277.4,346.5,277.2,346.2,277.2z M350.1,280.5c0,2.8,2.6,3.1,4.7,3.3c1.5,0.2,2.8,0.3,2.8,1.4c0,1-1.1,1.6-2.7,1.6
		c-1,0-2-0.4-2.8-1c-0.4-0.3-0.6-0.4-1-0.1c-0.2,0.2-0.6,0.6-0.8,0.8c-0.4,0.4-0.3,0.5,0.1,0.9c0.9,0.8,2.4,1.6,4.4,1.6
		c2.5,0,5.2-1.3,5.2-3.9c0-2.8-2.6-3.1-4.7-3.4c-1.5-0.2-2.8-0.3-2.8-1.3c0-0.7,0.6-1.5,2.3-1.5c1.1,0,2,0.3,2.8,1
		c0.2,0.2,0.5,0.2,0.7,0c0.3-0.3,0.7-0.6,1-0.8c0.2-0.2,0.2-0.4,0-0.6c-1.1-1-2.6-1.5-4.4-1.5C352.2,277,350.1,278.5,350.1,280.5z
		 M368.8,288.9c3.4-0.1,6.1-2.7,6.1-6c0-3.4-2.6-5.9-6.1-6h-0.3c-3.5,0-6.2,2.6-6.2,6c0,3.3,2.6,5.8,6,6
		C368.6,288.9,368.8,288.9,368.8,288.9z M368.8,286.8l-0.3,0c-2-0.1-3.6-1.7-3.6-3.8c0-2.1,1.7-3.8,3.8-3.8c2.1,0,3.8,1.7,3.8,3.8
		C372.4,285.1,370.9,286.7,368.8,286.8z M387.7,277.2h-1.5c-0.3,0-0.5,0.2-0.5,0.4s0,6.1,0,6.1c0,1.9-0.9,3-2.6,3l-0.3,0
		c-1.6-0.1-2.5-1.2-2.5-3c0,0,0-5.8,0-6.1c0-0.3-0.2-0.5-0.5-0.5h-1.5c-0.3,0-0.5,0.2-0.5,0.5c0,0.3,0,6.1,0,6.1
		c0,3.2,1.8,5,4.9,5.1l0.3,0c3.2,0,5-1.9,5-5.1c0,0,0-5.9,0-6.1C388.2,277.4,388,277.2,387.7,277.2z M392.3,277.2
		c-0.3,0-0.5,0.2-0.5,0.4v10.6c0,0.3,0.2,0.5,0.5,0.5h1.5c0.3,0,0.5-0.2,0.5-0.5c0-0.2,0-2.8,0-3c0-0.2,0.1-0.3,0.3-0.3h1.9
		c0.2,0,0.4,0.1,0.5,0.3c0.5,0.8,2,2.8,2.1,3.1c0.2,0.3,0.4,0.5,0.8,0.5h1.8c0.3,0,0.3-0.2,0.2-0.5c-0.2-0.3-2.6-3.7-2.6-3.7
		l0.2-0.1c1.6-0.6,2.5-1.8,2.5-3.5c0-2.4-1.6-3.8-4.4-3.8L392.3,277.2L392.3,277.2z M394.2,282.6v-2.9c0-0.2,0.1-0.3,0.3-0.3h2.7
		c1.4,0,2.2,0.6,2.2,1.8c0,1.1-0.8,1.8-2.2,1.8h-2.7C394.4,282.9,394.2,282.8,394.2,282.6z M404.7,282.7c0,0.3,0,0.5,0,0.5
		c0.1,3.2,2.7,5.6,6,5.6c1.8,0,3.2-0.5,4.4-1.7c0.2-0.2,0.2-0.4,0-0.6c-0.3-0.3-0.6-0.6-0.9-0.9c-0.2-0.2-0.4-0.2-0.7,0
		c-0.8,0.7-1.6,1-2.8,1c-2.1,0-3.6-1.6-3.6-3.8c0-2.1,1.4-3.7,3.4-3.8c0.2,0,0.4,0,0.5,0c0.9,0.1,1.6,0.4,2.4,1
		c0.2,0.2,0.5,0.2,0.6-0.1c0.3-0.3,0.7-0.8,0.9-1.1c0.2-0.2,0.2-0.4,0-0.6c-1.2-1-2.5-1.4-4.2-1.4
		C407.4,277,404.8,279.5,404.7,282.7z M426.8,277.2h-8c-0.3,0-0.5,0.2-0.5,0.5v10.6c0,0.3,0.2,0.5,0.5,0.5h8.2
		c0.3,0,0.5-0.2,0.5-0.5v-1.2c0-0.3-0.2-0.5-0.5-0.5c-0.3,0-5.6,0-5.8,0c-0.2,0-0.3-0.1-0.3-0.3v-2c0-0.2,0.1-0.3,0.3-0.3
		c0.2,0,4.6,0,4.8,0c0.3,0,0.5-0.2,0.5-0.5c0-0.3,0-1,0-1.2c0-0.3-0.2-0.5-0.5-0.5c-0.2,0-4.6,0-4.8,0c-0.2,0-0.3-0.1-0.3-0.3v-1.9
		c0-0.2,0.1-0.3,0.3-0.3c0.2,0,5.5,0,5.7,0c0.3,0,0.5-0.2,0.5-0.4v-1.2C427.3,277.3,427.1,277.2,426.8,277.2z"/>
	<path id="XMLID_28_" class="st1" d="M199.7,233.1c-0.2-10.1-7.9-17.6-19.7-17.6h-25.3c-0.7,0-1.5,0.7-1.5,1.5v49.7
		c0,0.8,0.7,1.5,1.5,1.5h6.9c0.8,0,1.5-0.7,1.5-1.5v-12.8c0-0.8,0.5-1.3,1.3-1.3H180c11.8,0,19.5-7.5,19.7-17.6c0,0,0-0.5,0-1
		C199.8,233.6,199.7,233.1,199.7,233.1z M179.7,243.5h-15.1c-0.8,0-1.3-0.5-1.3-1.3v-16.3c0-0.8,0.5-1.3,1.4-1.3h15.1
		c6.8,0,10,4.1,10.2,8.6c0,0,0,0.9,0,1.1c0,0.3,0,0.9,0,0.9C189.6,239.5,186.5,243.5,179.7,243.5z M244.9,229.2
		c0-0.8-0.7-1.5-1.5-1.5l-5.9,0c-0.8,0-1.5,0.7-1.5,1.5v3.5h-0.2c-2.3-3.4-7-6-13.1-6c-13.4,0-21.9,11.4-21.9,21.3
		c0,10.5,7.9,21.3,21.4,21.3c5.6,0,10.8-2.3,13.6-6h0.2v3.4c0,0.8,0.7,1.5,1.5,1.5l5.9,0c0.8,0,1.5-0.7,1.5-1.5L244.9,229.2
		L244.9,229.2z M223.4,261.1c-7.2,0-13.1-5.9-13.1-13.1c0-7.3,6-13.1,13.1-13.1c7,0,13,5.9,13,13.1
		C236.3,255.3,230.4,261.1,223.4,261.1z M289,229.1c0-0.8-0.7-1.5-1.5-1.5l-5.8,0c-0.8,0-1.5,0.7-1.5,1.5l0,21.4
		c0,6.3-3.3,10.4-10.2,10.4c-5.5,0-9.7-2.8-9.7-9.6v-22.3c0-0.8-0.7-1.5-1.5-1.5h-5.9c-0.8,0-1.5,0.7-1.5,1.5V251
		c0,11.4,7.5,18.1,16.7,18.1c5.7,0,8.9-1.7,12.4-5.5h0.2v2.2c0,7.1-5.1,10.6-11,10.6c-4,0-6.4-1.2-8.8-3c-1.1-0.8-1.9-0.5-2.6-0.1
		c-0.3,0.2-3.9,2.3-4.8,2.9c-0.7,0.4-0.8,1.3-0.2,1.8c4.3,3.6,9.3,6.6,16.9,6.6c7.7,0,18.8-5.4,18.8-17.8L289,229.1L289,229.1z
		 M308.4,262.7c-0.7-0.5-1.1-1-1.6-1.4c-1.7-1.4-2.4-3.2-2.4-7.1v-37.3c0-0.8-0.7-1.5-1.5-1.5h-5.9c-0.8,0-1.5,0.7-1.5,1.5v38.9
		c0,4.6,1.3,7.6,3.9,10.1c0.2,0.2,0.7,0.6,0.7,0.6c0.7,0.6,1.3,1.1,2.1,1.7c0.5,0.4,1,0.8,1,0.8c0.6,0.5,1.6,0.4,2.1-0.2l3.4-4.1
		C309.1,264.1,309,263.2,308.4,262.7z M354,248.6c-1-15.6-12.3-22-20.9-22c-13.4,0-21.7,10.7-21.7,21.4c0,10.7,8.2,21.3,22.3,21.3
		c5.9-0.1,11.4-2.5,15.9-6.7c0.1-0.1,0.6-0.6,1-0.9c0.3-0.3,0.7-0.8,0.7-0.8c0.5-0.7,0.4-1.4-0.3-1.8l-4.6-2.6
		c-1-0.5-1.9-0.3-2.4,0.3c0,0-0.5,0.5-0.5,0.6c-2.7,2.7-6.1,4.2-9.9,4.2c-5.8,0-11.3-4-12.2-9.7c0-0.3,0-0.5,0.1-0.7
		c0.2-0.3,0.7-0.2,0.7-0.2l30.5,0c0.8,0,1.5-0.7,1.5-1.5C354,249.5,354,248.9,354,248.6z M344.2,243.5c-0.1,0.3-0.5,0.3-0.5,0.3H322
		c0,0-0.4,0-0.6-0.2c-0.2-0.2-0.1-0.5,0-0.6c1.6-5.5,6.4-8.6,11.6-8.6c5.2,0,9.5,3.1,11.3,8.6C344.3,243.2,344.3,243.3,344.2,243.5z
		 M382.3,244.8l-9-1.7c-3.4-0.6-5.4-1.8-5.4-4.3c0-3.3,3.8-5.1,7.6-5.1c2.2,0,5,0.6,8.2,2.4v0c0.3,0.2,1.8,1.1,1.8,1.1
		c0.7,0.4,1.7,0.2,2.2-0.4l3.1-3.6c0.5-0.6,0.4-1.5-0.3-1.9c0,0-0.1-0.1-0.3-0.2c-5-3.2-9.7-4.6-14.9-4.6
		c-10.4,0-16.3,6.4-16.3,13.3c0,5.8,3.3,9.5,14.9,11.6l5.1,0.9c3.3,0.6,5.4,2,5.4,4.7c0,2.3-3.1,5.1-8.2,5.1
		c-3.7,0-7.8-1.7-10.9-4.1l-1-0.8c-0.7-0.5-1.7-0.4-2.3,0.1l-3.8,3.8c-0.6,0.6-0.5,1.4,0.2,1.9l0.8,0.6c5.1,3.7,10.5,5.6,16.7,5.6
		c12.6,0,17.6-7.7,17.6-13.7C393.3,249.6,389.7,246.2,382.3,244.8z M421.5,244.8l-9-1.7c-3.4-0.6-5.4-1.8-5.4-4.3
		c0-3.3,3.8-5.1,7.6-5.1c2.2,0,5,0.6,8.2,2.4v0c0.3,0.2,1.8,1.1,1.8,1.1c0.7,0.4,1.7,0.2,2.2-0.4l3.1-3.6c0.5-0.6,0.4-1.5-0.3-1.9
		c0,0-0.1-0.1-0.3-0.2c-5-3.2-9.7-4.6-14.9-4.6c-10.4,0-16.3,6.4-16.3,13.3c0,5.8,3.3,9.5,14.9,11.6l5.1,0.9c3.3,0.6,5.4,2,5.4,4.7
		c0,2.3-3.1,5.1-8.2,5.1c-3.7,0-7.8-1.7-10.9-4.1l-1-0.8c-0.7-0.5-1.7-0.4-2.3,0.1l-3.8,3.8c-0.6,0.6-0.5,1.4,0.2,1.9l0.9,0.6
		c5.1,3.7,10.5,5.6,16.7,5.6c12.6,0,17.6-7.7,17.6-13.7C432.5,249.6,428.9,246.2,421.5,244.8z"/>
	<path id="XMLID_29_" class="st2" d="M103.2,212.2c-5.7,0.2-11,1.8-15.7,4.4c3.4-1.8,7.2-2.8,11.3-2.8c5.3,0,10.2,1.7,14.1,4.5
		c11.5,3,20.2,13.2,20.8,25.6c0.7,15.3-11.2,28.2-26.5,28.9c-3.6,0.2-7.1-0.4-10.3-1.5c-1-0.3-2.3-0.9-3-1.2c-0.7-0.3-2-1-2.4-1.2
		c-0.7-0.2-1.7-0.6-2.8,0.2c-0.5,0.3-1.1,1-1.1,1l-5.8,6.1c0.3,0.2,0.8,0.7,1.1,0.9c1.8,1.4,4,2.8,6.1,3.7
		c5.2,2.6,11.2,3.9,17.4,3.6c20-0.9,35.4-17.7,34.6-37.7C140.1,226.9,123.2,211.4,103.2,212.2z"/>
	<path id="XMLID_32_" class="st1" d="M98.8,213.8c-4.8,0-9.3,1.4-13.1,3.9c-10.2,6.4-17.1,17.7-17.1,30.7c0,8.6,3,16.4,8,22.6
		c0.8,1,1.4,1.7,2.2,2.5c0,0,5.1-5.3,5.8-6c1-1,1.6-1.9,0.4-4c-0.3-0.6-0.8-1.3-1.2-1.8c-1.8-2.5-2.9-5.2-3.6-8.3
		c4.4,5.4,11.2,8.8,18.7,8.8c13.4,0,24.2-10.9,24.2-24.2C123,224.6,112.2,213.8,98.8,213.8z M98.8,251.6c-7.5,0-13.6-6.1-13.6-13.6
		c0-7.5,6.1-13.6,13.6-13.6c7.5,0,13.6,6.1,13.6,13.6C112.3,245.5,106.3,251.6,98.8,251.6z"/>
</g>
</svg>
