<?xml version="1.0" encoding="UTF-8" standalone="no"?>
<!-- Created with Inkscape (http://www.inkscape.org/) -->

<svg
   xmlns:dc="http://purl.org/dc/elements/1.1/"
   xmlns:cc="http://creativecommons.org/ns#"
   xmlns:rdf="http://www.w3.org/1999/02/22-rdf-syntax-ns#"
   xmlns:svg="http://www.w3.org/2000/svg"
   xmlns="http://www.w3.org/2000/svg"
   xmlns:sodipodi="http://sodipodi.sourceforge.net/DTD/sodipodi-0.dtd"
   xmlns:inkscape="http://www.inkscape.org/namespaces/inkscape"
   width="210mm"
   height="297mm"
   viewBox="0 0 210 297"
   version="1.1"
   id="svg8"
   inkscape:version="0.92.5 (2060ec1f9f, 2020-04-08)"
   sodipodi:docname="appStore.svg">
  <defs
     id="defs2" />
  <sodipodi:namedview
     id="base"
     pagecolor="#ffffff"
     bordercolor="#666666"
     borderopacity="1.0"
     inkscape:pageopacity="0.0"
     inkscape:pageshadow="2"
     inkscape:zoom="0.35"
     inkscape:cx="10.958647"
     inkscape:cy="176.97597"
     inkscape:document-units="mm"
     inkscape:current-layer="layer1"
     showgrid="false"
     inkscape:window-width="1366"
     inkscape:window-height="722"
     inkscape:window-x="0"
     inkscape:window-y="21"
     inkscape:window-maximized="1"
     showguides="true"
     inkscape:guide-bbox="true">
    <sodipodi:guide
       position="-151.19047,202.59524"
       orientation="0,1"
       id="guide815"
       inkscape:locked="false" />
  </sodipodi:namedview>
  <metadata
     id="metadata5">
    <rdf:RDF>
      <cc:Work
         rdf:about="">
        <dc:format>image/svg+xml</dc:format>
        <dc:type
           rdf:resource="http://purl.org/dc/dcmitype/StillImage" />
        <dc:title />
      </cc:Work>
    </rdf:RDF>
  </metadata>
  <g
     inkscape:label="Layer 1"
     inkscape:groupmode="layer"
     id="layer1">
    <rect
       style="opacity:1;fill:#000000;fill-opacity:1;stroke:none;stroke-width:2.57005501;stroke-miterlimit:4;stroke-dasharray:none;stroke-dashoffset:85.79000092;stroke-opacity:1"
       id="rect817"
       width="316.79187"
       height="352.81473"
       x="-46.985332"
       y="-1.6011914" />
    <circle
       style="opacity:0.099;fill:#ffffff;fill-opacity:1;stroke:none;stroke-width:1.74170327;stroke-miterlimit:4;stroke-dasharray:none;stroke-dashoffset:324.2456665;stroke-opacity:1"
       id="path842"
       cx="101.47112"
       cy="148.10052"
       r="31.8578" />
    <path
       id="path829"
       d="m 95.429585,150.11929 11.008955,-19.88375 c 0.15051,-0.27238 0.303,-0.54404 0.43919,-0.82587 0.12327,-0.25604 0.22809,-0.5141 0.29617,-0.79321 0.1443,-0.58694 0.10623,-1.19915 -0.11911,-1.75961 -0.22269,-0.55767 -0.61557,-1.02296 -1.11711,-1.32506 a 2.5537489,2.5537489 0 0 0 -1.65935,-0.34659 c -0.57741,0.0775 -1.10525,0.34863 -1.52102,0.77251 -0.19746,0.20154 -0.35951,0.42555 -0.51,0.66456 -0.16546,0.26353 -0.31525,0.53657 -0.46643,0.80927 l -0.69616,1.25731 -0.6963,-1.25731 c -0.1505,-0.27305 -0.30029,-0.5461 -0.465742,-0.80927 -0.150501,-0.23969 -0.313222,-0.4637 -0.510688,-0.66456 -0.415356,-0.42422 -0.942791,-0.6949 -1.520551,-0.77285 a 2.5548297,2.5548297 0 0 0 -1.659239,0.34729 c -0.501838,0.30231 -0.894331,0.76745 -1.117517,1.32502 -0.224713,0.56043 -0.263513,1.17248 -0.119199,1.75963 0.06873,0.27918 0.173651,0.53724 0.296875,0.7932 0.135577,0.2819 0.288034,0.55292 0.439202,0.82589 l 2.248378,4.06132 -8.760168,15.8224 H 83.21667 c -0.301632,0 -0.603969,-0.002 -0.905472,0.0142 -0.27442,0.0142 -0.541329,0.0544 -0.807089,0.12864 -0.559711,0.1635 -1.048882,0.5039 -1.402207,0.98727 -0.351355,0.48003 -0.541326,1.06821 -0.541326,1.67171 0,0.60397 0.190663,1.19128 0.541326,1.67137 0.3534,0.48345 0.842289,0.82424 1.402001,0.98725 0.266227,0.0776 0.533168,0.11244 0.807295,0.12864 0.301642,0.0204 0.603287,0.0142 0.905472,0.0142 h 23.59606 c 0.034,-0.0613 0.10622,-0.23286 0.18046,-0.48618 0.7477,-2.5494 -1.10903,-5.12191 -3.66565,-5.12191 z m -10.261109,6.52609 -1.427269,2.70379 c -0.147131,0.27984 -0.296202,0.55834 -0.429644,0.84767 -0.120453,0.26282 -0.223345,0.52772 -0.290077,0.81429 -0.141614,0.6026 -0.103551,1.23125 0.116353,1.80683 0.21858,0.57195 0.602604,1.05029 1.093561,1.36004 0.490933,0.3098 1.061335,0.43511 1.623764,0.35544 0.565154,-0.0791 1.081833,-0.35748 1.48861,-0.79306 0.193389,-0.20699 0.352054,-0.43647 0.4998,-0.68228 0.162769,-0.27102 0.309132,-0.55086 0.456899,-0.83086 l 2.069833,-3.92152 c -0.161359,-0.26829 -1.706648,-2.64902 -5.201168,-1.66068 m 37.087642,-5.41483 a 2.6495934,2.6495934 0 0 0 -1.40344,-0.97414 c -0.26624,-0.0763 -0.53384,-0.11096 -0.80769,-0.12737 -0.30233,-0.0204 -0.60398,-0.0142 -0.90619,-0.0142 h -5.9827 l -7.90733,-14.08297 c -1.19894,1.26201 -1.73531,2.67533 -1.94088,3.95912 -0.29822,1.86164 0.0681,3.77146 0.98365,5.40551 l 9.50175,16.92285 c 0.15124,0.26894 0.30097,0.5386 0.46712,0.79896 0.15052,0.23629 0.31321,0.45692 0.51068,0.65573 0.41605,0.41878 0.94369,0.68622 1.52218,0.76243 0.57538,0.0763 1.15846,-0.0409 1.66056,-0.34181 0.50181,-0.29756 0.89499,-0.75738 1.11872,-1.30743 0.22472,-0.55358 0.26285,-1.15747 0.11852,-1.73689 -0.0689,-0.27574 -0.17364,-0.53043 -0.29756,-0.78299 -0.13556,-0.27779 -0.28801,-0.54607 -0.43919,-0.81504 l -2.19069,-3.90257 h 2.87528 c 0.30233,0 0.60398,0.002 0.90601,-0.0141 0.27443,-0.0142 0.54202,-0.0475 0.80764,-0.12666 a 2.6495934,2.6495934 0 0 0 1.40345,-0.97411 2.771921,2.771921 0 0 0 0.54201,-1.64992 2.7726416,2.7726416 0 0 0 -0.54201,-1.64987 z"
       inkscape:connector-curvature="0"
       style="fill:#0080dc;fill-opacity:1;stroke:none;stroke-width:1.80158639;stroke-opacity:1" />
  </g>
</svg>
