<?xml version="1.0" encoding="UTF-8" standalone="no"?>
<!-- Created with Inkscape (http://www.inkscape.org/) -->

<svg
   xmlns:dc="http://purl.org/dc/elements/1.1/"
   xmlns:cc="http://creativecommons.org/ns#"
   xmlns:rdf="http://www.w3.org/1999/02/22-rdf-syntax-ns#"
   xmlns:svg="http://www.w3.org/2000/svg"
   xmlns="http://www.w3.org/2000/svg"
   xmlns:sodipodi="http://sodipodi.sourceforge.net/DTD/sodipodi-0.dtd"
   xmlns:inkscape="http://www.inkscape.org/namespaces/inkscape"
   width="210mm"
   height="297mm"
   viewBox="0 0 210 297"
   version="1.1"
   id="svg921"
   inkscape:version="0.92.5 (2060ec1f9f, 2020-04-08)"
   sodipodi:docname="googlePlayLogo.svg">
  <defs
     id="defs915" />
  <sodipodi:namedview
     id="base"
     pagecolor="#ffffff"
     bordercolor="#666666"
     borderopacity="1.0"
     inkscape:pageopacity="0.0"
     inkscape:pageshadow="2"
     inkscape:zoom="0.35"
     inkscape:cx="-177.50992"
     inkscape:cy="507.16786"
     inkscape:document-units="mm"
     inkscape:current-layer="layer1"
     showgrid="false"
     inkscape:window-width="1366"
     inkscape:window-height="722"
     inkscape:window-x="0"
     inkscape:window-y="21"
     inkscape:window-maximized="1"
     showguides="true"
     inkscape:guide-bbox="true" />
  <metadata
     id="metadata918">
    <rdf:RDF>
      <cc:Work
         rdf:about="">
        <dc:format>image/svg+xml</dc:format>
        <dc:type
           rdf:resource="http://purl.org/dc/dcmitype/StillImage" />
        <dc:title />
      </cc:Work>
    </rdf:RDF>
  </metadata>
  <g
     inkscape:label="Layer 1"
     inkscape:groupmode="layer"
     id="layer1">
    <rect
       style="opacity:1;fill:#000000;fill-opacity:1;stroke:none;stroke-width:2.58088565;stroke-miterlimit:4;stroke-dasharray:none;stroke-dashoffset:85.79000092;stroke-opacity:1"
       id="rect817"
       width="291.53583"
       height="386.61752"
       x="-39.536259"
       y="-46.347012" />
    <circle
       style="opacity:0.14299999;fill:#ffffff;fill-opacity:0.65789473;stroke:none;stroke-width:1.86908424;stroke-miterlimit:4;stroke-dasharray:none;stroke-dashoffset:324.2456665;stroke-opacity:1"
       id="path842"
       cx="99.380226"
       cy="148.38286"
       r="34.18774" />
    <path
       id="path1478-3"
       style="fill:#fb3846;fill-opacity:1;stroke-width:1.85847974"
       d="m 123.25346,145.5473 c 0.0138,0.0297 0.0239,0.0613 0.0386,0.0906 0.0333,0.0683 0.17201,0.24789 0.13705,0.18061 -0.0446,-0.0865 -0.10151,-0.16477 -0.15293,-0.24764 -0.007,-0.009 -0.0153,-0.0153 -0.0228,-0.0236 z m -14.51483,3.38895 -15.608904,16.61029 c -0.05359,0.0555 -0.100005,0.11487 -0.156938,0.16879 -0.0018,0.002 -0.0051,0.004 -0.0085,0.007 l -2.011679,2.14089 c 5.488099,-3.1501 15.440201,-8.80732 15.440201,-8.80732 l 7.82964,-4.46038 z"
       inkscape:connector-curvature="0" />
    <path
       id="path1478-6"
       style="fill:#02cbff;fill-opacity:1;stroke-width:1.85847974"
       d="m 85.675555,125.59484 c -0.05623,0.1726 -0.112394,0.34396 -0.112394,0.57223 v 43.17042 c 0,0.40318 0.113224,0.63203 0.342364,0.86032 L 107.12025,147.7232 Z m 9.960619,7.15183 c -0.01722,0.004 -0.03494,0.009 -0.05326,0.0108 l 0.09187,0.0956 c -0.01374,-0.0359 -0.0256,-0.0718 -0.03858,-0.10739 z"
       inkscape:connector-curvature="0" />
    <path
       id="path1478-7"
       style="fill:#fec901;fill-opacity:1;stroke-width:1.85847974"
       d="m 115.75307,141.24082 -5.94722,6.29842 5.88409,6.11789 c 0.92179,-0.51277 8.12288,-4.6319 9.15068,-5.20429 1.08529,-0.62798 0.97555,-1.48642 0.0563,-1.94361 -0.85301,-0.4741 -8.05465,-4.59933 -9.14377,-5.26841 z"
       inkscape:connector-curvature="0" />
    <path
       id="path1478"
       style="fill:#10ed7b;fill-opacity:1;stroke-width:1.85847938"
       d="m 88.961978,125.73184 19.568112,20.25183 5.5437,-5.88799 -7.91546,-4.51761 c 0,0 -12.903243,-7.3819 -17.196352,-9.84623 z m 19.568112,20.25183 -0.002,0.002 h 0.004 z"
       inkscape:connector-curvature="0" />
  </g>
</svg>
