<?xml version="1.0" encoding="UTF-8" standalone="no"?>
<svg
   xmlns:dc="http://purl.org/dc/elements/1.1/"
   xmlns:cc="http://creativecommons.org/ns#"
   xmlns:rdf="http://www.w3.org/1999/02/22-rdf-syntax-ns#"
   xmlns:svg="http://www.w3.org/2000/svg"
   xmlns="http://www.w3.org/2000/svg"
   xmlns:xlink="http://www.w3.org/1999/xlink"
   xmlns:sodipodi="http://sodipodi.sourceforge.net/DTD/sodipodi-0.dtd"
   xmlns:inkscape="http://www.inkscape.org/namespaces/inkscape"
   height="600"
   width="1500"
   version="1.1"
   id="svg197"
   sodipodi:docname="contact.svg"
   inkscape:version="1.0.1 (3bc2e813f5, 2020-09-07)">
  <metadata
     id="metadata201">
    <rdf:RDF>
      <cc:Work
         rdf:about="">
        <dc:format>image/svg+xml</dc:format>
        <dc:type
           rdf:resource="http://purl.org/dc/dcmitype/StillImage" />
      </cc:Work>
    </rdf:RDF>
  </metadata>
  <sodipodi:namedview
     pagecolor="#ffffff"
     bordercolor="#666666"
     borderopacity="1"
     objecttolerance="10"
     gridtolerance="10"
     guidetolerance="10"
     inkscape:pageopacity="0"
     inkscape:pageshadow="2"
     inkscape:window-width="1366"
     inkscape:window-height="721"
     id="namedview199"
     showgrid="false"
     inkscape:zoom="0.38866667"
     inkscape:cx="734.36461"
     inkscape:cy="228.61681"
     inkscape:window-x="0"
     inkscape:window-y="21"
     inkscape:window-maximized="1"
     inkscape:current-layer="g192" />
  <style
     id="style2"><![CDATA[.B{fill:#445eea}.C{fill:#91a8f6}.D{fill:#6eacce}.E{fill:#93c7ea}.F{fill:#1b2a67}.G{fill:#86294e}.H{fill:#ffd2d4}.I{stroke-miterlimit:10}.J{fill:#ff8383}.K{fill:#d15e79}.L{fill:#e0eef7}.M{stroke:#445eea}.N{stroke-linejoin:round}.O{stroke-linecap:round}.P{stroke-width:2.251}]]></style>
  <g
     transform="matrix(1.333333 0 0 -1.333333 0 12)"
     id="g192">
    <path
       d="M 1108.886,-374.874 13.51,-437.805 22.06,37.225 h 1079.226 z"
       fill="#6b5a88"
       id="path4"
       style="fill:#d0566a;fill-opacity:1" />
    <path
       d="M1108.886-374.874l.613-24.79L13.51-437.805z"
       fill="#d5ddcb"
       id="path6" />
    <g
       opacity=".42"
       id="g190">
      <g
         class="C"
         id="g12">
        <path
           d="M496.296-162.014a1.59 1.59 0 0 1-1.585 1.586 1.59 1.59 0 0 1-1.587-1.586 1.59 1.59 0 0 1 1.587-1.586 1.59 1.59 0 0 1 1.585 1.586zm1.558 0a3.15 3.15 0 0 0-3.142-3.144 3.15 3.15 0 0 0-3.145 3.144 3.15 3.15 0 0 0 3.145 3.145 3.15 3.15 0 0 0 3.142-3.145m52.852 115.117H532.9a.78.78 0 0 1-.779-.779.78.78 0 0 1 .779-.778h17.807a.78.78 0 0 1 .779.778.78.78 0 0 1-.779.779m-23.475.002h-3.48a.78.78 0 0 1-.779-.778.78.78 0 0 1 .779-.779h3.48a.78.78 0 0 1 .779.779.78.78 0 0 1-.779.778m1.196-6.207a.78.78 0 0 0-.778-.779h-3.894a.78.78 0 0 0-.779.779.78.78 0 0 0 .779.779h3.894a.78.78 0 0 0 .778-.779zm7.8 0a.78.78 0 0 0-.779-.779h-3.895a.78.78 0 0 0-.779.779.78.78 0 0 0 .779.779h3.895a.78.78 0 0 0 .779-.779zm6.122 0a.78.78 0 0 0-.779-.779h-2.228a.78.78 0 0 0-.778.779.78.78 0 0 0 .778.779h2.228a.78.78 0 0 0 .779-.779M261.8-98.975a.78.78 0 0 1-.779-.779v-1.807a.78.78 0 0 1 .779-.778.78.78 0 0 1 .779.778v1.807a.78.78 0 0 1-.779.779m-2.038 1.813h-1.808a.78.78 0 0 1-.778-.779.78.78 0 0 1 .778-.779h1.808a.78.78 0 0 1 .778.779.78.78 0 0 1-.778.779m2.038 3.742a.78.78 0 0 1-.779-.778v-1.806a.78.78 0 0 1 .779-.779.78.78 0 0 1 .779.779v1.806a.78.78 0 0 1-.779.778m3.847-3.618h-1.808a.78.78 0 0 1-.778-.779.78.78 0 0 1 .778-.779h1.808a.78.78 0 0 1 .779.779.78.78 0 0 1-.779.779m192.1 48.568a.78.78 0 0 1-.779-.779v-1.807a.78.78 0 0 1 .779-.778.78.78 0 0 1 .778.778v1.807a.78.78 0 0 1-.778.779m-2.04 1.814H453.9a.78.78 0 0 1-.779-.779.78.78 0 0 1 .779-.778h1.806a.78.78 0 0 1 .779.778.78.78 0 0 1-.779.779m2.04 3.743a.78.78 0 0 1-.779-.779v-1.806a.78.78 0 0 1 .779-.778.78.78 0 0 1 .778.778v1.806a.78.78 0 0 1-.778.779m3.847-3.62h-1.808a.78.78 0 0 1-.779-.778.78.78 0 0 1 .779-.779h1.808a.78.78 0 0 1 .778.779.78.78 0 0 1-.778.778"
           id="path8" />
        <path
           d="M385.118-9.775H367.3a.78.78 0 0 1-.778-.779.78.78 0 0 1 .778-.778h17.807a.78.78 0 0 1 .779.778.78.78 0 0 1-.779.779m-23.473.003h-3.48a.78.78 0 0 1-.78-.779.78.78 0 0 1 .78-.778h3.48a.78.78 0 0 1 .779.778.78.78 0 0 1-.779.779m1.196-6.208a.78.78 0 0 0-.778-.778h-3.895a.78.78 0 0 0-.779.778.78.78 0 0 0 .779.779h3.895a.78.78 0 0 0 .778-.779zm7.8 0a.78.78 0 0 0-.779-.778h-3.895a.78.78 0 0 0-.779.778.78.78 0 0 0 .779.779h3.895a.78.78 0 0 0 .779-.779zm6.122 0a.78.78 0 0 0-.779-.778h-2.227a.78.78 0 0 0-.779.778.78.78 0 0 0 .779.779h2.227a.78.78 0 0 0 .779-.779m199.773-75.4a2.751 2.751 0 1 1 2.752 2.75 2.75 2.75 0 0 1-2.751-2.751M215.912-226.17h17.807a.78.78 0 0 1 .779.778.78.78 0 0 1-.779.779h-17.807a.78.78 0 0 1-.779-.779.78.78 0 0 1 .779-.778m-9.147-.003h3.48a.78.78 0 0 1 .778.778.78.78 0 0 1-.778.779h-3.48a.78.78 0 0 1-.778-.779.78.78 0 0 1 .778-.778m345.617-12.667s1.064-7.588-7.8-7.412c0 0 7.614-.078 7.414-7.198 0 0 .685 5.6 7.67 6.852 0 0-5.904-1.355-7.284 7.758M594.7-131.808s1.063-7.588-7.8-7.413c0 0 7.614-.077 7.414-7.198 0 0 .685 5.6 7.672 6.852 0 0-5.904-1.354-7.284 7.76M313.574-29.073s1.064-7.588-7.8-7.412c0 0 7.614-.078 7.414-7.2 0 0 .685 5.6 7.672 6.853 0 0-5.904-1.355-7.286 7.758m-76.3-20.956s1.064-7.588-7.8-7.412c0 0 7.614-.078 7.414-7.198 0 0 .684 5.6 7.67 6.852 0 0-5.904-1.355-7.285 7.758m46.248 32.433s.37-2.644-2.718-2.584c0 0 2.654-.027 2.583-2.5 0 0 .24 1.952 2.674 2.4 0 0-2.058-.472-2.54 2.704m138.8-91.183s.37-2.644-2.718-2.584c0 0 2.654-.027 2.583-2.5 0 0 .24 1.953 2.674 2.4 0 0-2.058-.472-2.54 2.704m-257.174-45.227s.37-2.644-2.718-2.584c0 0 2.654-.027 2.583-2.5 0 0 .24 1.953 2.673 2.4 0 0-2.057-.47-2.538 2.704M395.932-225.3s.37-2.644-2.718-2.584c0 0 2.653-.027 2.582-2.5 0 0 .24 1.954 2.674 2.4 0 0-2.058-.472-2.538 2.704m-122.31 49.443a2.83 2.83 0 0 1-2.825-2.824 2.83 2.83 0 0 1 2.825-2.824h17.3a2.83 2.83 0 0 1 2.825 2.824 2.83 2.83 0 0 1-2.825 2.824h-1.995l-.08.5c-.3 1.9-2.093 3.2-4.093 2.733l-.437-.105-.22.392a5.03 5.03 0 0 1-9.408-2.441 5.08 5.08 0 0 1 .022-.434l.055-.645zm17.3-6.835h-17.3a4.02 4.02 0 0 0-4.012 4.01 4.02 4.02 0 0 0 3.884 4.009 6.22 6.22 0 0 0 11.408 3.283c2.33.333 4.4-1.132 5-3.282h1a4.02 4.02 0 0 0 4.012-4.012c0-2.212-1.8-4-4.012-4M582.08-29.5a2.83 2.83 0 0 1-2.824-2.825 2.83 2.83 0 0 1 2.824-2.823h17.3a2.83 2.83 0 0 1 2.825 2.823 2.83 2.83 0 0 1-2.825 2.825h-1.995l-.08.5c-.3 1.9-2.094 3.208-4.092 2.732l-.437-.104-.22.392a5.03 5.03 0 0 1-9.409-2.442c0-.147.01-.3.023-.434l.055-.644zm17.3-6.836h-17.3a4.02 4.02 0 0 0-4.012 4.011 4.02 4.02 0 0 0 3.884 4.01 6.22 6.22 0 0 0 6.208 6.103c2.103 0 4.058-1.07 5.2-2.82 2.33.333 4.4-1.133 5-3.282h1a4.02 4.02 0 0 0 4.012-4.012 4.02 4.02 0 0 0-4.012-4.011M314.355-73.645a2.83 2.83 0 0 1-2.824-2.824 2.83 2.83 0 0 1 2.824-2.824h17.3a2.83 2.83 0 0 1 2.824 2.824 2.83 2.83 0 0 1-2.824 2.824h-1.995l-.08.5c-.3 1.9-2.094 3.208-4.092 2.732l-.437-.104-.22.392a5.03 5.03 0 0 1-9.409-2.441 4.77 4.77 0 0 1 .023-.434l.055-.645zm17.3-6.835h-17.3a4.02 4.02 0 0 0-4.01 4.01c0 2.17 1.73 3.942 3.883 4a6.22 6.22 0 0 0 6.208 6.103c2.104 0 4.058-1.07 5.2-2.82 2.33.332 4.4-1.134 5-3.283h1a4.02 4.02 0 0 0 4.012-4.011c0-2.212-1.8-4-4.012-4"
           id="path10" />
      </g>
      <g
         class="E"
         id="g18">
        <path
           d="M385.8-302.134h0c-7.426-2.1-15.15 2.215-17.25 9.64l-11.088 39.186c-2.1 7.426 2.215 15.15 9.642 17.25h0c7.426 2.1 15.15-2.215 17.25-9.642l11.088-39.186a13.98 13.98 0 0 0-9.642-17.25"
           id="path14" />
        <path
           d="M369.974-301.804h0c-5.5 5.404-5.596 14.252-.192 19.762l28.516 29.075c5.404 5.5 14.25 5.596 19.762.192h0c5.5-5.404 5.596-14.252.192-19.762l-28.516-29.075c-5.404-5.5-14.25-5.596-19.762-.192"
           id="path16" />
      </g>
      <g
         class="J"
         id="g28">
        <path
           d="M426.72-245.967c3.75-5.628 2.224-13.23-3.405-16.977s-13.23-2.224-16.977 3.404-2.224 13.23 3.404 16.978 13.23 2.224 16.978-3.405"
           id="path20" />
        <path
           d="M408.327-250.987h0a3.19 3.19 0 0 0-3.885 2.294l-1.086 4.214a3.19 3.19 0 0 0 2.294 3.885h0a3.19 3.19 0 0 0 3.886-2.294l1.085-4.213a3.19 3.19 0 0 0-2.294-3.886"
           id="path22" />
        <path
           d="M420.6-236.48l-4.338-10.983c-.673-1.702-2.597-2.536-4.298-1.864h0c-1.702.672-2.536 2.597-1.864 4.298l4.34 10.983c.672 1.7 2.596 2.536 4.298 1.863h0c1.7-.672 2.535-2.596 1.863-4.297m7.644-2.302l-5.24-10.583c-.812-1.64-2.8-2.3-4.438-1.5h0c-1.64.812-2.3 2.8-1.5 4.44l5.24 10.583c.812 1.64 2.798 2.3 4.437 1.5h0c1.64-.812 2.3-2.8 1.5-4.438"
           id="path24" />
        <path
           d="M433.942-244.675l-7.316-9.27c-1.134-1.436-3.216-1.68-4.652-.548h0a3.31 3.31 0 0 0-.548 4.652l7.316 9.27a3.31 3.31 0 0 0 4.652.548h0a3.31 3.31 0 0 0 .548-4.652m-78.394 22.358l-4.75.187a5.79 5.79 0 0 0-5.554 6.008l.994 25.25 16.312-.64-.993-25.25c-.126-3.193-2.815-5.68-6.008-5.553"
           id="path26" />
      </g>
      <path
         d="M362.548-190.628l-16.312.64-.253-6.407c-.247-6.28 4.864-11.79 11.13-11.333.4.028.78.077 1.172.147 1.308.234 2.528.698 3.648 1.334l.614 15.618"
         class="K"
         id="path30" />
      <g
         class="F"
         id="g38">
        <path
           d="M370.74-165.64c4.214-7.66-.663-17.497-10.894-21.966s-21.94-1.884-26.153 5.778.664 17.496 10.894 21.966 21.94 1.884 26.153-5.778"
           id="path32" />
        <path
           d="M382.048-167.95c2.797-6.014-2.637-13.133-12.134-15.9s-19.464-.138-22.26 5.877 2.638 13.133 12.136 15.9 19.464.138 22.26-5.876"
           id="path34" />
        <path
           d="M366.47-152.94c5.626-3.5 4.964-12.44-1.48-19.948s-16.23-10.745-21.856-7.235-4.964 12.44 1.48 19.948 16.23 10.747 21.856 7.235"
           id="path36" />
      </g>
      <path
         d="M371.998-186.583c1.606-8.998-3.103-17.367-10.518-18.7h0c-7.413-1.323-14.725 4.9-16.33 13.9l-1.263 7.08c-1.607 8.998 3.102 17.367 10.515 18.7h0c7.415 1.323 14.728-4.9 16.333-13.9l1.264-7.08"
         class="J"
         id="path40" />
      <path
         d="M356.162-164.534c-4.1 3.712-11.238 1.916-15.94-4s-5.19-13.737-1.09-17.45 11.237-1.916 15.94 4.01 5.192 13.74 1.09 17.45"
         class="F"
         id="path42" />
      <path
         d="M358.867-184.583a.75.75 0 0 0-.615.32c-.23.34-.15.8.187 1.034.1.066 2.464 1.672 4.97.212.355-.208.476-.666.268-1.02a.74.74 0 0 0-1.019-.268c-1.68.98-3.304-.103-3.374-.148a.74.74 0 0 0-.42-.129m12.866-.004c-.146 0-.292.042-.42.13h0c-.07.046-1.694 1.127-3.374.148-.357-.2-.8-.088-1.02.268s-.087.813.268 1.02c2.5 1.468 4.872-.143 4.97-.212.338-.235.42-.7.186-1.038-.144-.207-.377-.318-.612-.318m-9.498-2.002c-.017-.43-.378-.764-.808-.747s-.764.378-.746.808.377.764.807.746a.78.78 0 0 0 .747-.807m7.47-.293a.78.78 0 0 0-.808-.747.78.78 0 0 0-.747.809.78.78 0 0 0 .808.747.78.78 0 0 0 .747-.809"
         class="G"
         id="path44" />
      <g
         class="H"
         id="g50">
        <path
           d="M371.5-181.092a5.04 5.04 0 0 1-3.443-1.351 5.05 5.05 0 0 1-1.63-3.533 5.04 5.04 0 0 1 1.347-3.65 5.05 5.05 0 0 1 3.532-1.63c1.37-.023 2.654.425 3.652 1.347s1.576 2.175 1.63 3.533a5.05 5.05 0 0 1-1.347 3.652 5.06 5.06 0 0 1-3.533 1.628l-.207.004zm.014-11.202l-.25.007a6.06 6.06 0 0 0-4.25 1.96 6.08 6.08 0 0 0 .339 8.644c1.2 1.1 2.75 1.695 4.394 1.62a6.07 6.07 0 0 0 5.872-6.352 6.07 6.07 0 0 0-1.96-4.25c-1.14-1.055-2.603-1.626-4.145-1.626m-13.167 12.338a5.66 5.66 0 0 1-3.868-1.515 5.67 5.67 0 0 1-1.829-3.968h0c-.123-3.145 2.334-5.802 5.48-5.927 1.507-.073 2.977.477 4.097 1.513a5.67 5.67 0 0 1 .32 8.065c-1.033 1.118-2.444 1.77-3.97 1.828l-.23.004zm.015-12.576l-.278.007a6.88 6.88 0 0 0-6.594 7.132 6.82 6.82 0 0 0 2.201 4.775c1.347 1.247 3.1 1.906 4.933 1.82a6.82 6.82 0 0 0 6.594-7.133c-.073-1.834-.855-3.53-2.202-4.774-1.28-1.183-2.923-1.826-4.653-1.826"
           id="path46" />
        <path
           d="M364.038-186.732l2.526-.1c.294-.012.54.218.553.51h0c.01.293-.218.54-.51.553l-2.528.1a.53.53 0 0 1-.552-.511h0a.53.53 0 0 1 .511-.553"
           id="path48" />
      </g>
      <path
         d="M369.098-190.314c-.072-.887-1.103-1.697-2.303-1.806s-2.113.52-2.04 1.407 1.102 1.697 2.302 1.808 2.113-.52 2.04-1.408m-.507-4.777c-.08-2.06-1.956-3.66-4.187-3.57s-3.52 2.3-3.44 4.358c2.62.234 5.164-.008 7.626-.787"
         class="G"
         id="path52" />
      <path
         d="M364.724-196.378c-1.764.205-2.852.81-2.955 2.135 2.2.117 4.348-.106 6.437-.715-.3-1.195-1.752-1.62-3.48-1.42"
         class="H"
         id="path54" />
      <path
         d="M359.5-199.483h0l-4.386.004c-1.77 0-3.467.653-4.78 1.84l-2.745 2.476a.53.53 0 1 0 .713.791l2.745-2.476c1.117-1.01 2.563-1.567 4.068-1.567l4.386-.004a.53.53 0 1 0 0-1.064"
         fill="#201028"
         id="path56" />
      <path
         d="M359.5-200.015h-.002l-1.778.002c-.588 0-1.064.478-1.064 1.068s.478 1.062 1.064 1.062h.001l1.78-.002c.588 0 1.065-.478 1.064-1.066s-.477-1.063-1.064-1.063"
         class="H"
         id="path58" />
      <path
         d="M354.135-189.993a8.92 8.92 0 0 0-9.26-8.56 8.92 8.92 0 0 0-8.56 9.26 8.92 8.92 0 0 0 9.26 8.56 8.92 8.92 0 0 0 8.56-9.26"
         class="B"
         id="path60" />
      <path
         d="M350.875-189.865c-.165-4.2-3.412-7.483-7.253-7.332s-6.82 3.68-6.655 7.88 3.413 7.484 7.253 7.332 6.82-3.678 6.654-7.88"
         class="C"
         id="path62" />
      <path
         d="M345.008-189.634c-.067-1.7-1.192-3.04-2.51-2.987s-2.336 1.474-2.27 3.176 1.19 3.04 2.51 2.987 2.336-1.474 2.27-3.176"
         class="L"
         id="path64" />
      <path
         d="M366.768-314.128l-42.653-1.202a12.89 12.89 0 0 0-12.369 13.382l2.695 71.38a8.87 8.87 0 0 0 6.172 8.104l31.8 10.125 25.418-12.182a8.87 8.87 0 0 0 5.029-8.348l-2.71-68.89c-.28-7.112-6.27-12.65-13.38-12.37"
         class="E"
         id="path66" />
      <path
         d="M382.86-232.87c.147-7.443.06-14.878-.06-22.3l-.628-22.286-1.12-22.268c-.1-1.803-.2-3.834-.88-5.68-.644-1.844-1.676-3.55-3.042-4.92-2.738-2.725-6.636-4.2-10.358-3.793 3.726.08 7.293 1.75 9.59 4.5a12.09 12.09 0 0 1 2.528 4.627c.522 1.695.507 3.433.525 5.33.1 7.434.363 14.86.63 22.287l1.125 22.267 1.7 22.245"
         class="D"
         id="path68" />
      <path
         d="M364.084-225.843l-23.02 1.484.883 13.684c.1 1.7 1.578 3 3.28 2.88l16.86-1.087a3.08 3.08 0 0 0 2.88-3.278l-.883-13.683m-68.58-67.363h0c-7.13 2.96-10.506 11.138-7.546 18.265l15.62 37.6c2.96 7.127 11.138 10.506 18.265 7.546h0c7.127-2.96 10.506-11.138 7.546-18.265l-15.62-37.6c-2.96-7.127-11.137-10.506-18.264-7.546"
         class="E"
         id="path70" />
      <path
         d="M321.843-229.784c2.496-.81 4.77-2.412 6.455-4.535 1.65-2.142 2.707-4.794 2.938-7.548.37-2.735-.5-5.652-1.516-8.006l-2.95-7.257-6.235-14.375-3.28-7.12-3.487-7.033 2.523 7.434 2.73 7.35c1.824 4.896 3.802 9.73 5.783 14.562l3.06 7.212c.522 1.232 1.062 2.32 1.322 3.5.29 1.18.46 2.404.422 3.633-.066 4.936-3.086 9.788-7.765 12.175"
         class="D"
         id="path72" />
      <path
         d="M354.052-263.34c-.9.06-1.697-.635-1.756-1.544l-.207-3.207a1.66 1.66 0 0 1 1.544-1.757l3.928-.253.42 6.508zm6.5-10.154l-7.116.46c-2.668.172-4.697 2.483-4.525 5.15l.207 3.207c.172 2.668 2.48 4.698 5.15 4.526l7.115-.46-.83-12.882"
         class="G"
         id="path74" />
      <path
         d="M367.463-283.73l-6.155.397c-3.737.24-6.572 3.467-6.33 7.204l1.276 19.785c.143 2.207 19.83.937 19.688-1.27l-1.276-19.785c-.24-3.737-3.467-6.572-7.204-6.33"
         class="K"
         id="path76" />
      <path
         d="M373.98-258.148c-.05-.796-3.707-1.206-8.165-.92s-8.03 1.165-7.98 1.96 3.707 1.206 8.165.92 8.03-1.166 7.98-1.96"
         class="G"
         id="path78" />
      <path
         d="M287.76-280.64h0c.12 7.717 6.476 13.874 14.193 13.752l40.72-.642c7.716-.12 13.873-6.477 13.75-14.193h0c-.122-7.717-6.477-13.873-14.193-13.752l-40.72.643c-7.717.12-13.874 6.476-13.752 14.192"
         class="E"
         id="path80" />
      <path
         d="M301.953-266.89c5.23.357 10.453.48 15.678.568 5.225.112 10.447.057 15.67.002l7.83-.18c2.56-.018 5.587-.367 7.95-1.796 2.435-1.31 4.446-3.334 5.756-5.7 1.276-2.392 1.84-5.117 1.587-7.73-.33 5.243-3.578 9.943-8.078 11.968-1.114.52-2.302.855-3.5 1.06-1.195.235-2.408.172-3.746.183l-7.834.068-15.66.496c-5.22.253-10.44.54-15.653 1.062"
         class="D"
         id="path82" />
      <g
         class="J"
         id="g88">
        <path
           d="M370.478-277.536c.627-6.733-4.324-12.7-11.057-13.326s-12.7 4.324-13.326 11.057 4.324 12.7 11.057 13.325 12.7-4.324 13.326-11.057"
           id="path84" />
        <path
           d="M351.954-272.803h0a2.93 2.93 0 0 0-1.809 3.725l1.305 3.773a2.93 2.93 0 0 0 3.725 1.809h0a2.93 2.93 0 0 0 1.81-3.724l-1.305-3.773a2.93 2.93 0 0 0-3.725-1.809m23.445-1.602l-10.867-1.012a3.06 3.06 0 0 0-3.33 2.765h0a3.06 3.06 0 0 0 2.765 3.33l10.866 1c1.683.156 3.175-1.08 3.332-2.765h0a3.06 3.06 0 0 0-2.765-3.33m-2.304-10l-10.9.703a3.06 3.06 0 0 0-2.858 3.251h0a3.06 3.06 0 0 0 3.251 2.858l10.9-.703a3.06 3.06 0 0 0 2.858-3.251h0a3.06 3.06 0 0 0-3.251-2.858"
           id="path86" />
      </g>
      <path
         d="M483.84-247.268c-.327 0-.654.126-.902.374-.5.498-.5 1.307 0 1.805l12.192 12.194c.495.5 1.305.5 1.804 0s.5-1.305 0-1.805l-12.192-12.194a1.27 1.27 0 0 0-.901-.374m-8.68 7.483a1.28 1.28 0 0 0-1.278 1.277v17.242c0 .705.572 1.276 1.278 1.276s1.276-.57 1.276-1.276v-17.242c0-.706-.572-1.277-1.276-1.277m33.406-16.165H491.32c-.705 0-1.277.57-1.277 1.277s.572 1.276 1.277 1.276h17.245c.705 0 1.276-.57 1.276-1.276s-.57-1.277-1.276-1.277"
         class="B"
         id="path90" />
      <g
         class="D"
         id="g96">
        <path
           d="M355.412-309.585h105.503c2.942 0 3.85 2.385 3.85 5.33h0H350.08a5.33 5.33 0 0 1 5.331-5.329"
           id="path92" />
        <path
           d="M349.292-304.256h37.398c0-2.944-2.71-5.33-6.052-5.33h-31.505c-3.447.05-3.288 5.328.16 5.328"
           id="path94" />
      </g>
      <path
         d="M389.023-305.807h75.74c2.248 0 4.183 1.602 4.6 3.8l10.21 43.806c.55 2.885-1.664 5.558-4.6 5.558h-75.74c-2.252 0-4.183-1.6-4.603-3.8l-10.208-43.805c-.547-2.885 1.664-5.558 4.6-5.558"
         class="L"
         id="path98" />
      <path
         d="M394.63-256.444c.227 1.215.922 2.244 1.868 2.926 1.416-1.022 2.227-2.797 1.868-4.674l-10.206-43.806c-.23-1.215-.92-2.24-1.867-2.924-1.415 1.02-2.227 2.8-1.87 4.672l10.208 43.805"
         class="D"
         id="path100" />
      <path
         d="M442.266-284.808h-12.42c-2.548 0-4.613 2.065-4.613 4.613h0c0 2.548 2.065 4.613 4.613 4.613h12.42c2.548 0 4.613-2.065 4.613-4.613h0c0-2.548-2.065-4.613-4.613-4.613"
         fill="#fff"
         id="path102" />
      <g
         class="D"
         id="g110">
        <use
           xlink:href="#B"
           id="use104" />
        <use
           xlink:href="#B"
           x="7.277"
           id="use106" />
        <path
           d="M375.134-305.725h-3.726a1.33 1.33 0 0 0-1.331 1.331h0a1.33 1.33 0 0 0 1.331 1.33h3.726a1.33 1.33 0 0 0 1.331-1.33h0a1.33 1.33 0 0 0-1.331-1.331m7.276 0h-3.727a1.33 1.33 0 0 0-1.33 1.331h0a1.33 1.33 0 0 0 1.33 1.33h3.727a1.33 1.33 0 0 0 1.33-1.33h0a1.33 1.33 0 0 0-1.33-1.331"
           id="path108" />
      </g>
      <path
         d="M521.23-315.684H202.534c-1.765 0-3.194 1.43-3.194 3.193h0c0 1.764 1.43 3.194 3.194 3.194H521.23c1.764 0 3.193-1.43 3.193-3.194h0c0-1.764-1.43-3.193-3.193-3.193"
         class="F"
         id="path112" />
      <path
         d="M250.238-289.658s-2.345 17.623-6.592 21.955"
         fill="none"
         stroke="#1b2a67"
         stroke-width=".674"
         class="I O"
         id="path114" />
      <g
         class="H"
         id="g126">
        <path
           d="M244.332-257.217c1.135-3.755.904-7.147-.517-7.577s-3.493 2.268-4.627 6.023l-.033.113c-.962 3.346 4.09 4.872 5.143 1.554l.034-.112"
           id="path116" />
        <path
           d="M251.072-265.61c-3.756-1.135-7.15-.904-7.578.517s2.268 3.493 6.023 4.627l.112.033c3.346.962 4.873-4.09 1.554-5.143l-.112-.034"
           id="path118" />
        <path
           d="M238.223-269.492c3.757 1.135 6.453 3.206 6.023 4.627s-3.822 1.652-7.577.517l-.112-.034c-3.32-1.052-1.792-6.105 1.554-5.143l.112.033"
           id="path120" />
        <path
           d="M244.545-273.76c1.056 3.778.753 7.165-.677 7.565s-3.445-2.34-4.5-6.12l-.03-.114c-.9-3.365 4.193-4.785 5.175-1.445l.033.113"
           id="path122" />
        <path
           d="M248.17-272.666c-2.97 2.562-4.595 5.55-3.625 6.674s4.163-.042 7.135-2.603l.088-.077c2.606-2.308-.84-6.306-3.508-4.07l-.1.076"
           id="path124" />
      </g>
      <path
         d="M245.584-265.287a1.84 1.84 0 0 0-1.227-2.29 1.84 1.84 0 0 0-2.29 1.228c-.293.972.255 1.997 1.227 2.3a1.84 1.84 0 0 0 2.29-1.228"
         class="K"
         id="path128" />
      <g
         class="B"
         id="g134">
        <path
           d="M243.312-278.33c4.88-3.845 7.657-8.457 6.203-10.303s-6.59-.226-11.47 3.62-6.2 10.303-6.2 10.303 6.588.226 11.467-3.62"
           id="path130" />
        <path
           d="M260.45-284.15c-5.15-4.836-10.81-7.178-12.64-5.23s.862 7.45 6.013 12.287 12.64 5.23 12.64 5.23-.862-7.45-6.013-12.287"
           id="path132" />
      </g>
      <g
         class="F"
         id="g140">
        <path
           d="M256.663-310.362H239.8l-2.95 21.202h22.75l-2.95-21.202"
           id="path136" />
        <path
           d="M260.494-294.596H235.98a1.2 1.2 0 0 0-1.197 1.198v5.488c0 .662.536 1.197 1.197 1.197h24.514c.662 0 1.197-.535 1.197-1.197v-5.488c0-.66-.536-1.198-1.197-1.198"
           id="path138" />
      </g>
      <path
         d="M299.652-130.68l8.357-8.963 63.7 26.57z"
         class="B"
         id="path142" />
      <path
         d="M302.624-101.106l-6.292-9.492 4.254-9.302-9.543-1.623-8.433-18.513 91.143 27.58-71.13 11.35"
         class="C"
         id="path144" />
      <g
         class="B"
         id="g150">
        <path
           d="M300.586-119.9l-4.254 9.302 49.368-2.308zm-85.054-27.43a1.28 1.28 0 0 0-1.272 1.196l-.2 6.53v.518l.06 3.338a1.27 1.27 0 0 0 1.276 1.235h.042a1.28 1.28 0 0 0 1.236-1.318l-.06-3.26v-.514l.196-6.367c.045-.705-.5-1.312-1.194-1.356l-.084-.002zm4.076-20.046a1.28 1.28 0 0 0-1.195.828c-1.25 3.312-2.215 6.7-2.872 10.068a1.28 1.28 0 0 0 1.008 1.5 1.27 1.27 0 0 0 1.5-1.009 60.01 60.01 0 0 1 2.755-9.656 1.28 1.28 0 0 0-1.196-1.73zm10.118-17.77a1.28 1.28 0 0 0-.999.48 68.23 68.23 0 0 0-5.865 8.657 1.28 1.28 0 0 0 .478 1.743c.614.343 1.394.133 1.743-.478a65.48 65.48 0 0 1 5.644-8.328 1.28 1.28 0 0 0-.204-1.796 1.27 1.27 0 0 0-.797-.276zm15.056-13.834a1.27 1.27 0 0 0-.707.214 67.82 67.82 0 0 0-8.22 6.457c-.52.476-.553 1.285-.075 1.805a1.28 1.28 0 0 0 1.805.075 65.33 65.33 0 0 1 7.908-6.211 1.28 1.28 0 0 0 .354-1.772c-.245-.368-.65-.567-1.064-.567zm18.502-8.716a1.23 1.23 0 0 0-.374.06 74.18 74.18 0 0 0-9.738 3.742 1.28 1.28 0 0 0-.614 1.699 1.28 1.28 0 0 0 1.7.614c2.992-1.404 6.155-2.62 9.4-3.614.673-.206 1.054-.92.846-1.595a1.28 1.28 0 0 0-1.221-.905zm20.16-3.687c-.037 0-.075 0-.112.004-3.518.302-6.98.753-10.3 1.34a1.28 1.28 0 0 0-1.034 1.483c.126.692.8 1.135 1.483 1.033a112.19 112.19 0 0 1 10.06-1.31c.703-.06 1.223-.678 1.163-1.382-.056-.666-.616-1.167-1.27-1.167zm12.34-.503l-2.104.01a1.28 1.28 0 0 0-1.263 1.292c.007.705.618 1.346 1.3 1.262 3.3-.037 6.592.015 10.196.166h.055c.68 0 1.248-.536 1.276-1.223a1.28 1.28 0 0 0-1.223-1.331 196.84 196.84 0 0 0-8.229-.178"
           id="path146" />
        <path
           d="M164.482-56.867a1.28 1.28 0 0 0-1.225.917c-.2.678.187 1.387.863 1.586 3.22.95 6.6 1.56 10.043 1.816l.385.012c.63-.03 1.3-.547 1.302-1.252a1.28 1.28 0 0 0-1.252-1.302l-.28-.01c-3.23-.24-6.43-.816-9.476-1.714a1.31 1.31 0 0 0-.362-.054zm29.6-3.257a1.27 1.27 0 0 0-.699.209c-2.708 1.776-5.72 3.08-8.954 3.876a1.28 1.28 0 0 0-.936 1.547 1.29 1.29 0 0 0 1.547.937c3.515-.867 6.794-2.288 9.744-4.222a1.28 1.28 0 0 0 .368-1.77c-.245-.374-.653-.576-1.07-.576zm-46.634-7.596c-.27 0-.543.083-.774.26a1.28 1.28 0 0 0-.244 1.79c2.05 2.693 4.74 5.072 8 7.068a1.28 1.28 0 0 0 1.757-.422 1.28 1.28 0 0 0-.422-1.757c-3-1.83-5.445-3.996-7.3-6.436-.252-.33-.632-.503-1.016-.503zm59.555-8.008a1.28 1.28 0 0 0-1.152.726c-1.527 3.185-3.3 6.03-5.242 8.455a1.28 1.28 0 0 0 .195 1.796c.543.44 1.347.36 1.796-.196 2.074-2.576 3.943-5.6 5.555-8.95a1.28 1.28 0 0 0-1.153-1.832zm-62.726-11.458a1.28 1.28 0 0 0-1.232.937c-.158.574-.306 1.153-.445 1.737a24.73 24.73 0 0 0-.682 5.662 21.75 21.75 0 0 0 .245 3.277 1.28 1.28 0 0 0 1.454 1.071c.698-.104 1.176-.756 1.07-1.453-.143-.946-.217-1.92-.217-2.895 0-1.638.208-3.346.616-5.073a44.33 44.33 0 0 1 .419-1.643c.2-.682-.2-1.385-.9-1.572-.115-.03-.228-.047-.34-.047zm68.65-8.162a1.28 1.28 0 0 0-1.258 1.06c-.593 3.475-1.35 6.795-2.256 9.873-.2.677.187 1.387.865 1.585.68.207 1.387-.187 1.585-.866.934-3.17 1.716-6.6 2.327-10.16a1.28 1.28 0 0 0-1.043-1.477c-.075-.012-.146-.016-.22-.016zM154.072-105c-.346 0-.693.14-.944.416a44.44 44.44 0 0 0-6.14 8.566 1.28 1.28 0 0 0 .506 1.736 1.29 1.29 0 0 0 1.737-.505c1.58-2.884 3.528-5.6 5.786-8.074a1.28 1.28 0 0 0-.944-2.138zm60.498-10.834c-.706 0-1.277.572-1.277 1.276v.454a124.89 124.89 0 0 1-.384 9.73 1.28 1.28 0 0 0 1.175 1.374c.677.063 1.316-.47 1.374-1.175a128.19 128.19 0 0 0 .389-9.929v-.454c0-.704-.57-1.276-1.276-1.276zm-43.98-1.14a1.26 1.26 0 0 0-.558.129c-3.272 1.586-6.305 3.374-9.018 5.315-.575.412-.708 1.208-.298 1.782s1.206.7 1.783.298c2.598-1.857 5.508-3.572 8.648-5.094a1.28 1.28 0 0 0 .593-1.708c-.22-.456-.676-.72-1.15-.72zm19.405-6.563a1.26 1.26 0 0 0-.28.031 109.07 109.07 0 0 0-7.156 1.857l-2.86.9c-.67.22-1.033.944-.8 1.614s.945 1.04 1.615.8l2.784-.875a107.33 107.33 0 0 1 6.984-1.812 1.28 1.28 0 0 0-.276-2.526zm71.527-1.3c-.638 0-1.192.478-1.267 1.13-.082.7.42 1.335 1.12 1.416l10.15 1.32a1.27 1.27 0 0 0 1.445-1.084c.1-.7-.386-1.345-1.083-1.444l-10.215-1.327a1.08 1.08 0 0 0-.15-.01zM210.3-126.48c-.033 0-.066 0-.102.002-3.555.277-7.015.655-10.285 1.123-.7.1-1.183.747-1.083 1.445s.76 1.17 1.446 1.083a157.76 157.76 0 0 1 10.122-1.102 1.28 1.28 0 0 0 1.175-1.374c-.052-.67-.613-1.177-1.273-1.177zm30.77-.162c-.672 0-1.235.526-1.272 1.206-.04.703.5 1.307 1.204 1.346l10.2.74a1.28 1.28 0 0 0 1.385-1.16c.063-.703-.457-1.323-1.16-1.385a318.02 318.02 0 0 0-10.282-.745c-.023-.002-.047-.002-.073-.002zm-14.795-.43l-5.758.07c-.706.016-1.263.603-1.245 1.3s.587 1.244 1.277 1.244h.033c3.298-.083 6.698-.1 10.206-.027.795.042 1.3-.548 1.302-1.252a1.28 1.28 0 0 0-1.252-1.302l-4.564-.044m245.614 61.518h68.3a15.46 15.46 0 0 0 15.456-15.457v-35.223a15.46 15.46 0 0 0-15.456-15.456H495.52l-16.062-14.173v14.173h-7.572a15.46 15.46 0 0 0-15.457 15.456v35.223a15.46 15.46 0 0 0 15.457 15.457"
           id="path148" />
      </g>
      <g
         class="C"
         id="g156">
        <path
           d="M481.822-87.364h48.423c1.07 0 1.937.867 1.937 1.937a1.94 1.94 0 0 1-1.937 1.937h-48.423a1.94 1.94 0 0 1-1.937-1.937 1.94 1.94 0 0 1 1.937-1.937m0-12.912h48.423a1.94 1.94 0 0 1 1.937 1.937 1.94 1.94 0 0 1-1.937 1.938h-48.423a1.94 1.94 0 0 1-1.937-1.938 1.94 1.94 0 0 1 1.937-1.937m41.32-12.914h7.102a1.94 1.94 0 0 1 1.937 1.938 1.94 1.94 0 0 1-1.937 1.937h-7.102a1.94 1.94 0 0 1-1.937-1.937 1.94 1.94 0 0 1 1.937-1.938m-16.14 0h7.102a1.94 1.94 0 0 1 1.937 1.938 1.94 1.94 0 0 1-1.937 1.937h-7.102a1.94 1.94 0 0 1-1.937-1.937 1.94 1.94 0 0 1 1.937-1.938"
           id="path152" />
        <path
           d="M481.822-113.2h16.142a1.94 1.94 0 0 1 1.937 1.938 1.94 1.94 0 0 1-1.937 1.937h-16.142a1.94 1.94 0 0 1-1.937-1.937 1.94 1.94 0 0 1 1.937-1.938m-18.572-22.716h-52.274a9.31 9.31 0 0 1-9.308-9.308v-30.144c0-4.9 3.805-8.924 8.627-9.274l-10.78-17.664 28.4 17.63h35.326a9.31 9.31 0 0 1 9.308 9.309v30.144a9.31 9.31 0 0 1-9.308 9.308"
           id="path154" />
      </g>
      <path
         d="M443.302-152.972a6.19 6.19 0 0 0-6.189-6.189 6.19 6.19 0 0 0-6.189 6.189 6.19 6.19 0 0 0 6.189 6.189 6.19 6.19 0 0 0 6.189-6.189"
         class="B"
         id="path158" />
      <path
         d="M443.302-152.972a6.19 6.19 0 0 0-6.189-6.189 6.19 6.19 0 0 0-6.189 6.189 6.19 6.19 0 0 0 6.189 6.189 6.19 6.19 0 0 0 6.189-6.189z"
         fill="none"
         class="I M N P"
         id="path160" />
      <path
         d="M451.74-173.79h-29.256a9.38 9.38 0 0 0 9.377 9.377h10.5a9.38 9.38 0 0 0 9.377-9.377h0"
         class="B"
         id="path162" />
      <path
         d="M451.74-173.79h-29.256a9.38 9.38 0 0 0 9.377 9.377h10.5a9.38 9.38 0 0 0 9.377-9.377z"
         fill="none"
         class="I M N P"
         id="path164" />
      <path
         d="M389.743-41.325c-.474 0-.93.267-1.15.724-.308.636-.042 1.4.594 1.704a25.26 25.26 0 0 0 8.597 2.4c.68.064 1.325-.452 1.4-1.154a1.28 1.28 0 0 0-1.154-1.391 22.57 22.57 0 0 1-7.724-2.144 1.26 1.26 0 0 0-.555-.129zm24.263-2.036a1.27 1.27 0 0 0-.738.235 22.46 22.46 0 0 1-7.253 3.41 1.28 1.28 0 0 0-.907 1.563 1.28 1.28 0 0 0 1.564.906 25.01 25.01 0 0 0 8.076-3.797 1.28 1.28 0 0 0 .302-1.782c-.25-.352-.643-.537-1.044-.537zm-35.83-9.975c-.17 0-.346.035-.512.108a1.28 1.28 0 0 0-.659 1.682 25.05 25.05 0 0 0 4.961 7.416 1.27 1.27 0 0 0 1.805.033c.5-.5.523-1.298.033-1.805a22.58 22.58 0 0 1-4.458-6.667 1.28 1.28 0 0 0-1.171-.767zm45.237-3.802a1.28 1.28 0 0 0-1.24.97 22.49 22.49 0 0 1-3.282 7.316 1.28 1.28 0 0 0 .333 1.776c.58.403 1.377.25 1.775-.333a25.04 25.04 0 0 0 3.652-8.143c.17-.686-.248-1.38-.932-1.548-.104-.026-.208-.04-.307-.04zm-46.17-12.85a1.28 1.28 0 0 0-1.22.903c-.74 2.4-1.115 4.905-1.117 7.444l.04 1.414c.04.705.68 1.23 1.348 1.202.703-.04 1.243-.643 1.2-1.348l-.036-1.266c.002-2.285.342-4.538 1.005-6.694a1.28 1.28 0 0 0-.844-1.597c-.125-.04-.252-.06-.377-.06zm45.38-1.268c-.148 0-.298.028-.445.08a1.28 1.28 0 0 0-.752 1.643 22.62 22.62 0 0 1 1.412 7.894c0 .704.57 1.276 1.277 1.276a1.28 1.28 0 0 0 1.276-1.276 25.14 25.14 0 0 0-1.571-8.784 1.28 1.28 0 0 0-1.197-.834zM387.395-83.21a1.26 1.26 0 0 0-.678.196 25.31 25.31 0 0 0-6.596 6.006 1.28 1.28 0 0 0 .233 1.792 1.28 1.28 0 0 0 1.792-.233 22.81 22.81 0 0 1 5.931-5.402c.6-.377.778-1.164.402-1.76a1.28 1.28 0 0 0-1.083-.597zm24.35-.686a1.28 1.28 0 0 0-.622 2.398 22.7 22.7 0 0 1 6.224 5.06 1.28 1.28 0 0 0 1.801.134c.534-.46.594-1.267.133-1.8-1.965-2.28-4.294-4.176-6.918-5.63-.2-.108-.4-.16-.618-.16zm-11.598-2.984c-1.73 0-3.465.177-5.15.524a1.28 1.28 0 0 0-.994 1.51c.143.695.835 1.12 1.5.994 2.625-.543 5.392-.616 8.02-.223.7.097 1.347-.38 1.453-1.075a1.28 1.28 0 0 0-1.076-1.454 25.77 25.77 0 0 0-3.763-.276m.013 37.376c-9.25 0-16.747-4.957-16.747-11.072v-.03c.007-1.596 1.267-2.7 2.444-2.188l4.397 1.875c1.058.452 1.57 1.992 1.096 3.3l-.54 1.474s8.078-1.44 18.643 0l-.546-1.893c-.345-1.197.103-2.533 1.017-3.032l4.348-2.373c1.057-.578 2.3.197 2.534 1.64a7.42 7.42 0 0 1 .104 1.236c0 6.116-7.498 11.072-16.747 11.072"
         class="B"
         id="path166" />
      <path
         d="M411.75-73.775H388.54l3.44 10.777c.645 2.02 2.522 3.392 4.643 3.392h7.048c2.12 0 3.997-1.372 4.643-3.392l3.44-10.777"
         class="C"
         id="path168" />
      <path
         d="M539.35-172.587c-.474 0-.93.266-1.15.723-.307.636-.04 1.4.595 1.705 2.705 1.307 5.6 2.11 8.6 2.387a1.27 1.27 0 0 0 1.391-1.154 1.28 1.28 0 0 0-1.154-1.391c-2.695-.25-5.294-.97-7.725-2.142a1.25 1.25 0 0 0-.554-.129zm24.262-2.044c-.255 0-.514.074-.738.235a22.41 22.41 0 0 1-7.253 3.412 1.28 1.28 0 0 0-.906 1.564c.183.68.878 1.08 1.564.907 2.903-.777 5.62-2.055 8.077-3.8a1.28 1.28 0 0 0 .301-1.782 1.27 1.27 0 0 0-1.043-.536zm-35.832-9.97a1.28 1.28 0 0 0-1.17 1.791c1.204 2.753 2.874 5.248 4.964 7.415.487.516 1.298.524 1.805.033s.524-1.298.033-1.805c-1.877-1.948-3.38-4.192-4.46-6.666a1.28 1.28 0 0 0-1.171-.768zm45.24-3.804c-.574 0-1.096.4-1.24.972-.65 2.62-1.756 5.08-3.282 7.314a1.28 1.28 0 0 0 .333 1.776c.583.403 1.377.25 1.776-.333 1.7-2.485 2.93-5.226 3.652-8.14.17-.685-.248-1.38-.932-1.548a1.23 1.23 0 0 0-.307-.04zm-46.174-12.846a1.28 1.28 0 0 0-1.221.902c-.74 2.402-1.114 4.905-1.114 7.442l.04 1.412c.04.705.736 1.242 1.346 1.205.704-.04 1.243-.642 1.203-1.346l-.035-1.27c0-2.28.337-4.533 1.003-6.69a1.28 1.28 0 0 0-.844-1.597 1.24 1.24 0 0 0-.377-.059zm45.38-1.272a1.28 1.28 0 0 0-.444.082c-.66.245-.998.98-.752 1.642.935 2.52 1.41 5.177 1.41 7.894 0 .705.572 1.276 1.278 1.276s1.276-.57 1.276-1.276c0-3.022-.528-5.978-1.57-8.784a1.28 1.28 0 0 0-1.198-.833zM537-214.476a1.27 1.27 0 0 0-.678.196 25.36 25.36 0 0 0-6.594 6.006 1.28 1.28 0 0 0 .233 1.793c.56.428 1.362.324 1.792-.234 1.65-2.145 3.645-3.963 5.93-5.402.598-.376.778-1.164.4-1.76a1.28 1.28 0 0 0-1.083-.597zm24.35-.69a1.28 1.28 0 0 0-1.119.66c-.343.617-.12 1.395.496 1.736 2.363 1.3 4.457 3.013 6.225 5.063.46.535 1.267.595 1.8.134s.594-1.267.133-1.8c-1.963-2.28-4.292-4.173-6.918-5.63-.198-.11-.41-.162-.617-.162zm-11.596-2.982c-1.74 0-3.472.177-5.157.527a1.28 1.28 0 0 0-.992 1.511c.146.69.832 1.126 1.513.993 2.618-.548 5.4-.618 8.018-.223.7.096 1.347-.377 1.453-1.075a1.28 1.28 0 0 0-1.075-1.453 25.87 25.87 0 0 0-3.76-.279"
         class="B"
         id="path170" />
      <path
         d="M564.408-205.207h-29.7v16.848h29.7v-16.848"
         class="C"
         id="path172" />
      <path
         d="M560.334-187.024v2.06a2.75 2.75 0 0 0 2.748 2.748h0a2.75 2.75 0 0 0 2.748-2.748v-3.418h-5.496"
         class="B"
         id="path174" />
      <path
         d="M560.388-184.922v-17.512h-20.256v17.512a2.75 2.75 0 0 0 2.748 2.748h20.027l-.557-.116a2.75 2.75 0 0 1-1.963-2.632"
         class="L"
         id="path176" />
      <path
         d="M541.392-185.026v-4.61h4.49v4.61h-4.49"
         class="B"
         id="path178" />
      <path
         d="M547.26-185h11.418m-11.418-1.552h11.418m-11.418-1.554h11.418m-11.312-1.554h11.418m-17.392-1.53h17.285m-17.285-1.552h17.285m-17.285-1.518h17.285m-17.285-1.554h8.4"
         fill="none"
         stroke-width=".536"
         class="I M N O"
         id="path180" />
      <g
         class="B"
         id="g188">
        <path
           d="M557.11-205.207h-22.41v16.848z"
           id="path182" />
        <path
           d="M541.996-205.207h22.41v16.848z"
           id="path184" />
        <path
           d="M564.408-205.207h-29.7l13.344 7.126a2.65 2.65 0 0 0 3.023 0l13.344-7.126"
           id="path186" />
      </g>
    </g>
  </g>
  <defs
     id="defs195">
    <path
       id="B"
       d="M360.583-305.725h-3.727a1.33 1.33 0 0 0-1.331 1.331h0a1.33 1.33 0 0 0 1.331 1.33h3.727a1.33 1.33 0 0 0 1.331-1.33h0a1.33 1.33 0 0 0-1.331-1.331" />
  </defs>
</svg>
