<svg xmlns="http://www.w3.org/2000/svg" xmlns:xlink="http://www.w3.org/1999/xlink" width="1500" height="600" xmlns:v="https://vecta.io/nano"><style><![CDATA[.B{fill:#406fbf}.C{fill:#17282f}.D{fill:#a4c3e9}.E{fill:#f47072}.F{fill:#ededeb}.G{fill:#f9acaf}.H{fill:#e2e2e0}.I{fill:#3563b7}.J{fill:#2d5bb2}.K{fill:#bdd5f0}.L{fill:#c75b5b}.M{fill:#7f9bcf}.N{fill:#f9f9f8}.O{fill:#c3888a}]]></style><g transform="matrix(1.333333 0 0 -1.333333 0 12)"><path d="M1108.886-374.874L13.51-437.805l8.55 475.03h1079.226z" fill="#434e5b"/><path d="M1108.886-374.874l.613-24.79L13.51-437.805z" fill="#d5ddcb"/><g opacity=".457"><path d="M140.407-279.116l396.37.198h-396.37zm330.398-12.76h26.257v.198h-26.257zm-74.718-2.15h6.9v.198h-6.9zm58.7 9.513h15.214v.198h-15.214zm-272.803-1.332h34.24v.198h-34.24zm41.3 0h5.02v.198h-5.02zm21.337-3.347h74.26v.198h-74.26z" fill="#e7e8e5"/><path d="M460.42-278.706v74.69h-61.834V-139h-8.72v-37.26h-23.782v10.306h-42.808v35.673h-7.927v43.6h-6.342v-42.807h-15.062v-63.42h-28.54v63.42h-51.528v-63.42H188.51v-85.79h271.9" fill="#dadbd8"/><path d="M225.768-278.706h63.42V-83.52h-63.42z" class="F"/><g class="H"><path d="M289.187-96.203v-1.585h-63.42v1.585h63.42"/><use xlink:href="#B"/><use xlink:href="#C"/><use xlink:href="#C" y="-12.684"/><use xlink:href="#B" y="-38.052"/><use xlink:href="#C" y="-38.051"/><use xlink:href="#C" y="-50.734"/><use xlink:href="#C" y="-63.419"/><use xlink:href="#C" y="-76.104"/><use xlink:href="#B" y="-101.471"/><use xlink:href="#C" y="-101.47"/><use xlink:href="#C" y="-114.144"/><use xlink:href="#B" y="-139.523"/><use xlink:href="#C" y="-139.522"/><use xlink:href="#B" y="-164.89"/><use xlink:href="#C" x="90.372" y="-71.346"/></g><path d="M316.14-278.706h63.42v136.525h-63.42z" class="F"/><g class="H"><path d="M379.56-154.865v-1.585h-63.42v1.585h63.42m0-12.685v-1.585h-63.42v1.585h63.42m0-12.683v-1.585h-63.42v1.585h63.42"/><use xlink:href="#B" x="90.372" y="-96.715"/><use xlink:href="#C" x="90.372" y="-96.714"/><use xlink:href="#C" x="90.372" y="-109.398"/><use xlink:href="#C" x="90.372" y="-122.081"/><use xlink:href="#C" x="90.372" y="-134.764"/><use xlink:href="#B" x="90.372" y="-160.134"/></g><path d="M407.305-278.706h63.42V-118.4h-63.42z" class="F"/><g class="H"><use xlink:href="#B" x="181.537" y="-22.198"/><use xlink:href="#C" x="181.537" y="-22.196"/><use xlink:href="#C" x="181.537" y="-34.88"/><use xlink:href="#C" x="181.537" y="-47.564"/><use xlink:href="#C" x="181.537" y="-60.248"/><use xlink:href="#B" x="181.537" y="-85.616"/><use xlink:href="#C" x="181.537" y="-85.614"/><use xlink:href="#C" x="181.537" y="-98.299"/><use xlink:href="#C" x="181.537" y="-110.984"/><use xlink:href="#C" x="181.537" y="-123.667"/><use xlink:href="#B" x="181.537" y="-149.036"/><use xlink:href="#C" x="181.537" y="-149.034"/></g><path d="M292.907-47.933c0-12.166-9.862-22.028-22.028-22.028s-22.03 9.862-22.03 22.028 9.862 22.03 22.03 22.03 22.028-9.862 22.028-22.03" fill="#fafaf9"/><path d="M259.45-47.685a3.83 3.83 0 0 1-3.829 3.83 3.82 3.82 0 0 1-1.1-.163 8.14 8.14 0 0 1 .086 1.176 8.11 8.11 0 0 1-8.109 8.109 8.17 8.17 0 0 1-1.494-.14c-1.246 2.04-3.487 3.406-6.052 3.406a7.11 7.11 0 0 1-7.1-6.99l-.118.006c-3.608 0-6.532-2.924-6.532-6.532s2.924-6.532 6.532-6.532l23.984.006c2.065.057 3.72 1.746 3.72 3.823m227.716-45.23a3.83 3.83 0 0 1-3.829 3.83c-.382 0-.752-.06-1.1-.163a8.21 8.21 0 0 1 .086 1.176 8.11 8.11 0 0 1-8.109 8.109 8.17 8.17 0 0 1-1.494-.14c-1.246 2.04-3.486 3.406-6.052 3.406-3.883 0-7.032-3.12-7.1-7l-.118.006c-3.608 0-6.532-2.924-6.532-6.53s2.924-6.532 6.532-6.532l23.984.006c2.064.057 3.72 1.745 3.72 3.823m-84.682 45.23a3.83 3.83 0 0 0 3.83 3.83 3.81 3.81 0 0 0 1.099-.163c-.055.384-.086.776-.086 1.176a8.11 8.11 0 0 0 8.109 8.109 8.17 8.17 0 0 0 1.494-.14c1.247 2.04 3.487 3.406 6.053 3.406 3.882 0 7.032-3.12 7.1-7l.118.006c3.608 0 6.532-2.924 6.532-6.532s-2.924-6.532-6.532-6.532H406.19l.004.006c-2.064.057-3.72 1.746-3.72 3.823m-94.975-11.47a2.38 2.38 0 0 1-3.064 2.28 5.05 5.05 0 0 1 .054.731c0 2.784-2.258 5.04-5.042 5.04a5.12 5.12 0 0 1-.928-.086c-.775 1.268-2.168 2.117-3.763 2.117a4.41 4.41 0 0 1-4.408-4.345l-.074.004a4.061 4.061 0 1 1 0-8.122l14.9.003a2.38 2.38 0 0 1 2.313 2.377m71.677-49.997a2.38 2.38 0 0 0 2.381 2.381 2.37 2.37 0 0 0 .683-.101 5.05 5.05 0 0 0-.053.731 5.04 5.04 0 0 0 5.041 5.041 5.05 5.05 0 0 0 .929-.086c.775 1.268 2.167 2.117 3.762 2.117a4.41 4.41 0 0 0 4.408-4.345l.074.004a4.06 4.06 0 1 0-.001-8.121h-14.915l.003.003a2.38 2.38 0 0 0-2.313 2.377" class="F"/><path d="M405.91-71.245s.627 2.117-2.86 3.96c0 0-.785-.627-3.528-1.215s1.842-4.82 4.508-5.017 1.88 2.273 1.88 2.273" class="H"/><path d="M405.322-71.4s.653 3.395 6.508 4.232l8.207 1.163s.613-6.233-7.54-7.278l7.54.706s-.68-2.078-3.74-2.98l-4 .824s-6.923-1.788-10.036 1.176c-1.207 1.15-3.064.98-3.064.98s.36.55 1.026.746c0 0-.357.943.274 1.372 2.078 1.41 3.47-1.566 4.822-.94" class="F"/><path d="M362-55.045s.355 1.198-1.62 2.24c0 0-.443-.355-1.996-.688s1.042-2.728 2.55-2.84S362-55.045 362-55.045" class="H"/><path d="M361.67-55.133s.37 1.922 3.68 2.395l4.645.658s.347-3.527-4.267-4.118l4.267.4s-.385-1.176-2.115-1.685l-2.263.466s-3.918-1.012-5.678.665c-.683.65-1.735.554-1.735.554s.204.31.58.422c0 0-.202.534.155.777 1.176.798 1.964-.886 2.73-.532" class="F"/><path d="M331.982-76.547s.25.84-1.136 1.572c0 0-.312-.25-1.4-.482s.732-1.914 1.8-1.992.747.902.747.902" class="H"/><path d="M331.75-76.61s.26 1.348 2.583 1.68l3.258.46s.243-2.474-2.993-2.9l2.993.28s-.27-.824-1.484-1.183l-1.587.327s-2.748-.7-3.984.467c-.48.457-1.216.388-1.216.388s.143.218.407.296c0 0-.142.374.11.545.825.56 1.378-.622 1.914-.373" class="F"/><path d="M492.296-305.744c0-4.958-68.815-8.976-153.704-8.976s-153.703 4.02-153.703 8.976 68.815 8.977 153.703 8.977 153.704-4.02 153.704-8.977" fill="#f3f2f1"/><g class="B"><path d="M331.79-108.33c-.202 0-.375.155-.394.36-.02.218.14.41.36.43l4.768.28a.4.4 0 0 0 .407-.386c.006-.22-.166-.4-.385-.407l-4.755-.28m15.037-.053l-.036.002-4.725.296c-.22.008-.39.19-.38.4s.21.396.4.382l4.767-.298c.218-.02.38-.212.36-.43-.018-.206-.19-.36-.395-.36m10.184-1.52l-.082.01-4.655.85c-.216.033-.365.235-.33.452s.235.367.452.33l4.7-.86c.214-.046.35-.257.305-.47-.04-.186-.205-.314-.388-.314m-35.357-.115a.4.4 0 0 0-.385.302c-.052.212.078.427.29.48l4.675.973c.216.036.42-.108.457-.323s-.107-.42-.323-.458l-4.62-.962-.094-.01m45.267-2.678l-.132.023-4.504 1.444c-.21.06-.332.28-.272.5s.28.33.5.272l4.552-1.46c.206-.074.314-.3.24-.507-.058-.162-.21-.263-.374-.263m-55.03-.537c-.155 0-.302.09-.366.243-.084.202.01.434.213.518l4.47 1.684c.207.07.432-.043.502-.25s-.042-.433-.25-.503l-4.417-1.663-.153-.03m64.47-3.57l-.183.044-4.262 2.048c-.2.09-.292.323-.203.523s.323.29.522.202l4.31-2.07c.194-.1.27-.34.168-.535-.07-.136-.208-.212-.35-.212m-73.626-1.115c-.133 0-.263.067-.338.19-.114.187-.055.43.132.545l4.16 2.35c.195.1.434.025.535-.17s.025-.434-.17-.535l-4.113-2.322-.207-.058m82.388-4.29c-.08 0-.16.025-.23.075l-3.924 2.637c-.186.116-.243.36-.127.546s.36.242.546.126l3.968-2.668c.178-.128.218-.376.1-.553-.078-.107-.198-.164-.322-.164m-90.762-1.69c-.114 0-.228.05-.306.143-.14.17-.116.42.053.558l3.78 2.924c.177.128.425.09.554-.09s.088-.425-.1-.553l-3.74-2.893c-.074-.06-.163-.1-.252-.1m98.645-4.935c-.1 0-.2.037-.277.113l-3.498 3.184c-.166.142-.186.392-.045.56s.392.187.56.045l3.538-3.222c.157-.152.16-.404.007-.56-.078-.08-.18-.12-.284-.12m-106.155-2.116a.39.39 0 0 0-.271.107c-.16.15-.167.4-.017.56l3.372 3.388c.16.15.41.143.56-.015s.143-.41-.015-.56l-3.34-3.356c-.078-.083-.184-.124-.29-.124m112.98-5.598c-.12 0-.238.054-.316.156l-3 3.663c-.144.164-.128.415.037.56s.415.128.56-.037l3.024-3.704c.132-.174.1-.423-.075-.556-.07-.055-.156-.08-.24-.08m-119.613-2.293c-.082 0-.166.026-.238.08-.175.132-.2.38-.078.555l2.966 3.747c.14.168.4.19.558.052s.19-.4.052-.558l-2.942-3.718c-.078-.103-.197-.158-.317-.158m-5.79-8.537l-.206.058c-.187.114-.246.358-.132.545l2.58 4.023c.122.182.368.23.55.11s.23-.37.11-.55l-2.56-3.995c-.075-.122-.205-.19-.338-.19m-5-9.034l-.177.042c-.196.098-.276.335-.178.53l2.214 4.237c.105.192.346.262.537.157s.263-.346.158-.537l-2.2-4.21c-.07-.14-.2-.22-.355-.22m-4.218-9.426l-.147.028c-.204.082-.303.312-.222.515l1.857 4.41c.09.2.323.3.523.2s.3-.323.2-.523l-1.845-4.38c-.062-.155-.21-.25-.368-.25m-3.367-9.793l-.1.013c-.212.055-.338.272-.284.483l1.44 4.604c.07.208.296.32.503.246s.317-.296.247-.503l-1.42-4.547c-.047-.178-.208-.296-.383-.296"/><path d="M400.493-137.26l-.042.002-3.3.354c-.218.024-.375.22-.352.437a.39.39 0 0 0 .437.351l2.93-.314.5 2.83c.04.216.245.358.46.32s.36-.246.32-.46l-.576-3.194a.4.4 0 0 0-.4-.327m-100.663-48.145H181.35c-2.86 0-5.18-2.32-5.18-5.182v-94.375a5.18 5.18 0 0 1 5.18-5.18h118.457c2.862 0 5.182 2.32 5.182 5.18v94.375c0 2.862-2.32 5.182-5.182 5.182"/></g><path d="M299.807-290.144h-2.953v29.97l8.135-.827v-23.96a5.17 5.17 0 0 0-1.927-4.032l-.262-.198c-.845-.6-1.878-.95-2.993-.95m5.182 46.678l-8.135.827v39.986c0 2.75-2.1 5.194-4.667 5.456l-36.06 3.665h40.718c.935 0 1.776.38 2.386.99a3.38 3.38 0 0 1-2.386 5.771H282.18l.808 1.365h16.818c2.862 0 5.182-2.32 5.182-5.182v-52.878m-96.422 56.695h-18.97l-8.76.89c-.15.015-.3.022-.447.022-.835 0-1.606-.24-2.254-.667a5.16 5.16 0 0 0 3.216 1.119h27.302l-.086-1.365" class="J"/><path d="M300.224-190.148a3.38 3.38 0 0 0-.991-2.395c-.6-.6-1.45-.99-2.386-.99H185.062c-1.863 0-3.377 1.514-3.377 3.386 0 .935.38 1.776.99 2.385a3.37 3.37 0 0 0 2.386.991h111.784a3.38 3.38 0 0 0 3.377-3.376" class="C"/><path d="M309.875-137.155c0-13.972-11.327-25.3-25.3-25.3s-25.3 11.327-25.3 25.3 11.327 25.3 25.3 25.3 25.3-11.327 25.3-25.3" class="B"/><path d="M284.576-162.454l-.9.016c-1.06 2.242-2.442 4.303-4.083 6.124 1.592-.413 3.262-.633 4.984-.633 10.93 0 19.793 8.86 19.793 19.792s-8.862 19.794-19.793 19.794-19.793-8.862-19.793-19.794a19.7 19.7 0 0 1 4.154-12.133 25.24 25.24 0 0 1-7.241 1.321c-.7 1.46-1.245 2.993-1.65 4.588.488.934.732 2.033.8 3.218.134 2.36-.434 5.062-1.176 7.482 2.113 11.838 12.46 20.824 24.906 20.824 13.973 0 25.3-11.327 25.3-25.3 0-10.662-6.597-19.785-15.932-23.51-2.897-1.156-6.058-1.79-9.368-1.79m1.826 10.507h-3.148v3.43c-3.115.19-6.106 1.165-7.837 2.518l1.73 3.84c1.574-1.165 3.84-2.014 6.106-2.235v5.256c-3.494.85-7.396 2.014-7.396 6.516 0 3.337 2.423 6.2 7.396 6.767v3.494h3.148v-3.43c2.36-.19 4.657-.818 6.39-1.92l-1.574-3.87c-1.605.913-3.242 1.448-4.815 1.637v-5.35c3.493-.818 7.334-1.983 7.334-6.42 0-3.272-2.392-6.106-7.334-6.703v-3.525m0 12.023v-4.343c1.573.346 2.266 1.164 2.266 2.17 0 1.102-.912 1.7-2.266 2.172m-3.148 9.883c-1.668-.378-2.33-1.29-2.33-2.33 0-1.1.944-1.7 2.33-2.14v4.47" fill="#6d97d6"/><g class="K"><path d="M284.576-156.947c-1.722 0-3.392.22-4.984.633-2.863 3.176-6.52 5.622-10.655 7.027a19.7 19.7 0 0 0-4.154 12.133c0 10.932 8.86 19.794 19.793 19.794s19.793-8.862 19.793-19.794-8.862-19.792-19.793-19.792m-7.428 14.8l-1.73-3.84c1.73-1.353 4.722-2.33 7.837-2.518v-3.43h3.148v3.525c4.94.598 7.334 3.43 7.334 6.703 0 4.44-3.84 5.603-7.334 6.42v5.35c1.573-.2 3.2-.724 4.815-1.637l1.574 3.87c-1.73 1.102-4.03 1.73-6.4 1.92v3.43h-3.148v-3.494c-4.973-.567-7.396-3.43-7.396-6.767 0-4.5 3.903-5.666 7.396-6.516v-5.256c-2.266.22-4.532 1.07-6.106 2.235m9.252-2.106v4.343c1.353-.472 2.266-1.07 2.266-2.172 0-1.008-.693-1.826-2.266-2.17"/><use xlink:href="#D"/></g><path d="M286.097-173.255c0-4.97-1.435-9.608-3.916-13.516-1.65-2.615-3.78-4.906-6.255-6.762h-30.26c-2.473 1.856-4.598 4.147-6.255 6.762-2.48 3.908-3.916 8.547-3.916 13.516 0 13.976 11.328 25.305 25.304 25.305 13.968 0 25.296-11.33 25.296-25.305" class="B"/><path d="M275.926-193.533h-19.798l-2.503.254-.743 1.883a19.74 19.74 0 0 1 7.919-1.646 19.71 19.71 0 0 1 14.452 6.271c3.314 3.536 5.343 8.292 5.343 13.516a19.8 19.8 0 0 1-19.795 19.796c-8.152 0-15.152-4.928-18.187-11.967l-.313.793-1.258 7.2c4.638 5.788 11.764 9.494 19.758 9.494 13.968 0 25.296-11.33 25.296-25.305l-.008-.636c-.117-4.73-1.533-9.14-3.908-12.88h0c-1.65-2.615-3.78-4.906-6.255-6.762h0m-13.302 5.487h-3.147v3.432c-3.115.2-6.104 1.166-7.84 2.522l1.736 3.837c1.57-1.165 3.837-2.014 6.104-2.236v5.256c-3.496.85-7.396 2.014-7.396 6.517 0 3.337 2.426 6.198 7.396 6.77v3.487h3.147v-3.424c2.362-.2 4.66-.824 6.39-1.927l-1.578-3.868c-1.6.912-3.242 1.45-4.812 1.64v-5.35c3.496-.824 7.333-2 7.333-6.422 0-3.274-2.394-6.112-7.333-6.707v-3.527m0 12.025v-4.343c1.574.346 2.266 1.164 2.266 2.17 0 1.1-.912 1.7-2.266 2.17m-3.147 9.883c-1.67-.378-2.33-1.29-2.33-2.33 0-1.1.945-1.7 2.33-2.14v4.47" fill="#90b4e3"/><path d="M260.8-193.042a19.74 19.74 0 0 0-7.919 1.646l-.078.197-10.2 25.772c3.035 7.04 10.035 11.967 18.187 11.967a19.8 19.8 0 0 0 19.795-19.796 19.71 19.71 0 0 0-19.795-19.787m-7.428 14.785l-1.736-3.837c1.736-1.356 4.725-2.33 7.84-2.522v-3.432h3.147v3.527c4.94.595 7.333 3.433 7.333 6.707 0 4.432-3.837 5.598-7.333 6.422v5.35c1.57-.2 3.2-.73 4.812-1.64l1.578 3.868c-1.728 1.103-4.027 1.737-6.4 1.927v3.424h-3.147v-3.487c-4.97-.572-7.396-3.433-7.396-6.77 0-4.504 3.9-5.668 7.396-6.517v-5.256c-2.267.223-4.534 1.07-6.104 2.236m9.252-2.106v4.343c1.353-.472 2.266-1.07 2.266-2.17 0-1.008-.692-1.826-2.266-2.17m-3.147 9.753c-1.385.44-2.33 1.04-2.33 2.14 0 1.038.66 1.95 2.33 2.33v-4.47" fill="#cfe0f5"/><path d="M292.187-197.198l-111.35 11.318c-2.578.262-4.667-1.756-4.667-4.508v-94.775c0-2.75 2.09-5.194 4.667-5.457l111.35-11.317c2.577-.262 4.667 1.756 4.667 4.507v94.775c0 2.75-2.1 5.194-4.667 5.456" class="B"/><path d="M290.56-298.356c-.08.205-.31.3-.515.222-.555-.214-1.15-.3-1.784-.238l-1.982.207c-.222.015-.412-.143-.428-.357-.024-.223.135-.413.35-.436l1.982-.198c.166-.017.325-.024.49-.024.58 0 1.142.103 1.665.308.206.088.3.318.222.516m-9.053.673l-3.98.405a.39.39 0 0 1-.428-.357c-.024-.215.135-.413.35-.436l3.98-.405h.04c.206 0 .373.15.396.358.024.222-.135.412-.357.435m-8.752.888l-3.98.404c-.222.024-.412-.135-.428-.356-.024-.214.135-.413.35-.428l3.98-.405.04-.008c.206 0 .373.16.396.358.024.222-.135.41-.357.435m-8.752.89l-3.98.404c-.222.024-.412-.135-.428-.348a.39.39 0 0 1 .349-.436l3.98-.405.04-.007c.206 0 .373.16.396.357.024.222-.135.412-.357.436m-8.752.888l-3.98.403a.38.38 0 0 1-.428-.348c-.024-.222.135-.413.35-.437l3.98-.404h.04c.206 0 .373.15.396.358a.39.39 0 0 1-.357.428m37.64 4.614c-.222 0-.396-.182-.396-.396v-3.456l-.024-.508c-.024-.215.135-.413.35-.428l.04-.01c.206 0 .373.15.396.357.024.19.032.39.032.587v3.456c0 .214-.182.396-.396.396m-46.39-3.72l-3.98.404a.39.39 0 0 1-.428-.356c-.024-.222.135-.412.35-.437l3.98-.404h.04c.206 0 .373.15.396.357.024.213-.135.412-.357.435m-8.752.89l-3.98.403c-.222.025-.412-.135-.428-.357a.4.4 0 0 1 .349-.436l3.98-.403h.04c.206 0 .373.15.396.357.024.22-.135.412-.357.436m-8.752.888l-3.98.404c-.214.025-.412-.134-.428-.357-.024-.213.135-.41.35-.428l3.98-.404.04-.008c.206 0 .373.16.396.357.024.22-.135.412-.357.436m-8.752.888l-3.98.404c-.222.024-.412-.135-.428-.35-.024-.22.135-.41.35-.436l3.98-.403h.04c.206 0 .373.15.396.35.024.22-.135.412-.357.436m-8.752.888l-3.98.404c-.214.024-.412-.135-.428-.35-.024-.22.135-.41.35-.435l3.98-.404h.04c.206 0 .373.15.396.357.024.213-.134.412-.357.428m-8.752.896l-3.98.404c-.214.015-.412-.143-.428-.357-.024-.222.135-.412.348-.435l3.98-.404h.04c.206 0 .372.15.396.357a.4.4 0 0 1-.357.436m-8.752.888l-3.98.404c-.215.024-.413-.135-.43-.357a.4.4 0 0 1 .349-.436l3.98-.404h.04c.206 0 .373.15.396.356.024.223-.134.413-.356.437m-8.752.887l-3.98.405c-.214.023-.412-.135-.428-.357-.024-.215.135-.413.348-.428l3.98-.404.04-.01c.206 0 .373.16.396.357.024.223-.135.413-.357.436m-8.712.905l-.04.008c.072-.223.16-.436.262-.642l.095.167c.04.214-.103.428-.317.468m116.366 5.383c-.222 0-.396-.174-.396-.396v-3.996c0-.222.174-.396.396-.396.214 0 .396.175.396.396V-282c0 .222-.182.396-.396.396m0 8.798a.39.39 0 0 1-.396-.396v-4.002c0-.214.174-.396.396-.396.214 0 .396.182.396.396v4.002c0 .223-.182.396-.396.396m0 8.8c-.222 0-.396-.182-.396-.396v-4.004a.4.4 0 0 1 .396-.396c.214 0 .396.183.396.396v4.004c0 .214-.182.396-.396.396m0 8.79c-.222 0-.396-.175-.396-.396v-3.995c0-.222.174-.396.396-.396.214 0 .396.174.396.396v3.995a.4.4 0 0 1-.396.396m0 8.8a.39.39 0 0 1-.396-.396v-3.996c0-.222.174-.396.396-.396.214 0 .396.174.396.396v3.996c0 .223-.182.396-.396.396m0 8.8c-.222 0-.396-.182-.396-.396v-4.004a.4.4 0 0 1 .396-.396c.214 0 .396.183.396.396v4.004c0 .214-.182.396-.396.396m0 8.79c-.222 0-.396-.175-.396-.396v-3.995c0-.222.174-.396.396-.396.214 0 .396.174.396.396v3.995a.4.4 0 0 1-.396.396m0 8.8c-.222 0-.396-.174-.396-.397v-3.995c0-.223.174-.397.396-.397.214 0 .396.174.396.397v3.995c0 .223-.182.397-.396.397m0 8.8c-.222 0-.396-.182-.396-.396v-4.004a.4.4 0 0 1 .396-.396c.214 0 .396.183.396.396v4.004c0 .214-.182.396-.396.396m-.444 8.46c-.11.19-.357.253-.547.143-.182-.12-.246-.357-.135-.548a5.24 5.24 0 0 0 .729-2.648v-1.006c0-.222.174-.396.396-.396.214 0 .396.174.396.396v1.006c0 1.062-.293 2.117-.84 3.053m-4.186 2.798l-3.98.405c-.214.023-.412-.136-.428-.35-.024-.223.135-.412.35-.436l3.987-.404.087.388-.016.396m-8.752.896l-3.98.405a.4.4 0 0 1-.428-.357c-.024-.223.135-.413.35-.436l3.98-.405h.04c.206 0 .373.15.396.357.024.215-.135.413-.357.436m-8.752.888l-3.98.405c-.214.016-.412-.143-.428-.357-.024-.215.135-.413.35-.436l3.98-.405h.04c.206 0 .373.15.396.358.024.222-.135.412-.357.435m-8.752.888l-3.972.404c-.23.017-.42-.135-.436-.356-.024-.215.135-.412.35-.428l3.98-.405.04-.008c.206 0 .373.16.396.358.024.222-.135.41-.357.435m-8.752.89l-3.98.404c-.222.025-.412-.135-.428-.348a.39.39 0 0 1 .349-.436l3.98-.405.04-.007c.206 0 .373.16.396.357.024.222-.135.41-.357.436m-8.752.888l-3.98.404a.38.38 0 0 1-.428-.348c-.024-.222.135-.413.35-.437l3.98-.404h.04c.206 0 .373.15.396.358a.39.39 0 0 1-.357.428m-8.752.896l-3.98.404c-.214.017-.412-.142-.428-.356-.024-.222.135-.412.35-.437l3.98-.404h.04c.206 0 .373.15.396.358a.4.4 0 0 1-.357.436m-8.752.888l-3.98.404c-.214.025-.404-.135-.428-.357a.4.4 0 0 1 .349-.436l3.98-.404h.04c.206 0 .373.15.396.357.024.22-.135.41-.357.436m-8.752.888l-3.98.404c-.214.024-.404-.135-.428-.358-.024-.213.135-.41.35-.428l3.98-.404.04-.008c.206 0 .372.16.396.357.024.22-.135.41-.357.436m-8.752.888l-3.98.404c-.214.024-.412-.135-.428-.35-.024-.22.134-.41.348-.436l3.98-.404h.04c.206 0 .373.15.396.35.024.22-.135.412-.357.436m-8.752.888l-3.97.404c-.23.032-.412-.135-.436-.35-.024-.22.135-.41.35-.435l3.98-.404h.04c.206 0 .372.15.396.357.024.214-.135.412-.357.428m-8.75.896l-3.972.404c-.23.024-.413-.143-.436-.358-.024-.222.135-.41.35-.435l3.98-.404h.04c.206 0 .373.15.396.357a.4.4 0 0 1-.356.436m-8.752.888l-3.97.404c-.222.024-.412-.135-.436-.357a.4.4 0 0 1 .349-.436l3.98-.404h.04c.206 0 .373.15.396.356.024.222-.135.413-.357.437" class="C"/><path d="M318.85-244.874l-39.733 4.037c-1.183.12-2.21-.807-2.21-1.995v-13.504c0-1.03.78-1.892 1.803-1.996l40.05-4.07a2.01 2.01 0 0 1 1.884.899l3.528 5.404c.38.585.432 1.324.134 1.955l-3.846 8.13c-.3.636-.912 1.068-1.61 1.14" class="B"/><path d="M318.964-262.413a1.96 1.96 0 0 0-.204.01l-40.05 4.07c-1.024.104-1.803.966-1.803 1.996v13.504c0 1.118.9 2.005 2.003 2.005.068 0 .136-.003.206-.01l39.733-4.037c.7-.07 1.3-.503 1.61-1.14l3.846-8.13a2 2 0 0 0 .192-.86c0-.383-.1-.764-.326-1.095l-.155-.236-3.373-5.168a2.01 2.01 0 0 0-1.68-.909" class="I"/><path d="M318.826-253.496c0-2.425-1.8-4.39-4-4.39s-4 1.966-4 4.39 1.8 4.4 4 4.4 4-1.966 4-4.4" class="B"/><path d="M376.055-185.406h118.457c2.86 0 5.18-2.32 5.18-5.182v-94.375c0-2.86-2.32-5.18-5.18-5.18H376.055c-2.862 0-5.18 2.32-5.18 5.18v94.375c0 2.862 2.32 5.182 5.18 5.182" class="C"/><path d="M379.008-290.144h-2.953c-2.862 0-5.18 2.32-5.18 5.18v94.375c0 2.862 2.32 5.182 5.18 5.182h25.008c.72-.49 1.467-.946 2.236-1.362h-24.28c-1.868 0-3.383-1.515-3.383-3.383s1.515-3.384 3.383-3.384h40.7l-36.044-3.663c-2.577-.262-4.667-2.705-4.667-5.456v-87.49m107.29 103.376h-16.994l-.048 1.362h25.257a5.16 5.16 0 0 0 3.216-1.119 4.08 4.08 0 0 1-2.254.667c-.147 0-.296-.007-.448-.022l-8.73-.888m-53.137 0h-5.853c.77.416 1.517.87 2.236 1.362h3.88l-.263-1.362" fill="#405158"/><g class="C"><path d="M379.018-193.535h111.778c1.868 0 3.383 1.515 3.383 3.384s-1.515 3.383-3.383 3.383H379.018c-1.868 0-3.383-1.515-3.383-3.383s1.515-3.384 3.383-3.384"/><path d="M383.675-197.198l111.35 11.318c2.578.262 4.667-1.756 4.667-4.508v-94.775c0-2.75-2.09-5.194-4.667-5.457l-111.35-11.317c-2.577-.262-4.667 1.756-4.667 4.507v94.775c0 2.75 2.1 5.194 4.667 5.456"/></g><path d="M383.227-301.96c-2.367 0-4.22 1.94-4.22 4.53v94.775c0 2.75 2.1 5.194 4.667 5.456l48.42 4.92-.628-3.243-.106-.01a.39.39 0 0 1-.357-.428c.02-.177.145-.312.3-.348l-6.124-31.625-9.387-53.145 8.68-1.53c8.76 21.823 15 40.04 19.4 55.16h0c2.37 8.157 4.217 15.4 5.636 21.847l-.396-23.758v-53.97h.77l-.387-8.754-2.63-.267c-.223-.024-.38-.215-.358-.436.024-.198.2-.357.396-.357l.04.008 2.515.255-.103-2.384-65.683-6.675a4.46 4.46 0 0 0-.448-.023m2.442 3.853a.39.39 0 0 1-.367-.25c-.08-.198.016-.428.222-.516.523-.205 1.086-.308 1.665-.308.166 0 .325.007.49.024l1.982.198c.214.023.373.213.35.436-.015.204-.19.357-.398.357-.01 0-.02 0-.03-.001l-1.982-.207a3.98 3.98 0 0 0-.4-.02c-.486 0-.947.1-1.383.258-.048.02-.1.028-.148.028m12.707.83a.39.39 0 0 1-.041-.002l-3.98-.405c-.222-.023-.38-.213-.357-.435.024-.206.2-.358.396-.358h.04l3.98.405c.214.023.373.22.35.436a.39.39 0 0 1-.387.359m8.755.887a.45.45 0 0 1-.044-.002l-3.98-.404c-.222-.024-.38-.213-.356-.435.023-.198.19-.358.396-.358l.04.008 3.98.405c.214.015.373.214.35.428a.38.38 0 0 1-.384.359m6.453-.136l-.025-.1 5.28-.932 2.123 7.057.017-.002 1.988 6.68h-.008l.02.07-6.088 2.126-1.768-7.942-1.36-6.14-1.905-.194c-.222-.024-.38-.214-.357-.436.024-.198.2-.357.396-.357l.04.007 1.646.168m11.05 1.91c-.015 0-.03-.001-.044-.003l-3.98-.403a.39.39 0 0 1-.357-.428c.024-.206.2-.358.396-.358h.04l3.98.404c.213.024.372.215.348.437a.38.38 0 0 1-.384.351m-41.663 4.208c-.214 0-.396-.182-.396-.396v-3.456c0-.198.008-.396.032-.587.024-.205.2-.357.396-.357l.04.01c.214.015.373.213.35.428-.016.167-.024.34-.024.508v3.456c0 .214-.174.396-.396.396m50.412-3.312a.36.36 0 0 1-.041-.002l-3.98-.404c-.222-.024-.38-.222-.357-.435.025-.206.2-.357.396-.357h.04l3.98.404c.214.024.373.215.35.437-.015.2-.19.358-.387.358m8.755.888c-.015 0-.03-.001-.044-.003l-3.98-.403c-.222-.024-.38-.215-.357-.436.024-.206.19-.357.396-.357h.04l3.98.403a.4.4 0 0 1 .349.436.38.38 0 0 1-.384.359m-59.167 11.216c-.214 0-.396-.174-.396-.396v-3.996c0-.222.182-.396.396-.396.222 0 .396.175.396.396V-282c0 .222-.174.396-.396.396m0 8.798c-.214 0-.396-.173-.396-.396v-4.002c0-.214.182-.396.396-.396.222 0 .396.182.396.396v4.002a.39.39 0 0 1-.396.396m0 8.8c-.214 0-.396-.182-.396-.396v-4.004c0-.213.182-.396.396-.396a.4.4 0 0 1 .396.396v4.004c0 .214-.174.396-.396.396m0 8.79a.4.4 0 0 1-.396-.396v-3.995c0-.222.182-.396.396-.396.222 0 .396.174.396.396v3.995c0 .22-.174.396-.396.396m13.022 10.75c-2.728 0-4.94-2.506-4.94-5.596s2.212-5.598 4.94-5.598 4.94 2.506 4.94 5.598-2.212 5.596-4.94 5.596m-13.022-1.95c-.214 0-.396-.174-.396-.396v-3.996c0-.222.182-.396.396-.396.222 0 .396.174.396.396v3.996a.39.39 0 0 1-.396.396m0 8.8c-.214 0-.396-.182-.396-.396v-4.004c0-.213.182-.396.396-.396a.4.4 0 0 1 .396.396v4.004c0 .214-.174.396-.396.396m0 8.79a.4.4 0 0 1-.396-.396v-3.995c0-.222.182-.396.396-.396.222 0 .396.174.396.396v3.995c0 .22-.174.396-.396.396m0 8.8c-.214 0-.396-.174-.396-.397v-3.995c0-.223.182-.397.396-.397.222 0 .396.174.396.397v3.995c0 .223-.174.397-.396.397m0 8.8c-.214 0-.396-.182-.396-.396v-4.004c0-.213.182-.396.396-.396a.4.4 0 0 1 .396.396v4.004c0 .214-.174.396-.396.396m.8 8.655a.4.4 0 0 1-.346-.197c-.547-.936-.84-1.99-.84-3.053v-1.006c0-.222.182-.396.396-.396.222 0 .396.174.396.396v1.006a5.24 5.24 0 0 0 .729 2.648c.11.19.048.428-.135.548-.063.036-.133.054-.2.054m7.862 3.008c-.013 0-.028-.001-.042-.002l-3.98-.405-.016-.396.087-.388 3.987.404c.214.024.373.213.35.436-.014.2-.19.35-.386.35m8.74.894c-.01 0-.02 0-.03-.001l-3.98-.405a.4.4 0 0 1-.357-.436c.024-.205.2-.357.396-.357h.04l3.98.405c.214.023.373.213.35.436-.015.204-.197.358-.4.358m8.75.888c-.01 0-.02 0-.03-.001l-3.98-.405c-.222-.023-.38-.213-.357-.435.024-.206.2-.358.396-.358h.04l3.98.405c.214.023.373.22.35.436-.015.204-.197.358-.4.358m8.75.888a.49.49 0 0 1-.034-.002l-3.972-.404c-.222-.024-.38-.213-.357-.435.024-.198.2-.358.396-.358l.04.008 3.98.405c.215.016.373.213.35.428-.015.2-.188.358-.402.358m8.77.89c-.015 0-.03-.001-.044-.002l-3.98-.404c-.222-.025-.38-.214-.357-.436.024-.198.2-.357.396-.357l.04.007 3.98.405a.39.39 0 0 1 .349.436.38.38 0 0 1-.384.35m28.408-98.67l.305 2.587c.072-.09.185-.15.312-.15h.04l3.98.403c.214.025.373.215.35.436-.015.2-.182.352-.384.352a.45.45 0 0 1-.044-.002l-3.98-.404a.41.41 0 0 1-.208-.083l.027.23.017.001.797 6.925-.01.002.01.072-6.07.988h7.75c8.868 42.293 11.47 71.093 11.47 90.325v.545l1.027.104c.214.025.373.215.35.436-.014.2-.188.352-.385.352-.014 0-.03-.001-.043-.002l-.95-.097-.045 3.173 25.676 2.6c.15.015.3.022.448.022 2.367 0 4.22-1.94 4.22-4.53v-94.775c0-.702-.136-1.383-.38-2.014l.064.188-.04-.008c-.214-.04-.357-.254-.317-.468l.094-.163c-.795-1.616-2.327-2.813-4.087-2.992l-39.987-4.063m13.353 4.518c-.014 0-.03-.001-.043-.002l-3.98-.404c-.222-.016-.38-.215-.357-.428.024-.207.2-.357.396-.357h.04l3.98.404c.214.024.373.214.35.435-.015.2-.188.352-.384.352m8.738.894c-.01 0-.02 0-.03-.001l-3.98-.404a.4.4 0 0 1-.357-.436c.024-.207.2-.357.396-.357h.04l3.98.404c.214.024.373.213.35.435-.015.205-.197.358-.4.358m8.765.89c-.014 0-.03-.001-.043-.002l-3.98-.404c-.222-.024-.38-.214-.357-.437.024-.206.2-.356.396-.356h.04l3.98.404a.4.4 0 0 1 .349.436c-.014.207-.188.36-.385.36m8.75.888c-.013 0-.028-.001-.042-.002l-3.98-.405c-.222-.023-.38-.213-.356-.436a.4.4 0 0 1 .396-.357l.04.01 3.98.404c.214.015.373.213.35.428-.014.207-.19.36-.386.36m-15.5 96.82a.46.46 0 0 1-.056-.004l-3.972-.404c-.222-.016-.38-.214-.357-.428.024-.207.2-.357.396-.357h.04l3.98.404c.214.024.373.214.35.435-.022.197-.177.354-.38.354m8.74.894c-.014 0-.03-.001-.044-.002l-3.972-.404a.4.4 0 0 1-.357-.436c.024-.207.2-.357.396-.357h.04l3.98.404c.214.024.373.213.35.435-.022.2-.183.36-.392.36m8.753.888c-.015 0-.03-.001-.044-.002l-3.972-.404c-.222-.024-.38-.215-.357-.437.024-.206.2-.356.396-.356h.04l3.98.404a.4.4 0 0 1 .349.436c-.022.207-.19.36-.392.36" fill="#6c7a7f"/><path d="M385.523-298.873c.523-.205 1.086-.308 1.665-.308l.49.024 1.982.198c.214.023.373.213.35.436-.016.213-.206.372-.428.357l-1.982-.207c-.634-.063-1.23.024-1.784.238-.206.08-.436-.016-.515-.222-.08-.198.016-.428.222-.516m8.474.754c.024-.206.2-.358.396-.358h.04l3.98.405c.214.023.373.22.35.436a.39.39 0 0 1-.428.357l-3.98-.405c-.222-.023-.38-.213-.357-.435m8.753.888c.023-.198.19-.358.396-.358l.04.008 3.98.405c.214.015.373.214.35.428-.016.22-.205.38-.428.356l-3.98-.404c-.222-.024-.38-.213-.356-.435m8.75.888c.024-.198.2-.357.396-.357l.04.007 3.98.405a.39.39 0 0 1 .349.436c-.016.213-.206.373-.428.348l-3.98-.404c-.222-.024-.38-.214-.357-.436m8.752.896c.024-.206.2-.358.396-.358h.04l3.98.404c.213.024.372.215.348.437a.38.38 0 0 1-.428.348l-3.98-.403a.39.39 0 0 1-.357-.428m-37.68 4.645v-3.456c0-.198.008-.396.032-.587.024-.205.2-.357.396-.357l.04.01c.214.015.373.213.35.428l-.024.508v3.456c0 .214-.174.396-.396.396-.214 0-.396-.182-.396-.396m46.43-3.758c.025-.206.2-.357.396-.357h.04l3.98.404c.214.024.373.215.35.437a.39.39 0 0 1-.428.356l-3.98-.404c-.222-.024-.38-.222-.357-.435m8.752.888c.024-.206.19-.357.396-.357h.04l3.98.403a.4.4 0 0 1 .349.436c-.016.222-.206.382-.428.357l-3.98-.403c-.222-.024-.38-.215-.357-.436m8.752.888c.024-.198.2-.357.396-.357l.04.008 3.98.404c.214.017.373.215.35.428-.016.223-.214.38-.428.357l-3.98-.404c-.223-.024-.38-.215-.358-.436m8.752.888c.024-.198.2-.35.396-.35h.04l3.98.403c.214.025.373.215.35.436-.017.215-.207.373-.43.35l-3.98-.404c-.222-.024-.38-.215-.357-.436m8.752.896c.024-.207.2-.357.396-.357h.04l3.98.404c.214.024.373.214.35.435-.016.215-.214.373-.427.35l-3.98-.404c-.222-.016-.38-.215-.357-.428m8.752.888c.024-.207.2-.357.396-.357h.04l3.98.404c.214.024.373.213.35.435-.016.215-.214.373-.428.357l-3.98-.404a.4.4 0 0 1-.357-.436m8.752.887c.024-.206.2-.356.396-.356h.04l3.98.404a.4.4 0 0 1 .349.436c-.016.222-.214.38-.428.357l-3.98-.404c-.222-.024-.38-.214-.357-.437m8.753.888a.4.4 0 0 1 .396-.357l.04.01 3.98.404c.214.015.373.213.35.428-.016.222-.214.38-.428.357l-3.98-.405c-.222-.023-.38-.213-.356-.436m8.75.873l.095-.167c.103.206.2.42.262.642l-.04-.008c-.214-.04-.357-.254-.317-.468M382.574-282v-3.996c0-.222.182-.396.396-.396.222 0 .396.175.396.396V-282c0 .222-.174.396-.396.396-.214 0-.396-.174-.396-.396m0 8.798v-4.002c0-.214.182-.396.396-.396.222 0 .396.182.396.396v4.002a.39.39 0 0 1-.396.396c-.214 0-.396-.173-.396-.396m0 8.8v-4.004c0-.213.182-.396.396-.396a.4.4 0 0 1 .396.396v4.004c0 .214-.174.396-.396.396-.214 0-.396-.182-.396-.396m0 8.79v-3.995c0-.222.182-.396.396-.396.222 0 .396.174.396.396v3.995c0 .22-.174.396-.396.396a.4.4 0 0 1-.396-.396m0 8.8v-3.996c0-.222.182-.396.396-.396.222 0 .396.174.396.396v3.996a.39.39 0 0 1-.396.396c-.214 0-.396-.174-.396-.396m0 8.8v-4.004c0-.213.182-.396.396-.396a.4.4 0 0 1 .396.396v4.004c0 .214-.174.396-.396.396-.214 0-.396-.182-.396-.396m0 8.79v-3.995c0-.222.182-.396.396-.396.222 0 .396.174.396.396v3.995c0 .22-.174.396-.396.396a.4.4 0 0 1-.396-.396m0 8.8v-3.995c0-.223.182-.397.396-.397.222 0 .396.174.396.397v3.995c0 .223-.174.397-.396.397-.214 0-.396-.174-.396-.397m0 8.8v-4.004c0-.213.182-.396.396-.396a.4.4 0 0 1 .396.396v4.004c0 .214-.174.396-.396.396-.214 0-.396-.182-.396-.396m0 5.802v-1.006c0-.222.182-.396.396-.396.222 0 .396.174.396.396v1.006a5.24 5.24 0 0 0 .729 2.648c.11.19.048.428-.135.548-.2.1-.435.047-.547-.143-.547-.936-.84-1.99-.84-3.053m5 5.454l.087-.388 3.987.404c.214.024.373.213.35.436-.016.213-.214.372-.428.35l-3.98-.405-.016-.396m8.41.856c.024-.205.2-.357.396-.357h.04l3.98.405c.214.023.373.213.35.436a.4.4 0 0 1-.428.357l-3.98-.405a.4.4 0 0 1-.357-.436m8.752.89c.024-.206.2-.358.396-.358h.04l3.98.405c.214.023.373.22.35.436-.016.213-.214.373-.428.357l-3.98-.405c-.222-.023-.38-.213-.357-.435m8.752.888c.024-.198.2-.358.396-.358l.04.008 3.98.405c.215.016.373.213.35.428-.016.22-.206.373-.436.356l-3.972-.404c-.222-.024-.38-.213-.357-.435m8.752.888c.024-.198.2-.357.396-.357l.04.007 3.98.405a.39.39 0 0 1 .349.436c-.016.213-.206.373-.428.348l-3.98-.404c-.222-.025-.38-.214-.357-.436m8.752.896c.024-.206.2-.358.396-.358h.04l3.98.404c.214.024.373.215.35.437-.017.214-.207.373-.43.348l-3.98-.404a.39.39 0 0 1-.357-.428m8.752.888c.024-.206.2-.358.396-.358h.04l3.98.404c.213.025.372.215.348.437-.016.214-.214.373-.427.356l-3.98-.404a.4.4 0 0 1-.357-.436m8.752.888c.025-.206.2-.357.396-.357h.04l3.98.404a.4.4 0 0 1 .349.436c-.024.222-.214.38-.428.357l-3.98-.404c-.222-.025-.38-.215-.357-.436m8.752.888c.024-.198.19-.357.396-.357l.04.008 3.98.404c.214.017.373.215.35.428-.024.223-.213.38-.428.358l-3.98-.404c-.222-.025-.38-.215-.357-.436m8.752.888c.024-.198.2-.35.396-.35h.04l3.98.404c.214.025.373.215.35.436-.016.215-.214.373-.428.35l-3.98-.404c-.223-.024-.38-.215-.358-.436m8.752.896c.024-.207.2-.357.396-.357h.04l3.98.404c.214.024.373.214.35.435-.024.215-.206.38-.436.35l-3.972-.404c-.222-.016-.38-.214-.357-.428m8.752.888c.024-.207.2-.357.396-.357h.04l3.98.404c.214.024.373.213.35.435-.024.215-.206.38-.436.358l-3.972-.404a.4.4 0 0 1-.357-.436m8.752.887c.024-.206.2-.356.396-.356h.04l3.98.404a.4.4 0 0 1 .349.436c-.024.222-.214.38-.436.357l-3.972-.404c-.222-.024-.38-.215-.357-.437" fill="#fff"/><path d="M400.933-250.07c0-3.092-2.212-5.598-4.94-5.598s-4.94 2.506-4.94 5.598 2.212 5.596 4.94 5.596 4.94-2.506 4.94-5.596" class="C"/><path d="M396.087-253.724c-1.78 0-3.224 1.635-3.224 3.653s1.444 3.652 3.224 3.652 3.224-1.635 3.224-3.652-1.444-3.653-3.224-3.653" fill="#405158"/><use xlink:href="#E" class="B"/><path d="M362.573-135.014c-8.26 0-15.593 3.957-20.21 10.08l-.198.266a25.19 25.19 0 0 0-4.89 14.954c0 13.973 11.327 25.3 25.3 25.3s25.3-11.327 25.3-25.3c0-.613-.02-1.22-.064-1.82-.25-3.496-1.208-6.795-2.733-9.755l-.377-.705c-4.32-7.765-12.61-13.02-22.125-13.02m0 45.093c-10.93 0-19.793-8.862-19.793-19.793s8.862-19.793 19.793-19.793 19.793 8.862 19.793 19.793-8.86 19.793-19.793 19.793m1.826-34.586h-3.147v3.43c-3.116.19-6.106 1.165-7.837 2.518l1.73 3.84c1.574-1.165 3.84-2.014 6.106-2.235v5.257c-3.494.85-7.397 2.014-7.397 6.515 0 3.337 2.424 6.2 7.397 6.767v3.494h3.147v-3.43c2.36-.19 4.658-.82 6.39-1.92l-1.574-3.872c-1.605.913-3.242 1.448-4.816 1.637v-5.35c3.494-.818 7.334-1.983 7.334-6.42 0-3.273-2.392-6.106-7.334-6.704v-3.525m0 12.023v-4.343c1.574.346 2.266 1.165 2.266 2.17 0 1.102-.913 1.7-2.266 2.172m-3.147 9.883c-1.67-.378-2.33-1.29-2.33-2.33 0-1.102.945-1.7 2.33-2.14v4.47" fill="#90b4e3"/><path d="M362.573-129.508c-10.93 0-19.793 8.862-19.793 19.793s8.862 19.793 19.793 19.793 19.793-8.862 19.793-19.793-8.86-19.793-19.793-19.793m-7.428 14.8l-1.73-3.84c1.73-1.353 4.72-2.33 7.837-2.518v-3.43h3.147v3.525c4.942.598 7.334 3.43 7.334 6.704 0 4.438-3.84 5.602-7.334 6.42v5.35c1.574-.2 3.2-.724 4.816-1.637l1.574 3.872c-1.73 1.1-4.03 1.73-6.4 1.92v3.43h-3.147v-3.494c-4.973-.566-7.397-3.43-7.397-6.767 0-4.5 3.903-5.666 7.397-6.515v-5.257c-2.266.22-4.532 1.07-6.106 2.235m9.252-2.108v4.343c1.353-.472 2.266-1.07 2.266-2.172 0-1.007-.693-1.826-2.266-2.17m-3.148 9.757c-1.385.44-2.33 1.038-2.33 2.14 0 1.038.66 1.95 2.33 2.33v-4.47" fill="#cfe0f5"/><use xlink:href="#E" x="52.731" y="-54.775" class="B"/><path d="M415.303-189.792c-6.408 0-12.26 2.383-16.718 6.3-5.262 4.637-8.58 11.426-8.58 19 0 13.972 11.327 25.3 25.3 25.3a25.57 25.57 0 0 0 3.269-.209c.07-2.72.936-5.32 3.765-6.044.296-.076.597-.112.903-.112 1.67 0 3.467 1.08 5.213 2.683a25.42 25.42 0 0 0 9.562-10.458v-2.275c-.726-3.725-1.284-8.525-1.64-12.06l-1.157-8.482-.996-5.143-.483-.527a25.21 25.21 0 0 0-1.63-1.585c-4.47-3.974-10.356-6.388-16.805-6.388m0 45.093c-10.932 0-19.793-8.862-19.793-19.793s8.86-19.794 19.793-19.794 19.793 8.862 19.793 19.794-8.862 19.793-19.793 19.793m1.826-34.586h-3.147v3.43c-3.116.19-6.106 1.165-7.838 2.52l1.73 3.84c1.574-1.165 3.84-2.014 6.106-2.235v5.257c-3.494.85-7.397 2.014-7.397 6.515 0 3.337 2.423 6.2 7.397 6.767v3.494h3.147v-3.43c2.36-.19 4.658-.818 6.39-1.92l-1.573-3.872c-1.605.913-3.242 1.448-4.816 1.637v-5.35c3.494-.82 7.334-1.983 7.334-6.422 0-3.273-2.392-6.106-7.334-6.703v-3.525m0 12.023v-4.343c1.574.346 2.266 1.165 2.266 2.172 0 1.1-.912 1.7-2.266 2.17m-3.147 9.883c-1.67-.378-2.33-1.29-2.33-2.33 0-1.1.945-1.7 2.33-2.14v4.47" fill="#6d97d6"/><g class="K"><path d="M415.303-184.285c-10.932 0-19.793 8.862-19.793 19.794s8.86 19.793 19.793 19.793 19.793-8.862 19.793-19.793-8.862-19.794-19.793-19.794m-7.428 14.8l-1.73-3.84c1.73-1.354 4.722-2.33 7.838-2.52v-3.43h3.147v3.525c4.94.598 7.334 3.43 7.334 6.703 0 4.44-3.84 5.603-7.334 6.422v5.35c1.574-.2 3.2-.724 4.816-1.637l1.573 3.872c-1.73 1.1-4.03 1.73-6.4 1.92v3.43h-3.147v-3.494c-4.974-.566-7.397-3.43-7.397-6.767 0-4.5 3.903-5.666 7.397-6.515v-5.257c-2.266.22-4.533 1.07-6.106 2.235m9.254-2.107v4.343c1.353-.472 2.266-1.07 2.266-2.17 0-1.008-.692-1.826-2.266-2.172"/><use xlink:href="#D" x="130.728" y="-27.348"/></g><g class="B"><path d="M254.628-77.973l-10.872.044a2.93 2.93 0 0 0-2.916 2.939l.045 10.87a2.93 2.93 0 0 0 2.939 2.916l10.872-.044a2.93 2.93 0 0 0 2.915-2.939l-.044-10.872c-.006-1.617-1.322-2.922-2.94-2.915"/><path d="M250.937-76.928s-2.216-5.01-7.135-6.557c0 0 2.725 1.557 2.537 6.785l4.6-.228"/></g><path d="M249.227-74.898a5.31 5.31 0 1 0 0 10.62 5.31 5.31 0 1 0 0-10.62" class="D"/><path d="M248.512-72.197h-.007a.4.4 0 0 0-.308.155l-2.286 2.98c-.134.174-.1.423.073.555a.4.4 0 0 0 .556-.073l1.983-2.584 3.303 4.006c.14.17.4.193.558.054s.193-.4.054-.558l-3.62-4.4c-.075-.092-.187-.144-.305-.144M428.2-85.497l10.872.016a2.93 2.93 0 0 1 2.923 2.932l-.016 10.872c-.002 1.616-1.315 2.925-2.932 2.922l-10.872-.015a2.93 2.93 0 0 1-2.923-2.932l.016-10.872a2.93 2.93 0 0 1 2.932-2.923" class="B"/><path d="M433.63-81.572l-.554.332c-1.94 1.17-6.05 4.16-4.06 7.4.503.82 1.203 1.156 1.93 1.156.977 0 2.003-.605 2.673-1.46.668.857 1.697 1.466 2.676 1.466.725 0 1.423-.334 1.927-1.15 1.997-3.23-2.103-6.233-4.04-7.4l-.553-.334" class="D"/><path d="M431.836-84.197s2.202-5.014 7.118-6.576c0 0-2.72 1.565-2.52 6.792l-4.6-.216m6.184-45.243l-2.148-3.758c-1.245-2.062-2.957-4.654-4.844-6.936-2.783-3.345-5.96-6-8.688-5.3-6.54 1.673-2.584 13.38-2.584 13.38l5.652-1.482s7.444 17.995 11.844 18.352l.77-14.246" class="B"/><path d="M431.026-140.134c-.49 5.993 4.067 12.04 4.067 12.04l.777-5.104c-1.245-2.062-2.957-4.654-4.844-6.936h0" class="I"/><path d="M435.045-146.816s9.135-6.42 36.03-4.852c0 0-7.746 18.396-22.65 18.998s-13.38-14.146-13.38-14.146" class="B"/><path d="M464.2-151.907l.58 5.84c3.39-5.427 5.945-5.602 6.26-5.602h.03l-6.87-.24m-26.533 3.78c-1.823.75-2.623 1.313-2.623 1.313s-.044.428-.044 1.135c.001 1.788.284 5.357 2.285 8.31.055-3.145.174-6.713.38-10.757" fill="#3b69bb"/><path d="M413.56-296.634l5.28-.932 4.14 13.808-6.088 2.126-1.768-7.942-1.566-7.06" class="E"/><path d="M420.03-297.427c.09.584-7.144 1.4-7.144 1.4s-5.2-3.698-9.642-3.95-2.516-3.238 2.26-4.08l11.817-2.087c3.395-.6 1.784 2.667 2.708 8.726" class="C"/><path d="M410.017-294.41c-.106-.028-.285-.092-.297-.194-.04-.325.886-1.062 1.875-1.652-.152.583-.466 1.442-.956 1.754-.128.082-.26.124-.402.124a.81.81 0 0 1-.22-.033zm-1.257-1.662c-.123-.043-.205-.113-.25-.213-.12-.268-.044-.357-.02-.386.29-.338 1.667-.175 2.8.086-.77.32-1.966.72-2.532.514zm-.56-.85c-.118.14-.22.388-.04.794.09.196.246.336.47.417.42.15 1.04.056 1.635-.108-.527.414-.97.88-.925 1.26.03.247.223.423.576.518.332.09.644.046.93-.14.897-.573 1.203-2.344 1.218-2.426l-.006-.086v-.001l-.02-.045v-.001l-.05-.053-.063-.03c-.342-.095-1.604-.423-2.59-.423-.5 0-.928.083-1.134.323" class="B"/><path d="M420.98-290.512l-.017.002.043.143 1.955 6.538h.008l-1.988-6.68" fill="#535f64"/><path d="M420.962-290.51l-5.866.772 1.8 8.07 6.074-2.16-1.998-6.68" class="L"/><path d="M449.21-298.632h5.362l.88 7.467.797 6.85-6.366 1.035-.674-15.353" class="E"/><path d="M455.722-298.288c-.013.59-7.277.128-7.277.128s-4.468-4.545-8.81-5.567-1.915-3.625 2.936-3.625h12c3.447 0 1.292 2.936 1.15 9.064" class="C"/><path d="M445.336-297.058c-.1-.046-.265-.14-.258-.242.018-.327 1.058-.892 2.134-1.3-.25.55-.7 1.34-1.247 1.562a.76.76 0 0 1-.294.062.77.77 0 0 1-.335-.081zm-.95-1.854c-.113-.065-.18-.147-.208-.254-.072-.285.018-.36.048-.384.342-.282 1.673.12 2.743.572-.814.18-2.06.366-2.583.066zm-.404-.933c-.14.115-.285.343-.175.773.052.21.183.374.388.492.385.222 1.014.238 1.63.178-.59.316-1.108.698-1.13 1.08-.014.25.147.454.477.61a1.12 1.12 0 0 0 .94.025c.985-.4 1.595-2.105 1.62-2.177l-.007-.147-.026-.04-.064-.05c-.382-.18-1.995-.92-3.01-.92-.265 0-.49.05-.64.174" class="B"/><path d="M455.437-291.314l.017.148.788 6.78.01-.002-.797-6.925-.017-.001" fill="#535f64"/><path d="M449.525-291.574l.36 8.247h.066l6.292-1.06-.805-6.927-5.91-.26" class="L"/><path d="M415.802-281.077l8.68-1.53c8.76 21.823 15 40.04 19.4 55.16 2.37 8.157 4.217 15.4 5.636 21.847l-.396-23.758v-53.97h8.815c21.443 102.263 6.246 125.633 6.246 125.633l-25.652 4.383c-.975-3.828-1.713-10.036-2.148-14.356l-1.157-8.482-10.028-51.783-9.387-53.145" class="B"/><path d="M457.93-283.327h-8.815v53.97l.396 23.758s-.142 12.5-1.656 22.784c0 0-3.758-29.388-3.98-44.63h0c-4.4-15.117-10.63-33.336-19.4-55.16l-8.68 1.53 9.387 53.145 10.028 51.783 1.157 8.482c.357 3.535.915 8.335 1.64 12.06v-.078l1.126-.086-.068-1.333 1.298-.067.066 1.3 3.265-.25-.028-.306 5.72-.512.034.38 5.722-.438-.095-1.86 1.298-.067.093 1.83 7.728-.596s5.227-8.037 5.225-35.308c-.002-19.233-2.603-48.032-11.47-90.325" class="D"/><path d="M425.844-281.534l-10.767 3.57.146-4.58 8.904-2.84 1.717 3.85m33.236-.498l-11.224 1.643.94-4.485 9.263-1.25 1.02 4.1" class="B"/><path d="M464.175-153.86v-3.83l-26.16 2.006v4.53l26.16-2.706" class="C"/><path d="M443.675-156.427l5.72-.512.388 4.338-5.72.513-.388-4.34" fill="#fff"/><path d="M455.056-158.86l1.298-.067.337 6.6-1.297.067-.338-6.6" class="B"/><path d="M456.354-158.926l-1.298.067.28 5.488 1.295-.105-.277-5.45" class="D"/><path d="M439.074-157.105l1.298-.067.337 6.6-1.297.067-.338-6.6" class="B"/><path d="M440.37-157.17l-1.298.067.257 5.036 1.296-.105-.255-4.997" class="D"/><path d="M443.874-227.447c.22 15.244 3.98 44.63 3.98 44.63 1.514-10.274 1.656-22.784 1.656-22.784-1.42-6.437-3.266-13.7-5.636-21.847m5.636 21.847h0" class="M"/><path d="M491.438-123.1l1.27 6s-1.19 1.982-.93 3.003 3.575 6.4 4.44 6.478 4.643-3.058 4.392-4.377-3.784-5.56-4.276-5.83l-.968-6.47-3.93 1.196" class="E"/><path d="M437.88-151.95l26.166-2.13c.62 9.157 1.24 15.062 7 31.38l1.63 4.542a81.87 81.87 0 0 1-10.853 2.466c-3.884.648-7.813 1.038-11.75 1.168-5.093.036-10.937-.504-10.937-.504s-.835-.188-1.356-5.264c-.483-4.773-.95-14.308.1-31.656" class="B"/><path d="M464.047-154.08l-26.166 2.13c-.465 7.692-.633 13.848-.632 18.733 0 6.134.264 10.266.533 12.923.52 5.076 1.356 5.264 1.356 5.264s5.474.506 10.443.506l.495-.002 1.693-.072c-.6-1.037-1.37-1.054-1.37-1.054-1.362-2.553 1.837-4.656 1.837-4.656 6.448.825 8.386 3.58 8.386 3.58-.458.432-.822.9-1.107 1.388l2.313-.354a82.35 82.35 0 0 0 2.926-.514c-1.674-3.018-7.2-14.234-2.893-24.17 1.017-2.352 2-4.214 2.922-5.69-.348-2.632-.54-5.165-.734-8.015m8.557 35.715l-2.035.81 2.1-.602-.075-.206" class="J"/><path d="M452.234-120.307c6.448.825 8.386 3.58 8.386 3.58-4.092 3.86-.692 10.55-.692 10.55l-7.763-1.45c.204-1.283.29-2.36.303-3.268.06-4.71-2.07-4.757-2.07-4.757-1.362-2.553 1.837-4.656 1.837-4.656" class="E"/><path d="M452.47-110.894h0c-.012.908-.1 1.985-.303 3.268l7.763 1.45s-3.717-3.85-7.46-4.717" class="L"/><path d="M437.782-120.294c9.828-4.58 24.886-3.512 33.266-2.408l1.632 4.542a81.91 81.91 0 0 1-10.854 2.466c-3.884.648-7.813 1.038-11.75 1.168-5.093.036-10.937-.504-10.937-.504s-.835-.188-1.356-5.264" class="E"/><path d="M474.074-118.95c3.64-1.582 12.696-17.68 12.696-17.68l4.22 14.823 5.873.766s-.39-24.014-8.05-25.802-17.74 13.29-17.74 13.29l3 14.603" class="B"/><path d="M461.452-81.812c10.6-1.88 14.24-30.262-.618-26.168-4.374 1.205-21.5 17.11-13.897 21.807s14.515 4.36 14.515 4.36" class="C"/><path d="M453.132-86.32c-6.594-.318-8.546-3.95-8.7-10.77-.193-8.52 1.98-14.464 10.138-12.252 11.08 3.004 9.514 23.55-1.436 23.02" class="E"/><path d="M448.676-96.515s-.83-1.766-1.787-2.827c0 0 .608-.87 1.774-.662l.013 3.49" fill="#f14453"/><g class="C"><path d="M452.686-95.78c.013-.542.318-.974.68-.965s.644.455.63.997-.318.975-.68.966-.644-.457-.63-1"/><path d="M453.467-94.805l-1.2.434s.612-.978 1.2-.434m-7.525-1.03c.013-.542.317-.975.68-.966s.644.455.63.998-.317.974-.68.966-.644-.457-.63-.998"/><path d="M446.724-94.86l-1.2.434s.6-.978 1.2-.434m8.716 2.497c-.077 0-.153.03-.208.093-.947 1.057-2.633.775-2.65.77-.154-.023-.3.075-.326.228a.28.28 0 0 0 .227.326c.082.014 2 .343 3.166-.948a.28.28 0 0 0-.021-.396l-.188-.07m-10.315.234c-.086 0-.17.04-.227.114a.28.28 0 0 0 .059.392c1.514 1.115 2.8.728 2.853.7a.28.28 0 1 0-.167-.535c-.05.015-1.085.308-2.353-.627l-.166-.055"/><path d="M460.875-97.085s-3.344 5.27-3.08 9.473c0 0-13.324 4.708-13.33-8.586 0 0-1.845 11.715 9.477 12.524 11.304.81 12.075-15.776 6.46-21 0 0 2.543 4.292.472 7.588"/></g><path d="M459.865-98.53c-.006 1.064 1.002 2.914 2.987 2.794 2.054-.124 3.23-4.272-1.803-5.526-.722-.18-1.168.514-1.184 2.733" class="E"/><g class="C"><path d="M461.452-81.812s-9.415 2.16-15.936-3.046 11.113-5.944 11.113-5.944l-4.248 2.454s5.4-2.112 7.896-1.542l1.175 8.08m5.474-17.626s2.404-5.338-.9-9.434c0 0 1.8-4.976-3.2-7.885 0 0 .604-2.735-3.796-5.544 0 0-1.684-4.058-.954-7.138l-2.826 1.75s.378 3.744 2.372 5.76c0 0-.387 6.03 2.183 7.75 0 0-.714 3.846-.157 5.446l2.127 7.7s4.065.126 5.15 1.608"/><path d="M450.874-91.646l-.03.002c-.293.045-7.174 1.132-7.447 3.482s2.868 3.726 3 3.783c.098.044.212-.002.254-.1s-.002-.212-.1-.254c-.03-.013-3-1.324-2.77-3.383.2-1.708 5.208-2.848 7.12-3.144.106-.016.178-.114.162-.22-.014-.095-.097-.164-.2-.164m-2.44-9.71c.48-.765 1.047-2.243 1.047-2.243l.428.1c1.932.42 2.7 1.25 2.944 2.047a2.56 2.56 0 0 1 .059 1.206c-.065.394-.2.66-.2.66-.892-.834-2.663-1.363-3.62-1.606l-.656-.153"/></g><path d="M449.08-101.2l.327-.653c1.82.4 3.046.924 3.496 1.6-.065.394-.2.66-.2.66-.892-.834-2.663-1.363-3.62-1.606" fill="#fff"/><path d="M449.9-103.507c1.932.42 2.7 1.25 2.944 2.047-.652-.168-1.42-.443-2.053-.89-.484-.34-.744-.76-.89-1.157" fill="#f14453"/><path d="M474.074-118.95l-8.868 3.525s-8.364-13.35-3.346-24.953 9.215-11.3 9.215-11.3l3 32.717m-36.825 3.755c.266.9 9.083 1.16 9.083 1.16s-2.35-26.195-11.288-32.78c0 0-1.96 17.728 2.205 31.62" class="B"/><path d="M431.9-123.578a.64.64 0 0 0-.655-.728h-7.246c-.407 0-.775.326-.82.728l-1.618 14.3c-.046.403.247.828.655.828h7.245c.407 0 .775-.425.82-.828l1.618-14.3" class="C"/><path d="M423.283-123.867c-.045.06-.075.125-.083.196l-.01.078a.79.79 0 0 1 .092-.274" fill="#f7f7f6"/><path d="M422.38-116.428l-.82 7.244c-.008.067.005.13.033.192a.77.77 0 0 1-.022-.286l.81-7.15" fill="#fff"/><path d="M430.557-124.306h-6.144c-.34 0-.916.155-1.13.438a.79.79 0 0 0-.092.274l-1.62 14.315a.77.77 0 0 0 .022.286c.143.313.69.54 1.036.54h6.144c.405 0 .668-.327.715-.733l1.64-14.438c.046-.407-.166-.683-.57-.683" fill="#849193"/><path d="M420.402-132.236l2.413 7.147s-.637 2.9-.475 4.547 4.552 2.823 4.787 2.43 1.705-5.174 1.166-6.43-1.637-2.195-1.637-2.195l-1.622-6.715-4.633 1.214" class="E"/><path d="M471.934-142.283c-3.35 4.942-1.21 12.846-1.21 12.846.458-3.538 1.854-5.83 1.854-5.83l-.644-7.017" class="I"/><path d="M239.627-116.444c2.56-.117 13.3-14.536 13.3-14.536l3.987 5.184s6.148-11.944 3.107-17.63-19.067 9.855-19.067 9.855l-1.327 17.126" class="B"/><path d="M255.75-144.28c-1.02.35-2.137.906-3.29 1.588 1.152-.682 2.27-1.24 3.29-1.588m4.133.624c.048.072.095.15.14.23l.025.048h0l-.025-.048c-.044-.082-.1-.16-.14-.23" class="N"/><path d="M260.047-143.378h0c.488.933.732 2.032.8 3.217-.067-1.185-.312-2.284-.8-3.218" class="K"/><path d="M252.927-130.98l-4.105 5.284.023-.002 4.055-5.24.027-.04m-8.2 10.148c-1.434 1.603-2.793 2.983-3.818 3.748 1.025-.763 2.385-2.14 3.82-3.737l-.002-.01m-5.1 4.263l-.01.12.01-.12" class="N"/><path d="M257.786-144.676c-.596 0-1.266.136-1.987.378l-.026.01-.022.008c-1.02.35-2.14.906-3.29 1.588-1.853 1.1-3.793 2.52-5.54 3.916.298 6.324-5.2 15.353-5.894 16.467l-.072.822c-.4 3.75-1.004 4.63-1.23 4.836-.04.036-.067.052-.083.06l-.002.028-.01.12c.316-.014.755-.244 1.282-.637 1.025-.765 2.384-2.145 3.818-3.748l-.803-3.572c-.012-.052-.018-.105-.018-.156-.001-.36.27-.676.646-.713l4.27-.423c2.304-2.865 4.105-5.284 4.105-5.284h0l-.574.704c-2.938-4.1 1.672-8.306 1.672-8.306h0l-1.672 6.504.574 1.098 3.548 3.998-.205.347.644.837s4.276-8.308 3.934-14.363c-.068-1.185-.312-2.284-.8-3.217h0c-.008-.017-.017-.033-.025-.048-.044-.082-.1-.16-.14-.23-.48-.713-1.204-1.02-2.097-1.02" class="D"/><path d="M246.92-138.777h0l-5.8 5.05c.115 5.1.08 9.035-.094 11.417.694-1.114 6.192-10.142 5.894-16.467m7.105.197s-4.6 4.195-1.672 8.306l.574-.704-.574-1.098 1.672-6.504" class="M"/><path d="M240.17-154.508l-25.368-1.757s-.345 13.587-2.367 20.658l-2.53 7.847-1.458 4.03-1.594 4.228c3.473.995 7.008 1.756 10.607 2.296 3.79.604 7.626.966 11.48 1.088 4.97.035 10.686-.47 10.686-.47s.81-.178 1.324-4.897c.468-4.442.25-16.883-.78-33.023" class="B"/><path d="M214.8-156.263l-.02.642.02-.642h-.001" fill="#f0f0ee"/><path d="M240.83-142.316l.237 6.477-.237-6.477m.278 8.062h-.001l.012.526-.01-.526" class="N"/><path d="M241.066-135.84h-.002l.043 1.585-.04-1.585" fill="#f3f2f1"/><path d="M241.026-122.3l-.076.825c-.407 3.73-.997 4.622-1.227 4.833.227-.205.82-1.087 1.23-4.836l.072-.822" fill="#d9e7f7"/><path d="M241.12-133.728c.113 5.105.076 9.04-.098 11.423.178-2.388.213-6.32.098-11.423" fill="#c8d5e9"/><path d="M214.802-156.263l-.024.782c9.02 4.627 16.014 18.904 16.014 18.904l-2.9 3.65 3.91 3.682s5.23 1.816 6.08 2.737c.844.916 1.355 6.274.826 6.274-.554-.065-7.087-2.476-7.54-3.02s-1.582-3.68-1.582-3.68l-3.98-3.123-.633.795-8.966-5.627c-.585 4.328-2.494 7.63-2.494 7.63l-.386-.416c-.096.993-.518 2.324-1.723 3.908-2.737 3.6-4.17 4.34-4.17 4.34a1.98 1.98 0 0 1-.317-.201l-.048.124c3.472.994 7.008 1.755 10.607 2.295 1.05.167 2.102.316 3.157.446-.215-.254-.457-.5-.73-.73 0 0 1.796-2.85 8.194-4.002 0 0 3.3 1.938 2.07 4.556 0 0-.614.044-1.136.817l.433.002c4.843 0 10.176-.47 10.176-.47s.034-.008.093-.06c.23-.2.82-1.103 1.227-4.833a27.05 27.05 0 0 0 .072-.82c.174-2.38.21-6.317.097-11.42h0l-.012-.528-.042-1.585-.235-6.477-.65-12.012-22.297-1.72-3.082-.213" class="D"/><path d="M214.742-154.608l-.25 4.458.25-4.458" fill="#b8bab8"/><path d="M214.777-155.48h0l-.035.873-.25 4.458c6.457 3.52 12.96 14.565 12.96 14.565h0l-1.126 1.195 1.555 1.464 2.9-3.65s-6.993-14.277-16.014-18.904m-1.77 17.51c-.173.84-.363 1.635-.57 2.36l-.202.697c.108 2.374.592 5.254.592 5.254s.308.542.31 1.513c0 .147-.007.304-.023.47l.386.416s1.91-3.302 2.494-7.63l8.966 5.627.633-.795-1.926-1.51-.626.664s-8.038-6.73-10.033-7.066" class="M"/><path d="M208.65-289.78l3.83-2.25s1.855 2.64 5.82 6.896v.01l3.488 3.87c2.426 2.783 5.05 5.96 7.8 9.378l2.465 3.084c9.583 12.058 19.945 26.232 23.822 35.815 1.205 2.98 1.792 5.5 1.53 7.404-.786 5.724-3.012 14.34-5.557 22.665-3.87 12.723-8.22 24.78-8.22 24.78l-10.694-18.115s3.282-7.824 6.27-16.156c2.94-8.18 5.597-16.86 4.613-19.12a17.85 17.85 0 0 0-.348-.761c-1.776-3.677-6.69-12.01-12.272-21.213l-1.704-2.8-8.998-14.602-3.258-5.248-8.585-13.635" class="G"/><path d="M218.737-285.127l-.076.386 3.125 3.482.035-.255-3.084-3.614" class="I"/><path d="M218.66-284.74l-1.374 8.595 3.215 5.176 1.284-10.288-3.125-3.482" class="O"/><path d="M229.587-272.137l-.002.257 2.644 3.307.04-.224-2.68-3.34" class="I"/><path d="M229.586-271.88l-.095 15.534 1.73 2.85c-.04-4.002.107-9.89 1.008-15.076l-.178-.224-2.465-3.084" class="O"/><path d="M213.184-216.38c1.323-9.03 3.21-17.2 4.44-22.087l1.237-4.653c-.072-9.108.657-18.866 1.633-27.777l1.292-10.36c1.665-12.003 3.417-20.62 3.417-20.62l4.558.595-.444 69.888-.547 39.907-15.855 7.135c-2.125-9.036-1.332-21.15.27-32.026" class="G"/><path d="M209-287.28c.467.34 4.414-5.573 4.414-5.573s-.88-6.164.902-10.14-1.68-3.636-4.556.13l-7.116 9.316c-2.044 2.676 1.513 2.745 6.356 6.267" class="C"/><path d="M213.807-294.074c.955-.593 2.008-1.065 2.274-.884.082.055.057.24.034.344-.048.225-.165.388-.36.5-.23.134-.54.18-.855.18-.395 0-.804-.074-1.094-.14zm1.03-2.88c.037-.01.147-.036.327.19.066.083.1.186.074.312-.077.585-.96 1.442-1.583 1.966.283-1.1.762-2.37 1.183-2.47zm-.085-.364c-.897.21-1.48 2.766-1.586 3.277l-.001.074v.001l.02.056h0l.04.048h.001.001 0 .001l.065.035c.082.027 1.75.554 2.65.032.287-.165.467-.415.538-.744.075-.35.01-.597-.19-.733-.3-.208-.913-.034-1.508.237.4-.44.77-.94.827-1.37.03-.23-.02-.428-.15-.592-.2-.265-.416-.337-.578-.337l-.127.015" class="B"/><path d="M223.59-298.968c.013.577 7.108.124 7.108.124s4.365-4.44 8.605-5.437 1.87-3.543-2.868-3.543H224.71c-3.368 0-1.264 2.87-1.123 8.856" class="C"/><path d="M233.12-297.748c-.556-.23-.995-1.037-1.216-1.525 1.05.4 2.064.95 2.083 1.27.006.1-.156.19-.254.237a.76.76 0 0 1-.327.078.74.74 0 0 1-.287-.06zm-.982-1.893c1.046-.444 2.345-.835 2.68-.56.03.024.118.098.047.375-.026.104-.092.185-.203.25-.197.112-.496.155-.836.155-.546 0-1.197-.1-1.687-.22zm-.65-.12l-.06.044v.001l-.033.05h-.001l-.013.06v.002l.01.075c.03.085.625 1.728 1.583 2.127.306.127.615.117.918-.025.323-.154.48-.354.467-.596-.02-.373-.527-.748-1.104-1.055.6.057 1.214.04 1.59-.174a.76.76 0 0 0 .379-.481c.107-.42-.034-.644-.17-.756-.148-.12-.367-.17-.626-.17-.992 0-2.568.722-2.94.9" class="B"/><path d="M256.475-126.982l-3.22 5.462s.01 2.87-.272 3.547-3.435 2.2-4.054 1.973-.845-5.86-.28-6.62 2.534-1.603 2.534-1.603l-.135-1.07 1.88-5.687 3.548 3.998" class="G"/><path d="M257.77-126.363l-1.07 1.07-5.068-5.687.72-2.252 5.416 6.87" class="B"/><path d="M253.86-193.87l-19.478-6.92-1.45 3.98-.334-3.17-.253-2.434h-23.648l-.142 1.903a120.83 120.83 0 0 0 .951 23.29c.888 6.294 2.426 13.088 5 19.5l.61 1.46 25.368 1.96.214-1.22 1.593-9.11 11.558-29.236" class="C"/><path d="M222.124-132.78l7.45 5.846s1.13 3.137 1.582 3.68 6.986 2.955 7.53 3.02.033-5.353-.817-6.274-6.08-2.737-6.08-2.737l-7.802-7.347-1.865 3.81" class="G"/><path d="M207.222-119.427c-4.375-2.193-6.32-26.905 1.277-31.172s18.952 15.014 18.952 15.014l-4.41 4.68s-9.25-7.744-10.367-7.032.154 8.28.154 8.28 1.3 2.29-1.437 5.89-4.17 4.34-4.17 4.34" class="B"/><path d="M210.867-151.216a4.76 4.76 0 0 0-2.368.617c-3.695 2.075-5.133 8.986-5.132 15.79.001 7.187 1.608 14.255 3.855 15.382 0 0 1.432-.74 4.17-4.34 1.406-1.85 1.747-3.353 1.746-4.378-.001-.97-.31-1.513-.31-1.513s-.484-2.88-.592-5.254h0a18.87 18.87 0 0 1-.021-.863c0-1.087.118-1.945.46-2.162.05-.032.114-.047.193-.047 1.72 0 10.174 7.08 10.174 7.08l4.41-4.68s-6.503-11.044-12.96-14.565h-.001c-.205-.112-.4-.216-.615-.312-1.018-.477-2.03-.753-3.01-.753" class="D"/><path d="M227.537-137.3l1.32.794-4.955 7.264-1.82-1.014 5.453-7.043" class="B"/><path d="M209.505-177.223c.888 6.294 2.426 13.088 5 19.5l.02-.002-.478-1.18 6.633.333c-.036-.2-2.93-15.902-11.186-18.652m35.836 4.932c-5.3 2.583-6.306 11.224-6.497 14.63l2.23.112 1.24-7.085 3.028-7.658m-12.987-30.123h-23.648l-.142 1.903 24.043.53-.253-2.434m2.036 1.627l-.65 1.784 19.073 7.808 1.054-2.672-19.478-6.92" fill="#111d23"/><path d="M232.93-196.815v.001" class="I"/><path d="M232.93-196.814h0l.506 6.48 5.353 10.505s1.686-6.06-.98-11.458c-2.648-5.36-4.85-5.526-4.88-5.528" fill="#111d23"/><path d="M241.042-157.444l-.55 3.138.55-3.138" fill="#686c6e"/><path d="M241.062-157.55l-.02.105.02-.105" fill="#435a82"/><path d="M220.7-158.57l-6.155.847.59 1.46 25.368 1.96.213-1.22-1.918-.738.044-1.398-18.142-.9" fill="#0a1013"/><path d="M214.057-158.904l.478 1.18 6.155-.846-6.633-.335m24.775 1.245l-.044 1.398 1.918.738.354-2.025-2.23-.112" fill="#0a0d0e"/><path d="M229.382-155.283l.316-2.966c.035-.325.323-.564.648-.537l3.953.314c.335.027.584.323.553.66l-.278 2.923c-.03.326-.316.568-.64.545l-3.99-.272c-.34-.024-.595-.326-.56-.666" class="B"/><path d="M222.757-155.64l-.313-3.488h-.98l.156 3.488h1.137m14.23 1.063l.392-3.65h.9l-.314 3.803-.98-.152m-11.21 60.116l-.127.047a.2.2 0 0 0-.025.28c4.233 5.04 2.052 8.23 1.958 8.364a.2.2 0 0 0 .045.277c.1.063.212.044.277-.045.102-.143 2.466-3.56-1.976-8.85l-.152-.07" class="C"/><path d="M250.023-125.18l2.586 11.693c.1.405-.182.8-.593.863l-4.607.69c-.372.055-.723-.185-.805-.55l-2.68-11.917c-.095-.42.2-.828.628-.87l4.702-.465c.36-.036.69.204.77.558" class="B"/><path d="M249.325-125.743c-.024 0-.048.002-.07.004l-4.702.465c-.375.037-.647.354-.646.713 0 .052.006.104.018.156l2.68 11.917c.075.33.37.558.698.558a.7.7 0 0 0 .107-.008l.186-.028a.72.72 0 0 1-.51-.534l-2.68-11.916c-.094-.42.2-.828.628-.87l4.45-.44a.7.7 0 0 0-.159-.018" class="J"/><path d="M250.505-125.192l2.586 11.694c.1.404-.183.8-.593.863l-4.607.69c-.37.055-.722-.185-.805-.55l-2.68-11.916c-.094-.42.2-.828.628-.87l4.703-.465c.36-.036.69.204.77.557" class="B"/><g class="J"><use xlink:href="#F"/><use xlink:href="#F" x="-0.156" y="-0.825"/></g><path d="M228.146-124.227s-8.327 5.103-15.718 6.106c0 0-3.226 2.358 6.086 3.928s15.664.3 16.356-2.254-2.955-7.362-6.724-7.78" class="B"/><path d="M223.58-83.566s6.462 4.165 13.538.388 1.093-17.157 1.093-17.157 3.423-5.165-.12-10.937-21.786-3.7-26.845 2.822 4.596 18.654 8.378 19.562 3.956 5.322 3.956 5.322" class="C"/><path d="M228.087-121.495c-6.398 1.152-8.194 4.002-8.194 4.002 4.282 3.647 1.227 10.5 1.227 10.5l7.678-1.842c-.27-1.27-.4-2.34-.47-3.25-.298-4.702 1.827-4.856 1.827-4.856 1.23-2.618-2.07-4.556-2.07-4.556" class="G"/><path d="M228.33-112.083c-3.693 1.057-7.2 5.1-7.2 5.1l7.678-1.842c-.27-1.27-.4-2.34-.47-3.25h0" class="O"/><path d="M228.23-86.858c6.73-.606 8.573-4.404 8.442-11.384-.163-8.723-2.64-14.708-10.888-12.1-11.203 3.542-8.73 24.49 2.446 23.484" class="G"/><path d="M232.356-97.474s.775-1.842 1.708-2.968c0 0-.66-.863-1.843-.6l.136 3.57" fill="#f06b74"/><g class="C"><path d="M228.286-96.553c-.036-.555-.366-.984-.736-.96s-.638.494-.602 1.047.365.984.735.96.64-.494.602-1.047"/><path d="M227.528-95.522l1.237.392s-.667-.974-1.237-.392m7.652-1.373c-.037-.554-.366-.984-.736-.958s-.64.493-.602 1.047.366.983.736.958.64-.493.602-1.047"/><path d="M234.423-95.865l1.236.392s-.667-.973-1.236-.392m-8.797 2.925c-.073 0-.145.026-.2.08-.113.1-.116.293-.006.406 1.238 1.272 3.196.855 3.28.835.155-.034.25-.187.217-.342a.29.29 0 0 0-.342-.218c-.017.004-1.73.365-2.743-.675-.056-.058-.13-.086-.205-.086m10.56-.197l-.18.063c-1.262 1.013-2.335.752-2.38.74-.152-.04-.3.052-.35.205s.05.3.202.35c.055.017 1.387.358 2.887-.847.124-.1.143-.28.044-.404a.29.29 0 0 0-.224-.108"/><path d="M219.855-97.54s3.644 5.246 3.55 9.56c0 0 13.828 4.25 13.268-9.348 0 0 2.384 11.904-9.162 13.212-11.527 1.306-13.018-15.623-7.497-21.203 0 0-2.42 4.496-.16 7.78"/></g><path d="M220.826-99.06c.053 1.088-.9 3.022-2.936 2.984-2.106-.04-3.485-4.232 1.6-5.728.73-.215 1.217.475 1.326 2.744" class="G"/><path d="M231.614-104.16c-.65 0-3.012.17-3.737 2.582a.28.28 0 1 0 .537.162c.7-2.355 3.215-2.188 3.322-2.18.16.013.3-.103.3-.258a.28.28 0 0 0-.256-.302c-.005 0-.065-.004-.167-.004m-3.383 17.302s-.315-8.625-8.535-9.835c-9.93-1.46-12.228-11.02-4.336-14.97 0 0-8.087 3.63-7.885 9.644.205 6.1 7.624 12.88 7.624 12.88s-1 5.47 7.08 6.8c4.557.755 6.05-4.53 6.05-4.53m8.208-26.977l-.165.088c-.06.092-.036.215.055.275 2.188 1.457 3.467 3.283 3.803 5.428.66 4.2-2.555 8.298-2.588 8.34-.068.086-.055.2.03.278s.2.055.278-.03c.138-.172 3.355-4.26 2.67-8.646-.353-2.26-1.7-4.177-3.976-5.698l-.1-.033" class="C"/></g></g><defs ><path id="B" d="M225.768-110.472h63.42v1.586h-63.42z"/><path id="C" d="M225.768-123.156h63.42v1.585h-63.42z"/><path id="D" d="M283.254-134.5c-1.385.44-2.33 1.038-2.33 2.14 0 1.04.66 1.952 2.33 2.33v-4.47"/><path id="E" d="M387.873-109.715c0-13.973-11.327-25.3-25.3-25.3s-25.3 11.327-25.3 25.3 11.327 25.3 25.3 25.3 25.3-11.327 25.3-25.3"/><path id="F" d="M247.988-113.682c-.174 0-.314.14-.314.314s.14.313.314.313.313-.14.313-.313-.14-.314-.313-.314"/></defs></svg>