<?xml version="1.0" encoding="UTF-8" standalone="no"?>
<!-- Created with Inkscape (http://www.inkscape.org/) -->

<svg
   xmlns:dc="http://purl.org/dc/elements/1.1/"
   xmlns:cc="http://creativecommons.org/ns#"
   xmlns:rdf="http://www.w3.org/1999/02/22-rdf-syntax-ns#"
   xmlns:svg="http://www.w3.org/2000/svg"
   xmlns="http://www.w3.org/2000/svg"
   xmlns:sodipodi="http://sodipodi.sourceforge.net/DTD/sodipodi-0.dtd"
   xmlns:inkscape="http://www.inkscape.org/namespaces/inkscape"
   version="1.1"
   id="svg2"
   xml:space="preserve"
   width="666.66669"
   height="666.66669"
   viewBox="0 0 666.66669 666.66669"
   sodipodi:docname="01.svg"
   inkscape:version="0.92.5 (2060ec1f9f, 2020-04-08)"><metadata
     id="metadata8"><rdf:RDF><cc:Work
         rdf:about=""><dc:format>image/svg+xml</dc:format><dc:type
           rdf:resource="http://purl.org/dc/dcmitype/StillImage" /><dc:title /></cc:Work></rdf:RDF></metadata><defs
     id="defs6" /><sodipodi:namedview
     pagecolor="#ffffff"
     bordercolor="#666666"
     borderopacity="1"
     objecttolerance="10"
     gridtolerance="10"
     guidetolerance="10"
     inkscape:pageopacity="0"
     inkscape:pageshadow="2"
     inkscape:window-width="1366"
     inkscape:window-height="722"
     id="namedview4"
     showgrid="false"
     inkscape:zoom="0.35399998"
     inkscape:cx="-19.31241"
     inkscape:cy="199.09568"
     inkscape:window-x="0"
     inkscape:window-y="21"
     inkscape:window-maximized="1"
     inkscape:current-layer="g12" /><g
     id="g10"
     inkscape:groupmode="layer"
     inkscape:label="ink_ext_XXXXXX"
     transform="matrix(1.3333333,0,0,-1.3333333,0,666.66667)"><g
       id="g12"
       transform="scale(0.1)"><path
         d="m 4093.89,3808.74 c 0,-299.2 -242.55,-541.75 -541.75,-541.75 -299.21,0 -541.75,242.55 -541.75,541.75 0,299.21 242.54,541.76 541.75,541.76 299.2,0 541.75,-242.55 541.75,-541.76"
         style="fill:#9dc6c9;fill-opacity:1;fill-rule:nonzero;stroke:none"
         id="path16"
         inkscape:connector-curvature="0" /><path
         d="m 3713.13,3553.82 c 0,0 -10.77,99.58 129.18,88.81 0,0 29.35,95.16 132.59,107.66 116.48,14.1 155.39,-70.56 168.85,-89.4 0,0 186.26,46.34 207.8,-107.07 h -638.42"
         style="fill:#e2eeee;fill-opacity:1;fill-rule:nonzero;stroke:none"
         id="path18"
         inkscape:connector-curvature="0" /><path
         d="m 536.344,3001.88 c 0,0 7.621,141.05 159.765,96.92 0,0 58.586,95.46 168.137,67.87 36.012,-9.07 68.031,-31.18 85.996,-63.68 13.426,-24.27 21.883,-57.87 10.395,-101.11 H 536.344"
         style="fill:#e2eeee;fill-opacity:1;fill-rule:nonzero;stroke:none"
         id="path20"
         inkscape:connector-curvature="0" /><path
         d="M 1940.81,902.699 H 1382.42 V 2049.31 h 558.39 V 902.699"
         style="fill:#9dc6c9;fill-opacity:1;fill-rule:nonzero;stroke:none"
         id="path22"
         inkscape:connector-curvature="0" /><path
         d="M 1149.35,902.699 H 671.715 V 2011.57 H 1149.35 V 902.699"
         style="fill:#9dc6c9;fill-opacity:1;fill-rule:nonzero;stroke:none"
         id="path24"
         inkscape:connector-curvature="0" /><path
         d="M 1089.76,1947.82 H 621.578 v 63.75 h 468.182 v -63.75"
         style="fill:#9dc6c9;fill-opacity:1;fill-rule:nonzero;stroke:none"
         id="path26"
         inkscape:connector-curvature="0" /><path
         d="M 1481.85,902.699 H 923.469 V 2625.07 H 1481.85 V 902.699"
         style="fill:#9dc6c9;fill-opacity:1;fill-rule:nonzero;stroke:none"
         id="path28"
         inkscape:connector-curvature="0" /><path
         d="M 2043.57,902.699 H 1613.88 V 2401.07 h 429.69 V 902.699"
         style="fill:#9dc6c9;fill-opacity:1;fill-rule:nonzero;stroke:none"
         id="path30"
         inkscape:connector-curvature="0" /><path
         d="m 4297.99,2340.48 h -509.93 v -82.21 h 45.26 v -110.89 h -149.64 v 707.91 H 3319.52 V 893.242 h 926.93 V 2258.27 h 51.54 v 82.21"
         style="fill:#9dc6c9;fill-opacity:1;fill-rule:nonzero;stroke:none"
         id="path32"
         inkscape:connector-curvature="0" /><path
         d="m 1409.17,3062.86 h 176.81"
         style="fill:none;stroke:#8e548d;stroke-width:29.51160049;stroke-linecap:butt;stroke-linejoin:miter;stroke-miterlimit:10;stroke-dasharray:none;stroke-opacity:1"
         id="path34"
         inkscape:connector-curvature="0" /><path
         d="m 1409.17,2331.58 h 176.81"
         style="fill:none;stroke:#8e548d;stroke-width:29.51160049;stroke-linecap:butt;stroke-linejoin:miter;stroke-miterlimit:10;stroke-dasharray:none;stroke-opacity:1"
         id="path36"
         inkscape:connector-curvature="0" /><path
         d="m 1409.17,2714.54 h 176.81"
         style="fill:none;stroke:#8e548d;stroke-width:29.51160049;stroke-linecap:butt;stroke-linejoin:miter;stroke-miterlimit:10;stroke-dasharray:none;stroke-opacity:1"
         id="path38"
         inkscape:connector-curvature="0" /><path
         d="m 1469.42,2122.15 h -281.24 v 1143.53 h 281.24 V 2122.15"
         style="fill:#ead8ca;fill-opacity:1;fill-rule:nonzero;stroke:none"
         id="path40"
         inkscape:connector-curvature="0" /><path
         d="m 1202.47,2136.44 h 252.67 V 3251.4 h -252.67 z m 281.24,-28.58 H 1173.9 v 1172.1 h 309.81 v -1172.1"
         style="fill:#422f68;fill-opacity:1;fill-rule:nonzero;stroke:none"
         id="path42"
         inkscape:connector-curvature="0" /><g
         id="g44"
         transform="scale(10)"><text
   transform="matrix(1,0,0,-1,126.662,299.574)"
   style="font-variant:normal;font-weight:800;font-size:15.42940044px;font-family:Montserrat;-inkscape-font-specification:Montserrat-ExtraBold;writing-mode:lr-tb;fill:#422f68;fill-opacity:1;fill-rule:nonzero;stroke:none"
   id="text56"><tspan
     x="0"
     y="0"
     id="tspan46">H</tspan><tspan
     x="-0.30865499"
     y="17.589399"
     id="tspan48">O</tspan><tspan
     x="1.319145"
     y="35.178799"
     id="tspan50">T</tspan><tspan
     x="1.033793"
     y="52.7682"
     id="tspan52">E</tspan><tspan
     x="1.512199"
     y="70.357101"
     id="tspan54">L</tspan></text>

</g><path
         d="M 3091.21,3619.38 H 1886.45 v 194.77 h 1204.76 v -194.77"
         style="fill:#ead8ca;fill-opacity:1;fill-rule:nonzero;stroke:none"
         id="path58"
         inkscape:connector-curvature="0" /><path
         d="m 3012.92,3604.77 c 0,-289.45 -234.64,-524.09 -524.09,-524.09 -289.45,0 -524.1,234.64 -524.1,524.09 0,289.46 234.65,524.11 524.1,524.11 289.45,0 524.09,-234.65 524.09,-524.11"
         style="fill:#ead8ca;fill-opacity:1;fill-rule:nonzero;stroke:none"
         id="path60"
         inkscape:connector-curvature="0" /><path
         d="m 2158.35,3821.88 c 0,0 105.33,211.94 328.76,211.94 223.43,0 332.19,-211.94 332.19,-211.94 h -660.95"
         style="fill:#acd2e7;fill-opacity:1;fill-rule:nonzero;stroke:none"
         id="path62"
         inkscape:connector-curvature="0" /><path
         d="m 2413.68,3821.88 -45.78,9.77 129.85,210.44 46.72,-8.27 -130.79,-211.94"
         style="fill:#c9edfb;fill-opacity:1;fill-rule:nonzero;stroke:none"
         id="path64"
         inkscape:connector-curvature="0" /><path
         d="m 2468.68,3814.15 -25,15.45 125.37,199.73 25.01,-15.45 -125.38,-199.73"
         style="fill:#c9edfb;fill-opacity:1;fill-rule:nonzero;stroke:none"
         id="path66"
         inkscape:connector-curvature="0" /><path
         d="m 2183.65,3836.43 h 609.94 c -34.07,52.24 -136.31,182.84 -306.48,182.84 -170.6,0 -270.46,-130.75 -303.46,-182.84 z m 659.47,-29.1 h -708.25 l 10.45,21.02 c 1.1,2.2 112,220.03 341.79,220.03 229.68,0 340.53,-210.88 345.14,-219.86 l 10.87,-21.19"
         style="fill:#422f68;fill-opacity:1;fill-rule:nonzero;stroke:none"
         id="path68"
         inkscape:connector-curvature="0" /><path
         d="m 2501.67,3821.88 h -29.11 v 211.94 h 29.11 v -211.94"
         style="fill:#422f68;fill-opacity:1;fill-rule:nonzero;stroke:none"
         id="path70"
         inkscape:connector-curvature="0" /><path
         d="M 3391.67,906.301 H 1585.98 V 3701.47 H 3391.67 V 906.301"
         style="fill:#ead8ca;fill-opacity:1;fill-rule:nonzero;stroke:none"
         id="path72"
         inkscape:connector-curvature="0" /><path
         d="M 3391.67,3666.57 H 1585.98 v -94.39 h 1805.69 v 94.39"
         style="fill:#422f68;fill-opacity:1;fill-rule:nonzero;stroke:none"
         id="path74"
         inkscape:connector-curvature="0" /><path
         d="M 3391.67,3751.76 H 1585.98 v -50.29 h 1805.69 v 50.29"
         style="fill:#422f68;fill-opacity:1;fill-rule:nonzero;stroke:none"
         id="path76"
         inkscape:connector-curvature="0" /><path
         d="M 3391.67,2624.8 H 1585.98 v 38.11 h 1805.69 v -38.11"
         style="fill:#dcc8b7;fill-opacity:1;fill-rule:nonzero;stroke:none"
         id="path78"
         inkscape:connector-curvature="0" /><path
         d="M 3391.67,1782.53 H 1585.98 v 38.11 h 1805.69 v -38.11"
         style="fill:#dcc8b7;fill-opacity:1;fill-rule:nonzero;stroke:none"
         id="path80"
         inkscape:connector-curvature="0" /><path
         d="m 3134.79,2870.83 h -236.62 v 487.43 h 236.62 v -487.43"
         style="fill:#acd2e7;fill-opacity:1;fill-rule:nonzero;stroke:none"
         id="path82"
         inkscape:connector-curvature="0" /><path
         d="m 2916.94,2997.17 -20.99,49.95 199.24,322.73 37.52,-23.17 -215.77,-349.51"
         style="fill:#c9edfb;fill-opacity:1;fill-rule:nonzero;stroke:none"
         id="path84"
         inkscape:connector-curvature="0" /><path
         d="m 2910.68,2885.99 -25,15.44 233.98,379.03 25,-15.44 -233.98,-379.03"
         style="fill:#c9edfb;fill-opacity:1;fill-rule:nonzero;stroke:none"
         id="path86"
         inkscape:connector-curvature="0" /><path
         d="m 3181.62,2798.47 h -335.3 v 57.66 h 335.3 v -57.66"
         style="fill:#8e548d;fill-opacity:1;fill-rule:nonzero;stroke:none"
         id="path88"
         inkscape:connector-curvature="0" /><path
         d="m 3181.62,2761.47 h -335.3 v 37 h 335.3 v -37"
         style="fill:#dcc8b7;fill-opacity:1;fill-rule:nonzero;stroke:none"
         id="path90"
         inkscape:connector-curvature="0" /><path
         d="m 2912.72,2885.39 h 207.52 v 458.32 h -207.52 z m 236.62,-29.11 h -265.72 v 516.54 h 265.72 v -516.54"
         style="fill:#422f68;fill-opacity:1;fill-rule:nonzero;stroke:none"
         id="path92"
         inkscape:connector-curvature="0" /><path
         d="m 3134.79,3099.99 h -236.62 v 29.11 h 236.62 v -29.11"
         style="fill:#422f68;fill-opacity:1;fill-rule:nonzero;stroke:none"
         id="path94"
         inkscape:connector-curvature="0" /><path
         d="m 2607.93,2870.83 h -236.61 v 487.43 h 236.61 v -487.43"
         style="fill:#acd2e7;fill-opacity:1;fill-rule:nonzero;stroke:none"
         id="path96"
         inkscape:connector-curvature="0" /><path
         d="m 2390.09,2997.17 -20.99,49.95 199.23,322.73 37.52,-23.17 -215.76,-349.51"
         style="fill:#c9edfb;fill-opacity:1;fill-rule:nonzero;stroke:none"
         id="path98"
         inkscape:connector-curvature="0" /><path
         d="m 2383.83,2885.99 -25.01,15.44 233.99,379.03 25.01,-15.44 -233.99,-379.03"
         style="fill:#c9edfb;fill-opacity:1;fill-rule:nonzero;stroke:none"
         id="path100"
         inkscape:connector-curvature="0" /><path
         d="m 2654.76,2798.47 h -335.29 v 57.66 h 335.29 v -57.66"
         style="fill:#8e548d;fill-opacity:1;fill-rule:nonzero;stroke:none"
         id="path102"
         inkscape:connector-curvature="0" /><path
         d="m 2654.76,2761.47 h -335.29 v 37 h 335.29 v -37"
         style="fill:#dcc8b7;fill-opacity:1;fill-rule:nonzero;stroke:none"
         id="path104"
         inkscape:connector-curvature="0" /><path
         d="m 2385.87,2885.39 h 207.51 v 458.32 h -207.51 z m 236.62,-29.11 h -265.73 v 516.54 h 265.73 v -516.54"
         style="fill:#422f68;fill-opacity:1;fill-rule:nonzero;stroke:none"
         id="path106"
         inkscape:connector-curvature="0" /><path
         d="m 2607.93,3099.99 h -236.62 v 29.11 h 236.62 v -29.11"
         style="fill:#422f68;fill-opacity:1;fill-rule:nonzero;stroke:none"
         id="path108"
         inkscape:connector-curvature="0" /><path
         d="m 2081.08,2870.83 h -236.61 v 487.43 h 236.61 v -487.43"
         style="fill:#acd2e7;fill-opacity:1;fill-rule:nonzero;stroke:none"
         id="path110"
         inkscape:connector-curvature="0" /><path
         d="m 1863.23,2997.17 -20.98,49.95 199.23,322.73 37.52,-23.17 -215.77,-349.51"
         style="fill:#c9edfb;fill-opacity:1;fill-rule:nonzero;stroke:none"
         id="path112"
         inkscape:connector-curvature="0" /><path
         d="m 1856.97,2885.99 -25,15.44 233.98,379.03 25.01,-15.44 -233.99,-379.03"
         style="fill:#c9edfb;fill-opacity:1;fill-rule:nonzero;stroke:none"
         id="path114"
         inkscape:connector-curvature="0" /><path
         d="m 2127.91,2798.47 h -335.3 v 57.66 h 335.3 v -57.66"
         style="fill:#8e548d;fill-opacity:1;fill-rule:nonzero;stroke:none"
         id="path116"
         inkscape:connector-curvature="0" /><path
         d="m 2127.91,2761.47 h -335.3 v 37 h 335.3 v -37"
         style="fill:#dcc8b7;fill-opacity:1;fill-rule:nonzero;stroke:none"
         id="path118"
         inkscape:connector-curvature="0" /><path
         d="m 1859.01,2885.39 h 207.52 v 458.32 h -207.52 z m 236.62,-29.11 h -265.72 v 516.54 h 265.72 v -516.54"
         style="fill:#422f68;fill-opacity:1;fill-rule:nonzero;stroke:none"
         id="path120"
         inkscape:connector-curvature="0" /><path
         d="m 2081.08,3099.99 h -236.62 v 29.11 h 236.62 v -29.11"
         style="fill:#422f68;fill-opacity:1;fill-rule:nonzero;stroke:none"
         id="path122"
         inkscape:connector-curvature="0" /><path
         d="m 3134.79,2020.87 h -236.62 v 487.43 h 236.62 v -487.43"
         style="fill:#acd2e7;fill-opacity:1;fill-rule:nonzero;stroke:none"
         id="path124"
         inkscape:connector-curvature="0" /><path
         d="m 2916.94,2147.2 -20.99,49.96 199.24,322.72 37.52,-23.16 -215.77,-349.52"
         style="fill:#c9edfb;fill-opacity:1;fill-rule:nonzero;stroke:none"
         id="path126"
         inkscape:connector-curvature="0" /><path
         d="m 2910.68,2036.02 -25,15.45 233.98,379.02 25,-15.44 -233.98,-379.03"
         style="fill:#c9edfb;fill-opacity:1;fill-rule:nonzero;stroke:none"
         id="path128"
         inkscape:connector-curvature="0" /><path
         d="m 3181.62,1948.51 h -335.3 v 57.66 h 335.3 v -57.66"
         style="fill:#8e548d;fill-opacity:1;fill-rule:nonzero;stroke:none"
         id="path130"
         inkscape:connector-curvature="0" /><path
         d="m 3181.62,1911.5 h -335.3 v 37.01 h 335.3 v -37.01"
         style="fill:#dcc8b7;fill-opacity:1;fill-rule:nonzero;stroke:none"
         id="path132"
         inkscape:connector-curvature="0" /><path
         d="m 2912.72,2035.43 h 207.52 v 458.32 h -207.52 z m 236.62,-29.11 h -265.72 v 516.53 h 265.72 v -516.53"
         style="fill:#422f68;fill-opacity:1;fill-rule:nonzero;stroke:none"
         id="path134"
         inkscape:connector-curvature="0" /><path
         d="m 3134.79,2250.03 h -236.62 v 29.11 h 236.62 v -29.11"
         style="fill:#422f68;fill-opacity:1;fill-rule:nonzero;stroke:none"
         id="path136"
         inkscape:connector-curvature="0" /><path
         d="m 2607.93,2020.87 h -236.61 v 487.43 h 236.61 v -487.43"
         style="fill:#acd2e7;fill-opacity:1;fill-rule:nonzero;stroke:none"
         id="path138"
         inkscape:connector-curvature="0" /><path
         d="m 2390.09,2147.2 -20.99,49.96 199.23,322.72 37.52,-23.16 -215.76,-349.52"
         style="fill:#c9edfb;fill-opacity:1;fill-rule:nonzero;stroke:none"
         id="path140"
         inkscape:connector-curvature="0" /><path
         d="m 2383.83,2036.02 -25.01,15.45 233.99,379.02 25.01,-15.44 -233.99,-379.03"
         style="fill:#c9edfb;fill-opacity:1;fill-rule:nonzero;stroke:none"
         id="path142"
         inkscape:connector-curvature="0" /><path
         d="m 2654.76,1948.51 h -335.29 v 57.66 h 335.29 v -57.66"
         style="fill:#8e548d;fill-opacity:1;fill-rule:nonzero;stroke:none"
         id="path144"
         inkscape:connector-curvature="0" /><path
         d="m 2654.76,1911.5 h -335.29 v 37.01 h 335.29 v -37.01"
         style="fill:#dcc8b7;fill-opacity:1;fill-rule:nonzero;stroke:none"
         id="path146"
         inkscape:connector-curvature="0" /><path
         d="m 2385.87,2035.43 h 207.51 v 458.32 h -207.51 z m 236.62,-29.11 h -265.73 v 516.53 h 265.73 v -516.53"
         style="fill:#422f68;fill-opacity:1;fill-rule:nonzero;stroke:none"
         id="path148"
         inkscape:connector-curvature="0" /><path
         d="m 2607.93,2250.03 h -236.62 v 29.11 h 236.62 v -29.11"
         style="fill:#422f68;fill-opacity:1;fill-rule:nonzero;stroke:none"
         id="path150"
         inkscape:connector-curvature="0" /><path
         d="m 2081.08,2020.87 h -236.61 v 487.43 h 236.61 v -487.43"
         style="fill:#acd2e7;fill-opacity:1;fill-rule:nonzero;stroke:none"
         id="path152"
         inkscape:connector-curvature="0" /><path
         d="m 1863.23,2147.2 -20.98,49.96 199.23,322.72 37.52,-23.16 -215.77,-349.52"
         style="fill:#c9edfb;fill-opacity:1;fill-rule:nonzero;stroke:none"
         id="path154"
         inkscape:connector-curvature="0" /><path
         d="m 1856.97,2036.02 -25,15.45 233.98,379.02 25.01,-15.44 -233.99,-379.03"
         style="fill:#c9edfb;fill-opacity:1;fill-rule:nonzero;stroke:none"
         id="path156"
         inkscape:connector-curvature="0" /><path
         d="m 2127.91,1948.51 h -335.3 v 57.66 h 335.3 v -57.66"
         style="fill:#8e548d;fill-opacity:1;fill-rule:nonzero;stroke:none"
         id="path158"
         inkscape:connector-curvature="0" /><path
         d="m 2127.91,1911.5 h -335.3 v 37.01 h 335.3 v -37.01"
         style="fill:#dcc8b7;fill-opacity:1;fill-rule:nonzero;stroke:none"
         id="path160"
         inkscape:connector-curvature="0" /><path
         d="m 1859.01,2035.43 h 207.52 v 458.32 h -207.52 z m 236.62,-29.11 h -265.72 v 516.53 h 265.72 v -516.53"
         style="fill:#422f68;fill-opacity:1;fill-rule:nonzero;stroke:none"
         id="path162"
         inkscape:connector-curvature="0" /><path
         d="m 2081.08,2250.03 h -236.62 v 29.11 h 236.62 v -29.11"
         style="fill:#422f68;fill-opacity:1;fill-rule:nonzero;stroke:none"
         id="path164"
         inkscape:connector-curvature="0" /><path
         d="M 3012.19,906.301 H 1962.28 V 1615.49 H 3012.19 V 906.301"
         style="fill:#8e548d;fill-opacity:1;fill-rule:nonzero;stroke:none"
         id="path166"
         inkscape:connector-curvature="0" /><path
         d="m 2683.99,1558.82 c 0,-108.67 -88.1,-196.75 -196.75,-196.75 -108.67,0 -196.76,88.08 -196.76,196.75 0,108.67 88.09,196.75 196.76,196.75 108.65,0 196.75,-88.08 196.75,-196.75"
         style="fill:#8e548d;fill-opacity:1;fill-rule:nonzero;stroke:none"
         id="path168"
         inkscape:connector-curvature="0" /><path
         d="m 2922.66,906.301 h -870.85 v 622.709 h 870.85 V 906.301"
         style="fill:#422f68;fill-opacity:1;fill-rule:nonzero;stroke:none"
         id="path170"
         inkscape:connector-curvature="0" /><path
         d="M 2487.24,1538.47 V 920.371"
         style="fill:none;stroke:#8e548d;stroke-width:28.38290024;stroke-linecap:butt;stroke-linejoin:miter;stroke-miterlimit:10;stroke-dasharray:none;stroke-opacity:1"
         id="path172"
         inkscape:connector-curvature="0" /><path
         d="m 2487.24,1703.26 15.88,-38.09 41.12,-3.34 -31.31,-26.87 9.54,-40.14 -35.23,21.47 -35.24,-21.47 9.53,40.14 -31.31,26.87 41.13,3.34 15.89,38.09"
         style="fill:#ead8ca;fill-opacity:1;fill-rule:nonzero;stroke:none"
         id="path174"
         inkscape:connector-curvature="0" /><path
         d="m 2416.79,1233.84 c 0,-11.95 -9.7,-21.65 -21.65,-21.65 -11.96,0 -21.65,9.7 -21.65,21.65 0,11.96 9.69,21.65 21.65,21.65 11.95,0 21.65,-9.69 21.65,-21.65"
         style="fill:#8e548d;fill-opacity:1;fill-rule:nonzero;stroke:none"
         id="path176"
         inkscape:connector-curvature="0" /><path
         d="m 2600.97,1233.84 c 0,-11.95 -9.69,-21.65 -21.64,-21.65 -11.96,0 -21.65,9.7 -21.65,21.65 0,11.96 9.69,21.65 21.65,21.65 11.95,0 21.64,-9.69 21.64,-21.65"
         style="fill:#8e548d;fill-opacity:1;fill-rule:nonzero;stroke:none"
         id="path178"
         inkscape:connector-curvature="0" /><path
         d="m 4036.03,1558.98 c 0,58.03 -18.41,111.44 -49.28,154.24 -10.65,14.77 -15.09,32.78 -12.84,50.86 1.21,9.73 1.86,19.68 1.86,29.8 0,116.64 -80.73,211.2 -180.3,211.2 -99.58,0 -180.3,-94.56 -180.3,-211.2 0,-10.12 0.65,-20.07 1.86,-29.8 2.25,-18.08 -2.19,-36.09 -12.85,-50.86 -30.86,-42.8 -49.27,-96.21 -49.27,-154.24 0,-56.13 17.28,-107.89 46.36,-149.95 10.55,-15.24 15.49,-33.36 14.36,-51.87 -0.3,-4.92 -0.46,-9.89 -0.46,-14.91 0,-116.64 80.72,-211.19 180.3,-211.19 99.57,0 180.3,94.55 180.3,211.19 0,5.02 -0.16,9.99 -0.46,14.91 -1.14,18.51 3.81,36.63 14.35,51.87 29.09,42.06 46.37,93.82 46.37,149.95"
         style="fill:#ead8ca;fill-opacity:1;fill-rule:nonzero;stroke:none"
         id="path180"
         inkscape:connector-curvature="0" /><path
         d="m 3795.36,913.52 h -19.96 v 876.57 h 19.96 V 913.52"
         style="fill:#422f68;fill-opacity:1;fill-rule:nonzero;stroke:none"
         id="path182"
         inkscape:connector-curvature="0" /><path
         d="m 3777.85,1570.94 -82.39,94.97 15.07,13.06 82.39,-94.96 -15.07,-13.07"
         style="fill:#422f68;fill-opacity:1;fill-rule:nonzero;stroke:none"
         id="path184"
         inkscape:connector-curvature="0" /><path
         d="m 3792.43,1405.48 -14.1,14.11 102.56,102.46 14.1,-14.11 -102.56,-102.46"
         style="fill:#422f68;fill-opacity:1;fill-rule:nonzero;stroke:none"
         id="path186"
         inkscape:connector-curvature="0" /><path
         d="m 1419.81,1558.98 c 0,58.03 -18.4,111.44 -49.27,154.24 -10.66,14.77 -15.1,32.78 -12.84,50.86 1.21,9.73 1.85,19.68 1.85,29.8 0,116.64 -80.72,211.2 -180.3,211.2 -99.57,0 -180.297,-94.56 -180.297,-211.2 0,-10.12 0.649,-20.07 1.867,-29.8 2.25,-18.08 -2.191,-36.09 -12.847,-50.86 -30.871,-42.8 -49.282,-96.21 -49.282,-154.24 0,-56.13 17.282,-107.89 46.368,-149.95 10.546,-15.24 15.491,-33.36 14.355,-51.87 -0.305,-4.92 -0.461,-9.89 -0.461,-14.91 0,-116.64 80.727,-211.19 180.297,-211.19 99.58,0 180.3,94.55 180.3,211.19 0,5.02 -0.16,9.99 -0.45,14.91 -1.14,18.51 3.81,36.63 14.35,51.87 29.09,42.06 46.36,93.82 46.36,149.95"
         style="fill:#ead8ca;fill-opacity:1;fill-rule:nonzero;stroke:none"
         id="path188"
         inkscape:connector-curvature="0" /><path
         d="m 1179.15,913.52 h -19.97 v 876.57 h 19.97 V 913.52"
         style="fill:#422f68;fill-opacity:1;fill-rule:nonzero;stroke:none"
         id="path190"
         inkscape:connector-curvature="0" /><path
         d="m 1161.63,1570.94 -82.38,94.97 15.07,13.06 82.38,-94.96 -15.07,-13.07"
         style="fill:#422f68;fill-opacity:1;fill-rule:nonzero;stroke:none"
         id="path192"
         inkscape:connector-curvature="0" /><path
         d="m 1176.21,1405.48 -14.1,14.11 102.57,102.46 14.09,-14.11 -102.56,-102.46"
         style="fill:#422f68;fill-opacity:1;fill-rule:nonzero;stroke:none"
         id="path194"
         inkscape:connector-curvature="0" /><path
         d="M 4519.16,892.211 H 411.461 v 28.16 H 4519.16 v -28.16"
         style="fill:#422f68;fill-opacity:1;fill-rule:nonzero;stroke:none"
         id="path196"
         inkscape:connector-curvature="0" /></g></g></svg>